<svg width="32" height="32" viewBox="0 0 32 32" fill="none" xmlns="http://www.w3.org/2000/svg">
<path d="M15.9989 29.9978C25.3333 29.9978 29.9978 23.7303 29.9978 15.9989C29.9978 8.26751 25.3333 2 15.9989 2C6.66443 2 2 8.26751 2 15.9989C2 23.7303 6.66443 29.9978 15.9989 29.9978Z" fill="url(#paint0_radial_23_357)"/>
<path d="M15.9989 29.9978C25.3333 29.9978 29.9978 23.7303 29.9978 15.9989C29.9978 8.26751 25.3333 2 15.9989 2C6.66443 2 2 8.26751 2 15.9989C2 23.7303 6.66443 29.9978 15.9989 29.9978Z" fill="url(#paint1_radial_23_357)"/>
<path d="M15.9989 29.9978C25.3333 29.9978 29.9978 23.7303 29.9978 15.9989C29.9978 8.26751 25.3333 2 15.9989 2C6.66443 2 2 8.26751 2 15.9989C2 23.7303 6.66443 29.9978 15.9989 29.9978Z" fill="url(#paint2_radial_23_357)" fill-opacity="0.6"/>
<path d="M15.9989 29.9978C25.3333 29.9978 29.9978 23.7303 29.9978 15.9989C29.9978 8.26751 25.3333 2 15.9989 2C6.66443 2 2 8.26751 2 15.9989C2 23.7303 6.66443 29.9978 15.9989 29.9978Z" fill="url(#paint3_radial_23_357)"/>
<path d="M15.9989 29.9978C25.3333 29.9978 29.9978 23.7303 29.9978 15.9989C29.9978 8.26751 25.3333 2 15.9989 2C6.66443 2 2 8.26751 2 15.9989C2 23.7303 6.66443 29.9978 15.9989 29.9978Z" fill="url(#paint4_radial_23_357)"/>
<path d="M15.9989 29.9978C25.3333 29.9978 29.9978 23.7303 29.9978 15.9989C29.9978 8.26751 25.3333 2 15.9989 2C6.66443 2 2 8.26751 2 15.9989C2 23.7303 6.66443 29.9978 15.9989 29.9978Z" fill="url(#paint5_radial_23_357)"/>
<path d="M15.9989 29.9978C25.3333 29.9978 29.9978 23.7303 29.9978 15.9989C29.9978 8.26751 25.3333 2 15.9989 2C6.66443 2 2 8.26751 2 15.9989C2 23.7303 6.66443 29.9978 15.9989 29.9978Z" fill="url(#paint6_radial_23_357)"/>
<path d="M15.9989 29.9978C25.3333 29.9978 29.9978 23.7303 29.9978 15.9989C29.9978 8.26751 25.3333 2 15.9989 2C6.66443 2 2 8.26751 2 15.9989C2 23.7303 6.66443 29.9978 15.9989 29.9978Z" fill="url(#paint7_radial_23_357)"/>
<path d="M15.9989 29.9978C25.3333 29.9978 29.9978 23.7303 29.9978 15.9989C29.9978 8.26751 25.3333 2 15.9989 2C6.66443 2 2 8.26751 2 15.9989C2 23.7303 6.66443 29.9978 15.9989 29.9978Z" fill="url(#paint8_radial_23_357)"/>
<path d="M15.9989 29.9978C25.3333 29.9978 29.9978 23.7303 29.9978 15.9989C29.9978 8.26751 25.3333 2 15.9989 2C6.66443 2 2 8.26751 2 15.9989C2 23.7303 6.66443 29.9978 15.9989 29.9978Z" fill="url(#paint9_radial_23_357)"/>
<path d="M15.9989 29.9978C25.3333 29.9978 29.9978 23.7303 29.9978 15.9989C29.9978 8.26751 25.3333 2 15.9989 2C6.66443 2 2 8.26751 2 15.9989C2 23.7303 6.66443 29.9978 15.9989 29.9978Z" fill="url(#paint10_radial_23_357)"/>
<path d="M15.9989 29.9978C25.3333 29.9978 29.9978 23.7303 29.9978 15.9989C29.9978 8.26751 25.3333 2 15.9989 2C6.66443 2 2 8.26751 2 15.9989C2 23.7303 6.66443 29.9978 15.9989 29.9978Z" fill="url(#paint11_radial_23_357)"/>
<path d="M15.9989 29.9978C25.3333 29.9978 29.9978 23.7303 29.9978 15.9989C29.9978 8.26751 25.3333 2 15.9989 2C6.66443 2 2 8.26751 2 15.9989C2 23.7303 6.66443 29.9978 15.9989 29.9978Z" fill="url(#paint12_radial_23_357)"/>
<path d="M15.9989 29.9978C25.3333 29.9978 29.9978 23.7303 29.9978 15.9989C29.9978 8.26751 25.3333 2 15.9989 2C6.66443 2 2 8.26751 2 15.9989C2 23.7303 6.66443 29.9978 15.9989 29.9978Z" fill="url(#paint13_radial_23_357)"/>
<path d="M15.9989 29.9978C25.3333 29.9978 29.9978 23.7303 29.9978 15.9989C29.9978 8.26751 25.3333 2 15.9989 2C6.66443 2 2 8.26751 2 15.9989C2 23.7303 6.66443 29.9978 15.9989 29.9978Z" fill="url(#paint14_radial_23_357)"/>
<path d="M15.9989 29.9978C25.3333 29.9978 29.9978 23.7303 29.9978 15.9989C29.9978 8.26751 25.3333 2 15.9989 2C6.66443 2 2 8.26751 2 15.9989C2 23.7303 6.66443 29.9978 15.9989 29.9978Z" fill="url(#paint15_radial_23_357)"/>
<path fill-rule="evenodd" clip-rule="evenodd" d="M22.7719 10.5649C22.5633 10.2853 22.2176 9.99505 21.5388 10.0001C20.852 10.0051 20.5109 10.2989 20.3105 10.5712C20.1997 10.7217 20.127 10.8766 20.0825 10.995C20.0608 11.0529 20.0473 11.0983 20.04 11.1248C20.0368 11.1366 20.035 11.1444 20.0342 11.1475C19.9238 11.6832 19.4024 12.0316 18.8641 11.9269C18.322 11.8216 17.9679 11.2967 18.0732 10.7545C18.1101 10.5999 18.1101 10.5999 18.1101 10.5999C18.1316 10.5209 18.1638 10.4154 18.2101 10.2922C18.3016 10.0482 18.4539 9.7197 18.6997 9.38582C19.2122 8.68939 20.1093 8.01058 21.524 8.00012C22.9468 7.9896 23.855 8.672 24.375 9.36897C24.6246 9.70361 24.7811 10.0338 24.8757 10.2789C24.9236 10.4028 24.9572 10.5087 24.9797 10.5881C25.1128 11.0569 24.9237 11.7834 24.2421 11.9246C23.7049 12.0359 23.1791 11.6937 23.0623 11.159C23.0615 11.1558 23.0594 11.1473 23.0557 11.1343C23.0478 11.1064 23.0332 11.0594 23.0101 10.9996C22.9629 10.8775 22.8865 10.7185 22.7719 10.5649Z" fill="url(#paint16_radial_23_357)"/>
<path fill-rule="evenodd" clip-rule="evenodd" d="M11.7407 10.5649C11.5321 10.2853 11.1864 9.99505 10.5076 10.0001C9.8208 10.0051 9.47962 10.2989 9.27924 10.5712C9.1685 10.7217 9.09571 10.8766 9.05128 10.995C9.02955 11.0529 9.01601 11.0983 9.00879 11.1248C9.00557 11.1366 9.0037 11.1444 9.00298 11.1475C8.89254 11.6832 8.3712 12.0316 7.83286 11.9269C7.29072 11.8216 6.93663 11.2967 7.04199 10.7545C7.07889 10.5999 7.07889 10.5999 7.07889 10.5999C7.10039 10.5209 7.13257 10.4154 7.17883 10.2922C7.27039 10.0482 7.4227 9.7197 7.6684 9.38582C8.18091 8.68939 9.07801 8.01058 10.4928 8.00012C11.9156 7.9896 12.8238 8.672 13.3437 9.36897C13.5934 9.70361 13.7498 10.0338 13.8445 10.2789C13.8923 10.4028 13.9259 10.5087 13.9484 10.5881C14.0815 11.0569 13.8924 11.7834 13.2109 11.9246C12.6736 12.0359 12.1478 11.6937 12.0311 11.159C12.0303 11.1558 12.0282 11.1473 12.0245 11.1343C12.0165 11.1064 12.0019 11.0594 11.9789 10.9996C11.9317 10.8775 11.8553 10.7185 11.7407 10.5649Z" fill="url(#paint17_radial_23_357)"/>
<path d="M16 26C6 26 6 16 6 16H26C26 16 26 26 16 26Z" fill="url(#paint18_radial_23_357)"/>
<path d="M7.75883 19.7942L7 16H25L24.2412 19.7942C24.1009 20.4953 23.4853 21 22.7703 21H9.22971C8.51468 21 7.89906 20.4953 7.75883 19.7942Z" fill="url(#paint19_radial_23_357)"/>
<path d="M7.75883 19.7942L7 16H25L24.2412 19.7942C24.1009 20.4953 23.4853 21 22.7703 21H9.22971C8.51468 21 7.89906 20.4953 7.75883 19.7942Z" fill="url(#paint20_linear_23_357)"/>
<path fill-rule="evenodd" clip-rule="evenodd" d="M8.34287 22.7155C9.80043 24.5291 12.1648 26 16 26C19.8347 26 22.1989 24.5295 23.6565 22.7164L23.7606 22.1961C23.8843 21.5773 23.411 21 22.78 21H9.21958C8.58853 21 8.11524 21.5773 8.239 22.1961L8.34287 22.7155Z" fill="url(#paint21_linear_23_357)"/>
<defs>
<radialGradient id="paint0_radial_23_357" cx="0" cy="0" r="1" gradientUnits="userSpaceOnUse" gradientTransform="translate(25.5 9) rotate(131.878) scale(38.9487)">
<stop stop-color="#FFF478"/>
<stop offset="0.474827" stop-color="#FFB02E"/>
<stop offset="1" stop-color="#F70A8D"/>
</radialGradient>
<radialGradient id="paint1_radial_23_357" cx="0" cy="0" r="1" gradientUnits="userSpaceOnUse" gradientTransform="translate(16 12.5) rotate(101.31) scale(17.8466 22.8581)">
<stop offset="0.787821" stop-color="#F59639" stop-opacity="0"/>
<stop offset="0.972509" stop-color="#FF7DCE"/>
</radialGradient>
<radialGradient id="paint2_radial_23_357" cx="0" cy="0" r="1" gradientUnits="userSpaceOnUse" gradientTransform="translate(18 14) rotate(135) scale(41.0122)">
<stop offset="0.314853" stop-opacity="0"/>
<stop offset="1"/>
</radialGradient>
<radialGradient id="paint3_radial_23_357" cx="0" cy="0" r="1" gradientUnits="userSpaceOnUse" gradientTransform="translate(16 17) rotate(77.692) scale(28.1469)">
<stop offset="0.507903" stop-color="#7D6133" stop-opacity="0"/>
<stop offset="1" stop-color="#715B32"/>
</radialGradient>
<radialGradient id="paint4_radial_23_357" cx="0" cy="0" r="1" gradientUnits="userSpaceOnUse" gradientTransform="translate(16.5 16.5) rotate(55.7131) scale(13.3135 9.65032)">
<stop stop-color="#FFB849"/>
<stop offset="1" stop-color="#FFB847" stop-opacity="0"/>
</radialGradient>
<radialGradient id="paint5_radial_23_357" cx="0" cy="0" r="1" gradientUnits="userSpaceOnUse" gradientTransform="translate(20.5 18) rotate(9.86581) scale(11.6726)">
<stop stop-color="#FFA64B"/>
<stop offset="0.900412" stop-color="#FFAE46" stop-opacity="0"/>
</radialGradient>
<radialGradient id="paint6_radial_23_357" cx="0" cy="0" r="1" gradientUnits="userSpaceOnUse" gradientTransform="translate(17.5 15) rotate(43.9708) scale(59.0529)">
<stop offset="0.185425" stop-opacity="0"/>
<stop offset="1" stop-opacity="0.4"/>
</radialGradient>
<radialGradient id="paint7_radial_23_357" cx="0" cy="0" r="1" gradientUnits="userSpaceOnUse" gradientTransform="translate(9.30232 13.0752) rotate(-10.3912) scale(7.07095 5.21865)">
<stop stop-color="#F1A227"/>
<stop offset="1" stop-color="#F5A72C" stop-opacity="0"/>
</radialGradient>
<radialGradient id="paint8_radial_23_357" cx="0" cy="0" r="1" gradientUnits="userSpaceOnUse" gradientTransform="translate(18.9836 10.9281) rotate(103.681) scale(2.06508 1.52412)">
<stop stop-color="#E7982E"/>
<stop offset="1" stop-color="#E39632" stop-opacity="0"/>
</radialGradient>
<radialGradient id="paint9_radial_23_357" cx="0" cy="0" r="1" gradientUnits="userSpaceOnUse" gradientTransform="translate(23.3651 11.3566) scale(1.38367)">
<stop stop-color="#D28118"/>
<stop offset="1" stop-color="#D68623" stop-opacity="0"/>
</radialGradient>
<radialGradient id="paint10_radial_23_357" cx="0" cy="0" r="1" gradientUnits="userSpaceOnUse" gradientTransform="translate(22.2082 10.1859) rotate(45.9878) scale(2.24107 0.76782)">
<stop stop-color="#D28118"/>
<stop offset="1" stop-color="#D68623" stop-opacity="0"/>
</radialGradient>
<radialGradient id="paint11_radial_23_357" cx="0" cy="0" r="1" gradientUnits="userSpaceOnUse" gradientTransform="translate(20.9106 9.80348) rotate(9.61849) scale(2.11644 0.868811)">
<stop stop-color="#D28118"/>
<stop offset="1" stop-color="#D68623" stop-opacity="0"/>
</radialGradient>
<radialGradient id="paint12_radial_23_357" cx="0" cy="0" r="1" gradientUnits="userSpaceOnUse" gradientTransform="translate(12.0475 10.2639) rotate(65.4048) scale(2.41198 1.20885)">
<stop stop-color="#BE7227"/>
<stop offset="1" stop-color="#C67A2A" stop-opacity="0"/>
</radialGradient>
<radialGradient id="paint13_radial_23_357" cx="0" cy="0" r="1" gradientUnits="userSpaceOnUse" gradientTransform="translate(10.8793 9.5764) rotate(29.8052) scale(1.89688 1.40143)">
<stop stop-color="#D07E2D"/>
<stop offset="1" stop-color="#D98833" stop-opacity="0"/>
</radialGradient>
<radialGradient id="paint14_radial_23_357" cx="0" cy="0" r="1" gradientUnits="userSpaceOnUse" gradientTransform="translate(9.7709 9.5764) rotate(-8.79514) scale(2.06979 1.58384)">
<stop stop-color="#D88431"/>
<stop offset="1" stop-color="#CF8231" stop-opacity="0"/>
</radialGradient>
<radialGradient id="paint15_radial_23_357" cx="0" cy="0" r="1" gradientUnits="userSpaceOnUse" gradientTransform="translate(7.69449 10.7166) rotate(-66.0375) scale(2.58552 1.77357)">
<stop stop-color="#DA8924"/>
<stop offset="1" stop-color="#DC8924" stop-opacity="0"/>
</radialGradient>
<radialGradient id="paint16_radial_23_357" cx="0" cy="0" r="1" gradientUnits="userSpaceOnUse" gradientTransform="translate(21.5371 10.8359) rotate(90) scale(3.1875 4.31047)">
<stop offset="0.307692" stop-color="#452A3D"/>
<stop offset="0.626374" stop-color="#594052"/>
<stop offset="1" stop-color="#482C40"/>
</radialGradient>
<radialGradient id="paint17_radial_23_357" cx="0" cy="0" r="1" gradientUnits="userSpaceOnUse" gradientTransform="translate(10.5059 10.8359) rotate(90) scale(3.1875 4.31047)">
<stop offset="0.307692" stop-color="#452A3D"/>
<stop offset="0.626374" stop-color="#594052"/>
<stop offset="1" stop-color="#482C40"/>
</radialGradient>
<radialGradient id="paint18_radial_23_357" cx="0" cy="0" r="1" gradientUnits="userSpaceOnUse" gradientTransform="translate(15 25) rotate(-90) scale(9 18)">
<stop stop-color="#F70A8D"/>
<stop offset="1" stop-color="#89029C"/>
</radialGradient>
<radialGradient id="paint19_radial_23_357" cx="0" cy="0" r="1" gradientUnits="userSpaceOnUse" gradientTransform="translate(21.5 16) rotate(138.576) scale(11.3358)">
<stop stop-color="white"/>
<stop offset="1" stop-color="#ECCDFF"/>
</radialGradient>
<linearGradient id="paint20_linear_23_357" x1="16" y1="19.7031" x2="16" y2="21" gradientUnits="userSpaceOnUse">
<stop stop-color="#F4DFFF" stop-opacity="0"/>
<stop offset="0.865521" stop-color="#FFB8FF"/>
<stop offset="1" stop-color="#DA7CE9"/>
</linearGradient>
<linearGradient id="paint21_linear_23_357" x1="17.0509" y1="21" x2="15.7774" y2="25.2773" gradientUnits="userSpaceOnUse">
<stop stop-color="white"/>
<stop offset="1" stop-color="#ECCDFF"/>
</linearGradient>
</defs>
</svg>
