<svg width="32" height="32" viewBox="0 0 32 32" fill="none" xmlns="http://www.w3.org/2000/svg">
<path d="M15.9989 29.9978C25.3333 29.9978 29.9978 23.7303 29.9978 15.9989C29.9978 8.26751 25.3333 2 15.9989 2C6.66443 2 2 8.26751 2 15.9989C2 23.7303 6.66443 29.9978 15.9989 29.9978Z" fill="url(#paint0_radial_23_436)"/>
<path d="M15.9989 29.9978C25.3333 29.9978 29.9978 23.7303 29.9978 15.9989C29.9978 8.26751 25.3333 2 15.9989 2C6.66443 2 2 8.26751 2 15.9989C2 23.7303 6.66443 29.9978 15.9989 29.9978Z" fill="url(#paint1_radial_23_436)"/>
<path d="M15.9989 29.9978C25.3333 29.9978 29.9978 23.7303 29.9978 15.9989C29.9978 8.26751 25.3333 2 15.9989 2C6.66443 2 2 8.26751 2 15.9989C2 23.7303 6.66443 29.9978 15.9989 29.9978Z" fill="url(#paint2_radial_23_436)" fill-opacity="0.6"/>
<path d="M15.9989 29.9978C25.3333 29.9978 29.9978 23.7303 29.9978 15.9989C29.9978 8.26751 25.3333 2 15.9989 2C6.66443 2 2 8.26751 2 15.9989C2 23.7303 6.66443 29.9978 15.9989 29.9978Z" fill="url(#paint3_radial_23_436)"/>
<path d="M15.9989 29.9978C25.3333 29.9978 29.9978 23.7303 29.9978 15.9989C29.9978 8.26751 25.3333 2 15.9989 2C6.66443 2 2 8.26751 2 15.9989C2 23.7303 6.66443 29.9978 15.9989 29.9978Z" fill="url(#paint4_radial_23_436)"/>
<path d="M15.9989 29.9978C25.3333 29.9978 29.9978 23.7303 29.9978 15.9989C29.9978 8.26751 25.3333 2 15.9989 2C6.66443 2 2 8.26751 2 15.9989C2 23.7303 6.66443 29.9978 15.9989 29.9978Z" fill="url(#paint5_radial_23_436)"/>
<path d="M15.9989 29.9978C25.3333 29.9978 29.9978 23.7303 29.9978 15.9989C29.9978 8.26751 25.3333 2 15.9989 2C6.66443 2 2 8.26751 2 15.9989C2 23.7303 6.66443 29.9978 15.9989 29.9978Z" fill="url(#paint6_radial_23_436)"/>
<path d="M15.9989 29.9978C25.3333 29.9978 29.9978 23.7303 29.9978 15.9989C29.9978 8.26751 25.3333 2 15.9989 2C6.66443 2 2 8.26751 2 15.9989C2 23.7303 6.66443 29.9978 15.9989 29.9978Z" fill="url(#paint7_radial_23_436)"/>
<path d="M15.9989 29.9978C25.3333 29.9978 29.9978 23.7303 29.9978 15.9989C29.9978 8.26751 25.3333 2 15.9989 2C6.66443 2 2 8.26751 2 15.9989C2 23.7303 6.66443 29.9978 15.9989 29.9978Z" fill="url(#paint8_radial_23_436)"/>
<path d="M15.9989 29.9978C25.3333 29.9978 29.9978 23.7303 29.9978 15.9989C29.9978 8.26751 25.3333 2 15.9989 2C6.66443 2 2 8.26751 2 15.9989C2 23.7303 6.66443 29.9978 15.9989 29.9978Z" fill="url(#paint9_radial_23_436)"/>
<path d="M15.9989 29.9978C25.3333 29.9978 29.9978 23.7303 29.9978 15.9989C29.9978 8.26751 25.3333 2 15.9989 2C6.66443 2 2 8.26751 2 15.9989C2 23.7303 6.66443 29.9978 15.9989 29.9978Z" fill="url(#paint10_radial_23_436)"/>
<path d="M15.9989 29.9978C25.3333 29.9978 29.9978 23.7303 29.9978 15.9989C29.9978 8.26751 25.3333 2 15.9989 2C6.66443 2 2 8.26751 2 15.9989C2 23.7303 6.66443 29.9978 15.9989 29.9978Z" fill="url(#paint11_radial_23_436)"/>
<path d="M15.9989 29.9978C25.3333 29.9978 29.9978 23.7303 29.9978 15.9989C29.9978 8.26751 25.3333 2 15.9989 2C6.66443 2 2 8.26751 2 15.9989C2 23.7303 6.66443 29.9978 15.9989 29.9978Z" fill="url(#paint12_radial_23_436)"/>
<path d="M15.9989 29.9978C25.3333 29.9978 29.9978 23.7303 29.9978 15.9989C29.9978 8.26751 25.3333 2 15.9989 2C6.66443 2 2 8.26751 2 15.9989C2 23.7303 6.66443 29.9978 15.9989 29.9978Z" fill="url(#paint13_radial_23_436)"/>
<path d="M15.9989 29.9978C25.3333 29.9978 29.9978 23.7303 29.9978 15.9989C29.9978 8.26751 25.3333 2 15.9989 2C6.66443 2 2 8.26751 2 15.9989C2 23.7303 6.66443 29.9978 15.9989 29.9978Z" fill="url(#paint14_radial_23_436)"/>
<path d="M15.9989 29.9978C25.3333 29.9978 29.9978 23.7303 29.9978 15.9989C29.9978 8.26751 25.3333 2 15.9989 2C6.66443 2 2 8.26751 2 15.9989C2 23.7303 6.66443 29.9978 15.9989 29.9978Z" fill="url(#paint15_radial_23_436)"/>
<path d="M15.9989 29.9978C25.3333 29.9978 29.9978 23.7303 29.9978 15.9989C29.9978 8.26751 25.3333 2 15.9989 2C6.66443 2 2 8.26751 2 15.9989C2 23.7303 6.66443 29.9978 15.9989 29.9978Z" fill="url(#paint16_radial_23_436)"/>
<path d="M15.9989 29.9978C25.3333 29.9978 29.9978 23.7303 29.9978 15.9989C29.9978 8.26751 25.3333 2 15.9989 2C6.66443 2 2 8.26751 2 15.9989C2 23.7303 6.66443 29.9978 15.9989 29.9978Z" fill="url(#paint17_radial_23_436)"/>
<path fill-rule="evenodd" clip-rule="evenodd" d="M22.7719 11.5649C22.5633 11.2853 22.2176 10.995 21.5388 11.0001C20.852 11.0051 20.5109 11.2989 20.3105 11.5712C20.1997 11.7217 20.127 11.8766 20.0825 11.995C20.0608 12.0529 20.0473 12.0983 20.04 12.1248C20.0368 12.1366 20.035 12.1444 20.0342 12.1475C19.9238 12.6832 19.4024 13.0316 18.8641 12.9269C18.322 12.8216 17.9679 12.2967 18.0732 11.7545C18.1101 11.5999 18.1101 11.5999 18.1101 11.5999C18.1316 11.5209 18.1638 11.4154 18.2101 11.2922C18.3016 11.0482 18.4539 10.7197 18.6997 10.3858C19.2122 9.68939 20.1093 9.01058 21.524 9.00012C22.9468 8.9896 23.855 9.672 24.375 10.369C24.6246 10.7036 24.7811 11.0338 24.8757 11.2789C24.9236 11.4028 24.9572 11.5087 24.9797 11.5881C25.1128 12.0569 24.9237 12.7834 24.2421 12.9246C23.7049 13.0359 23.1791 12.6937 23.0623 12.159C23.0615 12.1558 23.0594 12.1473 23.0557 12.1343C23.0478 12.1064 23.0332 12.0594 23.0101 11.9996C22.9629 11.8775 22.8865 11.7185 22.7719 11.5649Z" fill="url(#paint18_radial_23_436)"/>
<path fill-rule="evenodd" clip-rule="evenodd" d="M11.7407 11.5649C11.5321 11.2853 11.1864 10.995 10.5076 11.0001C9.8208 11.0051 9.47962 11.2989 9.27924 11.5712C9.1685 11.7217 9.09571 11.8766 9.05128 11.995C9.02955 12.0529 9.01601 12.0983 9.00879 12.1248C9.00557 12.1366 9.0037 12.1444 9.00298 12.1475C8.89254 12.6832 8.3712 13.0316 7.83286 12.9269C7.29072 12.8216 6.93663 12.2967 7.04199 11.7545C7.07889 11.5999 7.07889 11.5999 7.07889 11.5999C7.10039 11.5209 7.13257 11.4154 7.17883 11.2922C7.27039 11.0482 7.4227 10.7197 7.6684 10.3858C8.18091 9.68939 9.07801 9.01058 10.4928 9.00012C11.9156 8.9896 12.8238 9.672 13.3437 10.369C13.5934 10.7036 13.7498 11.0338 13.8445 11.2789C13.8923 11.4028 13.9259 11.5087 13.9484 11.5881C14.0815 12.0569 13.8924 12.7834 13.2109 12.9246C12.6736 13.0359 12.1478 12.6937 12.0311 12.159C12.0303 12.1558 12.0282 12.1473 12.0245 12.1343C12.0165 12.1064 12.0019 12.0594 11.9789 11.9996C11.9317 11.8775 11.8553 11.7185 11.7407 11.5649Z" fill="url(#paint19_radial_23_436)"/>
<path fill-rule="evenodd" clip-rule="evenodd" d="M9.40006 18.2001C9.84189 17.8687 10.4687 17.9582 10.8001 18.4001C11.1415 18.8553 12.8621 20.5001 16.0001 20.5001C19.1381 20.5001 20.8586 18.8553 21.2001 18.4001C21.5314 17.9582 22.1582 17.8687 22.6001 18.2001C23.0419 18.5314 23.1314 19.1582 22.8001 19.6001C22.1415 20.4782 19.8621 22.5001 16.0001 22.5001C12.1381 22.5001 9.85864 20.4782 9.20006 19.6001C8.86869 19.1582 8.95823 18.5314 9.40006 18.2001Z" fill="url(#paint20_radial_23_436)"/>
<path fill-rule="evenodd" clip-rule="evenodd" d="M9.40006 18.2001C9.84189 17.8687 10.4687 17.9582 10.8001 18.4001C11.1415 18.8553 12.8621 20.5001 16.0001 20.5001C19.1381 20.5001 20.8586 18.8553 21.2001 18.4001C21.5314 17.9582 22.1582 17.8687 22.6001 18.2001C23.0419 18.5314 23.1314 19.1582 22.8001 19.6001C22.1415 20.4782 19.8621 22.5001 16.0001 22.5001C12.1381 22.5001 9.85864 20.4782 9.20006 19.6001C8.86869 19.1582 8.95823 18.5314 9.40006 18.2001Z" fill="url(#paint21_radial_23_436)"/>
<defs>
<radialGradient id="paint0_radial_23_436" cx="0" cy="0" r="1" gradientUnits="userSpaceOnUse" gradientTransform="translate(25.5 9) rotate(131.878) scale(38.9487)">
<stop stop-color="#FFF478"/>
<stop offset="0.474827" stop-color="#FFB02E"/>
<stop offset="1" stop-color="#F70A8D"/>
</radialGradient>
<radialGradient id="paint1_radial_23_436" cx="0" cy="0" r="1" gradientUnits="userSpaceOnUse" gradientTransform="translate(16 12.5) rotate(101.31) scale(17.8466 22.8581)">
<stop offset="0.787821" stop-color="#F59639" stop-opacity="0"/>
<stop offset="0.972509" stop-color="#FF7DCE"/>
</radialGradient>
<radialGradient id="paint2_radial_23_436" cx="0" cy="0" r="1" gradientUnits="userSpaceOnUse" gradientTransform="translate(18 14) rotate(135) scale(41.0122)">
<stop offset="0.314853" stop-opacity="0"/>
<stop offset="1"/>
</radialGradient>
<radialGradient id="paint3_radial_23_436" cx="0" cy="0" r="1" gradientUnits="userSpaceOnUse" gradientTransform="translate(16 17) rotate(77.692) scale(28.1469)">
<stop offset="0.507903" stop-color="#7D6133" stop-opacity="0"/>
<stop offset="1" stop-color="#715B32"/>
</radialGradient>
<radialGradient id="paint4_radial_23_436" cx="0" cy="0" r="1" gradientUnits="userSpaceOnUse" gradientTransform="translate(16.5 16.5) rotate(55.7131) scale(13.3135 9.65032)">
<stop stop-color="#FFB849"/>
<stop offset="1" stop-color="#FFB847" stop-opacity="0"/>
</radialGradient>
<radialGradient id="paint5_radial_23_436" cx="0" cy="0" r="1" gradientUnits="userSpaceOnUse" gradientTransform="translate(20.5 18) rotate(9.86581) scale(11.6726)">
<stop stop-color="#FFA64B"/>
<stop offset="0.900412" stop-color="#FFAE46" stop-opacity="0"/>
</radialGradient>
<radialGradient id="paint6_radial_23_436" cx="0" cy="0" r="1" gradientUnits="userSpaceOnUse" gradientTransform="translate(17.5 15) rotate(43.9708) scale(59.0529)">
<stop offset="0.185425" stop-opacity="0"/>
<stop offset="1" stop-opacity="0.4"/>
</radialGradient>
<radialGradient id="paint7_radial_23_436" cx="0" cy="0" r="1" gradientUnits="userSpaceOnUse" gradientTransform="translate(9.30232 13.0752) rotate(-10.3912) scale(7.07095 5.21865)">
<stop stop-color="#F1A227"/>
<stop offset="1" stop-color="#F5A72C" stop-opacity="0"/>
</radialGradient>
<radialGradient id="paint8_radial_23_436" cx="0" cy="0" r="1" gradientUnits="userSpaceOnUse" gradientTransform="translate(18.6539 11.9955) rotate(98.7462) scale(1.78617 1.31827)">
<stop stop-color="#E7982E"/>
<stop offset="1" stop-color="#E39632" stop-opacity="0"/>
</radialGradient>
<radialGradient id="paint9_radial_23_436" cx="0" cy="0" r="1" gradientUnits="userSpaceOnUse" gradientTransform="translate(23.3936 12.1038) rotate(-38.1251) scale(1.4422)">
<stop stop-color="#D28118"/>
<stop offset="1" stop-color="#D68623" stop-opacity="0"/>
</radialGradient>
<radialGradient id="paint10_radial_23_436" cx="0" cy="0" r="1" gradientUnits="userSpaceOnUse" gradientTransform="translate(22.4425 11.1245) rotate(48.2621) scale(2.3046 0.85832)">
<stop stop-color="#D28118"/>
<stop offset="1" stop-color="#D68623" stop-opacity="0"/>
</radialGradient>
<radialGradient id="paint11_radial_23_436" cx="0" cy="0" r="1" gradientUnits="userSpaceOnUse" gradientTransform="translate(21.1443 10.6861) rotate(3.63295) scale(2.12859 0.873802)">
<stop stop-color="#D28118"/>
<stop offset="1" stop-color="#D68623" stop-opacity="0"/>
</radialGradient>
<radialGradient id="paint12_radial_23_436" cx="0" cy="0" r="1" gradientUnits="userSpaceOnUse" gradientTransform="translate(12.2761 11.9675) rotate(55.8403) scale(1.71148 0.738614)">
<stop stop-color="#BE7227"/>
<stop offset="1" stop-color="#C67A2A" stop-opacity="0"/>
</radialGradient>
<radialGradient id="paint13_radial_23_436" cx="0" cy="0" r="1" gradientUnits="userSpaceOnUse" gradientTransform="translate(10.9779 10.6356) rotate(22.6199) scale(1.75341 1.29543)">
<stop stop-color="#D07E2D"/>
<stop offset="1" stop-color="#D98833" stop-opacity="0"/>
</radialGradient>
<radialGradient id="paint14_radial_23_436" cx="0" cy="0" r="1" gradientUnits="userSpaceOnUse" gradientTransform="translate(9.76401 10.467) rotate(-4.57392) scale(2.11419 1.61782)">
<stop stop-color="#D88431"/>
<stop offset="1" stop-color="#CF8231" stop-opacity="0"/>
</radialGradient>
<radialGradient id="paint15_radial_23_436" cx="0" cy="0" r="1" gradientUnits="userSpaceOnUse" gradientTransform="translate(7.84201 11.8663) rotate(-66.5713) scale(2.20495 1.51251)">
<stop stop-color="#DA8924"/>
<stop offset="1" stop-color="#DC8924" stop-opacity="0"/>
</radialGradient>
<radialGradient id="paint16_radial_23_436" cx="0" cy="0" r="1" gradientUnits="userSpaceOnUse" gradientTransform="translate(7.02026 16.7155) rotate(8.71326) scale(4.77188)">
<stop stop-color="#F97660"/>
<stop offset="1" stop-color="#F97660" stop-opacity="0"/>
</radialGradient>
<radialGradient id="paint17_radial_23_436" cx="0" cy="0" r="1" gradientUnits="userSpaceOnUse" gradientTransform="translate(25.1042 16.6484) rotate(-177.894) scale(6.61734)">
<stop stop-color="#FE9671"/>
<stop offset="1" stop-color="#FFD15A" stop-opacity="0"/>
</radialGradient>
<radialGradient id="paint18_radial_23_436" cx="0" cy="0" r="1" gradientUnits="userSpaceOnUse" gradientTransform="translate(21.5371 11.8359) rotate(90) scale(3.1875 4.31047)">
<stop offset="0.307692" stop-color="#452A3D"/>
<stop offset="0.626374" stop-color="#594052"/>
<stop offset="1" stop-color="#482C40"/>
</radialGradient>
<radialGradient id="paint19_radial_23_436" cx="0" cy="0" r="1" gradientUnits="userSpaceOnUse" gradientTransform="translate(10.5059 11.8359) rotate(90) scale(3.1875 4.31047)">
<stop offset="0.307692" stop-color="#452A3D"/>
<stop offset="0.626374" stop-color="#594052"/>
<stop offset="1" stop-color="#482C40"/>
</radialGradient>
<radialGradient id="paint20_radial_23_436" cx="0" cy="0" r="1" gradientUnits="userSpaceOnUse" gradientTransform="translate(16.0001 17.0001) rotate(90) scale(6 9.18387)">
<stop offset="0.517632" stop-color="#4E2553"/>
<stop offset="0.702876" stop-color="#5E425A"/>
<stop offset="1" stop-color="#4E2553"/>
<stop offset="1" stop-color="#4E2553"/>
</radialGradient>
<radialGradient id="paint21_radial_23_436" cx="0" cy="0" r="1" gradientUnits="userSpaceOnUse" gradientTransform="translate(16.0001 20.3838) rotate(90) scale(2.73099 13.2731)">
<stop offset="0.645531" stop-color="#4C2746" stop-opacity="0"/>
<stop offset="1" stop-color="#4E2847"/>
</radialGradient>
</defs>
</svg>
