<svg width="32" height="32" viewBox="0 0 32 32" fill="none" xmlns="http://www.w3.org/2000/svg">
<path d="M24.6626 22.0688L24.8572 13.6947C24.7562 12.7858 24.9524 11.2679 23.2552 10.8555C21.7146 10.4811 20.1336 12.4902 20.1336 12.4902L16.9883 7.1967C16.2308 6.04472 14.7983 6.18336 14.253 6.51621C13.4753 6.99088 13.2651 7.8519 13.2651 7.8519C13.2651 7.8519 13.3737 7.8519 12.7808 6.99252C12.1878 6.13315 10.9477 5.96103 10.0386 6.51596C8.83626 7.24985 8.89795 8.81284 9.43701 9.71909C9.38602 9.66401 8.72101 9.33984 7.64795 9.93002C6.71045 10.4456 6.57798 11.9066 6.93736 12.7035C7.29673 13.5003 7.39792 13.7113 7.39792 13.7113C7.39792 13.7113 6.55706 13.4972 5.75014 14.0394C4.99392 14.5475 4.70298 15.7972 5.29762 17.0472C5.29762 17.0472 6.51523 19.7503 7.49961 21.5628C8.48398 23.3753 10.0152 25.8128 10.0152 25.8128C12.7809 30.141 18.0249 30.7148 21.2168 28.7759C23.3932 27.4538 24.8699 24.6599 24.6626 22.0688Z" fill="url(#paint0_linear_20020_3433)"/>
<path d="M24.6626 22.0688L24.8572 13.6947C24.7562 12.7858 24.9524 11.2679 23.2552 10.8555C21.7146 10.4811 20.1336 12.4902 20.1336 12.4902L16.9883 7.1967C16.2308 6.04472 14.7983 6.18336 14.253 6.51621C13.4753 6.99088 13.2651 7.8519 13.2651 7.8519C13.2651 7.8519 13.3737 7.8519 12.7808 6.99252C12.1878 6.13315 10.9477 5.96103 10.0386 6.51596C8.83626 7.24985 8.89795 8.81284 9.43701 9.71909C9.38602 9.66401 8.72101 9.33984 7.64795 9.93002C6.71045 10.4456 6.57798 11.9066 6.93736 12.7035C7.29673 13.5003 7.39792 13.7113 7.39792 13.7113C7.39792 13.7113 6.55706 13.4972 5.75014 14.0394C4.99392 14.5475 4.70298 15.7972 5.29762 17.0472C5.29762 17.0472 6.51523 19.7503 7.49961 21.5628C8.48398 23.3753 10.0152 25.8128 10.0152 25.8128C12.7809 30.141 18.0249 30.7148 21.2168 28.7759C23.3932 27.4538 24.8699 24.6599 24.6626 22.0688Z" fill="url(#paint1_radial_20020_3433)"/>
<path d="M24.6626 22.0688L24.8572 13.6947C24.7562 12.7858 24.9524 11.2679 23.2552 10.8555C21.7146 10.4811 20.1336 12.4902 20.1336 12.4902L16.9883 7.1967C16.2308 6.04472 14.7983 6.18336 14.253 6.51621C13.4753 6.99088 13.2651 7.8519 13.2651 7.8519C13.2651 7.8519 13.3737 7.8519 12.7808 6.99252C12.1878 6.13315 10.9477 5.96103 10.0386 6.51596C8.83626 7.24985 8.89795 8.81284 9.43701 9.71909C9.38602 9.66401 8.72101 9.33984 7.64795 9.93002C6.71045 10.4456 6.57798 11.9066 6.93736 12.7035C7.29673 13.5003 7.39792 13.7113 7.39792 13.7113C7.39792 13.7113 6.55706 13.4972 5.75014 14.0394C4.99392 14.5475 4.70298 15.7972 5.29762 17.0472C5.29762 17.0472 6.51523 19.7503 7.49961 21.5628C8.48398 23.3753 10.0152 25.8128 10.0152 25.8128C12.7809 30.141 18.0249 30.7148 21.2168 28.7759C23.3932 27.4538 24.8699 24.6599 24.6626 22.0688Z" fill="url(#paint2_radial_20020_3433)"/>
<path d="M24.6626 22.0688L24.8572 13.6947C24.7562 12.7858 24.9524 11.2679 23.2552 10.8555C21.7146 10.4811 20.1336 12.4902 20.1336 12.4902L16.9883 7.1967C16.2308 6.04472 14.7983 6.18336 14.253 6.51621C13.4753 6.99088 13.2651 7.8519 13.2651 7.8519C13.2651 7.8519 13.3737 7.8519 12.7808 6.99252C12.1878 6.13315 10.9477 5.96103 10.0386 6.51596C8.83626 7.24985 8.89795 8.81284 9.43701 9.71909C9.38602 9.66401 8.72101 9.33984 7.64795 9.93002C6.71045 10.4456 6.57798 11.9066 6.93736 12.7035C7.29673 13.5003 7.39792 13.7113 7.39792 13.7113C7.39792 13.7113 6.55706 13.4972 5.75014 14.0394C4.99392 14.5475 4.70298 15.7972 5.29762 17.0472C5.29762 17.0472 6.51523 19.7503 7.49961 21.5628C8.48398 23.3753 10.0152 25.8128 10.0152 25.8128C12.7809 30.141 18.0249 30.7148 21.2168 28.7759C23.3932 27.4538 24.8699 24.6599 24.6626 22.0688Z" fill="url(#paint3_radial_20020_3433)"/>
<path d="M7.72589 9.8759C6.61732 10.4489 6.62597 12.0096 6.90544 12.6493C7.18491 13.289 7.40216 13.7094 7.40216 13.7094C7.40216 13.7094 8.15329 13.7522 8.68745 14.539C8.68745 14.539 8.83263 14.7016 9.85222 16.844C9.85222 16.844 12.6998 19.0431 13.0755 18.7337C14.1231 17.8711 13.3429 16.4829 13.235 16.1799C12.8915 15.2154 11.3386 11.8764 10.6101 10.7586C9.88156 9.64093 8.9678 9.23402 7.72589 9.8759Z" fill="url(#paint4_radial_20020_3433)"/>
<path d="M7.72589 9.8759C6.61732 10.4489 6.62597 12.0096 6.90544 12.6493C7.18491 13.289 7.40216 13.7094 7.40216 13.7094C7.40216 13.7094 8.15329 13.7522 8.68745 14.539C8.68745 14.539 8.83263 14.7016 9.85222 16.844C9.85222 16.844 12.6998 19.0431 13.0755 18.7337C14.1231 17.8711 13.3429 16.4829 13.235 16.1799C12.8915 15.2154 11.3386 11.8764 10.6101 10.7586C9.88156 9.64093 8.9678 9.23402 7.72589 9.8759Z" fill="url(#paint5_radial_20020_3433)"/>
<path d="M7.72589 9.8759C6.61732 10.4489 6.62597 12.0096 6.90544 12.6493C7.18491 13.289 7.40216 13.7094 7.40216 13.7094C7.40216 13.7094 8.15329 13.7522 8.68745 14.539C8.68745 14.539 8.83263 14.7016 9.85222 16.844C9.85222 16.844 12.6998 19.0431 13.0755 18.7337C14.1231 17.8711 13.3429 16.4829 13.235 16.1799C12.8915 15.2154 11.3386 11.8764 10.6101 10.7586C9.88156 9.64093 8.9678 9.23402 7.72589 9.8759Z" fill="url(#paint6_radial_20020_3433)"/>
<path d="M10.0863 6.48112C8.92219 7.08392 8.94692 8.62491 9.22639 9.26465C9.50586 9.90438 9.42897 9.67967 9.42897 9.67967C9.42897 9.67967 10.2883 10.0312 10.9212 11.289C10.9212 11.289 11.0578 11.5607 12.0774 13.7031C12.0774 13.7031 15.0601 15.6483 15.4358 15.3389C16.4835 14.4763 15.7033 13.0881 15.5954 12.7852C15.2519 11.8206 13.9233 8.95836 13.1559 7.53845C12.3885 6.11854 11.2507 5.87814 10.0863 6.48112Z" fill="url(#paint7_radial_20020_3433)"/>
<path d="M10.0863 6.48112C8.92219 7.08392 8.94692 8.62491 9.22639 9.26465C9.50586 9.90438 9.42897 9.67967 9.42897 9.67967C9.42897 9.67967 10.2883 10.0312 10.9212 11.289C10.9212 11.289 11.0578 11.5607 12.0774 13.7031C12.0774 13.7031 15.0601 15.6483 15.4358 15.3389C16.4835 14.4763 15.7033 13.0881 15.5954 12.7852C15.2519 11.8206 13.9233 8.95836 13.1559 7.53845C12.3885 6.11854 11.2507 5.87814 10.0863 6.48112Z" fill="url(#paint8_radial_20020_3433)"/>
<path d="M10.0863 6.48112C8.92219 7.08392 8.94692 8.62491 9.22639 9.26465C9.50586 9.90438 9.42897 9.67967 9.42897 9.67967C9.42897 9.67967 10.2883 10.0312 10.9212 11.289C10.9212 11.289 11.0578 11.5607 12.0774 13.7031C12.0774 13.7031 15.0601 15.6483 15.4358 15.3389C16.4835 14.4763 15.7033 13.0881 15.5954 12.7852C15.2519 11.8206 13.9233 8.95836 13.1559 7.53845C12.3885 6.11854 11.2507 5.87814 10.0863 6.48112Z" fill="url(#paint9_radial_20020_3433)"/>
<path d="M14.3907 6.43798C13.195 6.9754 12.8857 8.83979 13.2026 9.46184C13.5195 10.0839 13.6722 10.0079 13.6722 10.0079C13.6722 10.0079 14.5509 10.3079 15.2571 11.526C15.2571 11.526 15.4096 11.7891 16.5544 13.8673C16.5544 13.8673 19.6472 15.6323 20.0039 15.3012C20.9985 14.378 20.1375 13.0385 20.0118 12.7425C19.6117 11.8 18.2332 9.93015 17.5151 8.07008C16.797 6.21001 15.2558 6.04914 14.3907 6.43798Z" fill="#FEA224"/>
<path d="M29.3014 21.8191C29.1249 18.6968 29.0064 17.4599 29.1093 15.9463C29.2121 14.4328 29.9827 11.239 27.4914 10.9023C25.1438 10.5851 24.8583 13.0912 24.8583 13.0912C24.8583 13.0912 22.0709 8.50728 21.0944 7.50659C20.1178 6.50591 19.0752 6.59174 18.2897 7.07118C17.5042 7.55063 17.3991 8.57736 17.3991 8.57736C17.3991 8.57736 16.9069 8.0383 16.3209 7.50705C15.735 6.9758 14.6959 6.7883 13.8913 7.26486C13.2387 7.65135 12.3991 8.73361 13.2506 10.1399C13.2506 10.1399 12.6265 10.0124 11.8991 10.5305C11.0879 11.1082 10.9538 12.4758 11.3209 13.0695C11.6881 13.6633 11.9696 14.0625 11.9696 14.0625C11.9696 14.0625 11.4598 13.7833 10.3915 14.5C9.80582 14.8929 9.29673 16.2025 10.0784 17.39C10.8602 18.5775 11.7038 19.5312 12.7194 21.0469C13.735 22.5625 16.4225 26.8125 16.4225 26.8125C18.6256 29.6875 22.6998 30.7944 25.9238 28.836C28.1221 27.5006 29.478 24.9415 29.3014 21.8191Z" fill="url(#paint10_radial_20020_3433)"/>
<path d="M29.3014 21.8191C29.1249 18.6968 29.0064 17.4599 29.1093 15.9463C29.2121 14.4328 29.9827 11.239 27.4914 10.9023C25.1438 10.5851 24.8583 13.0912 24.8583 13.0912C24.8583 13.0912 22.0709 8.50728 21.0944 7.50659C20.1178 6.50591 19.0752 6.59174 18.2897 7.07118C17.5042 7.55063 17.3991 8.57736 17.3991 8.57736C17.3991 8.57736 16.9069 8.0383 16.3209 7.50705C15.735 6.9758 14.6959 6.7883 13.8913 7.26486C13.2387 7.65135 12.3991 8.73361 13.2506 10.1399C13.2506 10.1399 12.6265 10.0124 11.8991 10.5305C11.0879 11.1082 10.9538 12.4758 11.3209 13.0695C11.6881 13.6633 11.9696 14.0625 11.9696 14.0625C11.9696 14.0625 11.4598 13.7833 10.3915 14.5C9.80582 14.8929 9.29673 16.2025 10.0784 17.39C10.8602 18.5775 11.7038 19.5312 12.7194 21.0469C13.735 22.5625 16.4225 26.8125 16.4225 26.8125C18.6256 29.6875 22.6998 30.7944 25.9238 28.836C28.1221 27.5006 29.478 24.9415 29.3014 21.8191Z" fill="url(#paint11_radial_20020_3433)"/>
<path d="M29.3014 21.8191C29.1249 18.6968 29.0064 17.4599 29.1093 15.9463C29.2121 14.4328 29.9827 11.239 27.4914 10.9023C25.1438 10.5851 24.8583 13.0912 24.8583 13.0912C24.8583 13.0912 22.0709 8.50728 21.0944 7.50659C20.1178 6.50591 19.0752 6.59174 18.2897 7.07118C17.5042 7.55063 17.3991 8.57736 17.3991 8.57736C17.3991 8.57736 16.9069 8.0383 16.3209 7.50705C15.735 6.9758 14.6959 6.7883 13.8913 7.26486C13.2387 7.65135 12.3991 8.73361 13.2506 10.1399C13.2506 10.1399 12.6265 10.0124 11.8991 10.5305C11.0879 11.1082 10.9538 12.4758 11.3209 13.0695C11.6881 13.6633 11.9696 14.0625 11.9696 14.0625C11.9696 14.0625 11.4598 13.7833 10.3915 14.5C9.80582 14.8929 9.29673 16.2025 10.0784 17.39C10.8602 18.5775 11.7038 19.5312 12.7194 21.0469C13.735 22.5625 16.4225 26.8125 16.4225 26.8125C18.6256 29.6875 22.6998 30.7944 25.9238 28.836C28.1221 27.5006 29.478 24.9415 29.3014 21.8191Z" fill="url(#paint12_radial_20020_3433)"/>
<path d="M29.3014 21.8191C29.1249 18.6968 29.0064 17.4599 29.1093 15.9463C29.2121 14.4328 29.9827 11.239 27.4914 10.9023C25.1438 10.5851 24.8583 13.0912 24.8583 13.0912C24.8583 13.0912 22.0709 8.50728 21.0944 7.50659C20.1178 6.50591 19.0752 6.59174 18.2897 7.07118C17.5042 7.55063 17.3991 8.57736 17.3991 8.57736C17.3991 8.57736 16.9069 8.0383 16.3209 7.50705C15.735 6.9758 14.6959 6.7883 13.8913 7.26486C13.2387 7.65135 12.3991 8.73361 13.2506 10.1399C13.2506 10.1399 12.6265 10.0124 11.8991 10.5305C11.0879 11.1082 10.9538 12.4758 11.3209 13.0695C11.6881 13.6633 11.9696 14.0625 11.9696 14.0625C11.9696 14.0625 11.4598 13.7833 10.3915 14.5C9.80582 14.8929 9.29673 16.2025 10.0784 17.39C10.8602 18.5775 11.7038 19.5312 12.7194 21.0469C13.735 22.5625 16.4225 26.8125 16.4225 26.8125C18.6256 29.6875 22.6998 30.7944 25.9238 28.836C28.1221 27.5006 29.478 24.9415 29.3014 21.8191Z" fill="url(#paint13_radial_20020_3433)"/>
<path d="M29.3014 21.8191C29.1249 18.6968 29.0064 17.4599 29.1093 15.9463C29.2121 14.4328 29.9827 11.239 27.4914 10.9023C25.1438 10.5851 24.8583 13.0912 24.8583 13.0912C24.8583 13.0912 22.0709 8.50728 21.0944 7.50659C20.1178 6.50591 19.0752 6.59174 18.2897 7.07118C17.5042 7.55063 17.3991 8.57736 17.3991 8.57736C17.3991 8.57736 16.9069 8.0383 16.3209 7.50705C15.735 6.9758 14.6959 6.7883 13.8913 7.26486C13.2387 7.65135 12.3991 8.73361 13.2506 10.1399C13.2506 10.1399 12.6265 10.0124 11.8991 10.5305C11.0879 11.1082 10.9538 12.4758 11.3209 13.0695C11.6881 13.6633 11.9696 14.0625 11.9696 14.0625C11.9696 14.0625 11.4598 13.7833 10.3915 14.5C9.80582 14.8929 9.29673 16.2025 10.0784 17.39C10.8602 18.5775 11.7038 19.5312 12.7194 21.0469C13.735 22.5625 16.4225 26.8125 16.4225 26.8125C18.6256 29.6875 22.6998 30.7944 25.9238 28.836C28.1221 27.5006 29.478 24.9415 29.3014 21.8191Z" fill="url(#paint14_radial_20020_3433)"/>
<path d="M29.3014 21.8191C29.1249 18.6968 29.0064 17.4599 29.1093 15.9463C29.2121 14.4328 29.9827 11.239 27.4914 10.9023C25.1438 10.5851 24.8583 13.0912 24.8583 13.0912C24.8583 13.0912 22.0709 8.50728 21.0944 7.50659C20.1178 6.50591 19.0752 6.59174 18.2897 7.07118C17.5042 7.55063 17.3991 8.57736 17.3991 8.57736C17.3991 8.57736 16.9069 8.0383 16.3209 7.50705C15.735 6.9758 14.6959 6.7883 13.8913 7.26486C13.2387 7.65135 12.3991 8.73361 13.2506 10.1399C13.2506 10.1399 12.6265 10.0124 11.8991 10.5305C11.0879 11.1082 10.9538 12.4758 11.3209 13.0695C11.6881 13.6633 11.9696 14.0625 11.9696 14.0625C11.9696 14.0625 11.4598 13.7833 10.3915 14.5C9.80582 14.8929 9.29673 16.2025 10.0784 17.39C10.8602 18.5775 11.7038 19.5312 12.7194 21.0469C13.735 22.5625 16.4225 26.8125 16.4225 26.8125C18.6256 29.6875 22.6998 30.7944 25.9238 28.836C28.1221 27.5006 29.478 24.9415 29.3014 21.8191Z" fill="url(#paint15_radial_20020_3433)"/>
<path d="M29.1086 15.9469C29.2114 14.4334 29.982 11.2396 27.4907 10.9029C25.1432 10.5856 24.8577 13.0918 24.8577 13.0918L29.2034 20.2345C29.2034 18.8143 29.0121 17.3672 29.1086 15.9469Z" fill="url(#paint16_radial_20020_3433)"/>
<path d="M29.1086 15.9469C29.2114 14.4334 29.982 11.2396 27.4907 10.9029C25.1432 10.5856 24.8577 13.0918 24.8577 13.0918L29.2034 20.2345C29.2034 18.8143 29.0121 17.3672 29.1086 15.9469Z" fill="url(#paint17_radial_20020_3433)"/>
<path d="M29.1086 15.9469C29.2114 14.4334 29.982 11.2396 27.4907 10.9029C25.1432 10.5856 24.8577 13.0918 24.8577 13.0918L29.2034 20.2345C29.2034 18.8143 29.0121 17.3672 29.1086 15.9469Z" fill="url(#paint18_radial_20020_3433)"/>
<path d="M13.2501 10.1405C13.2501 10.1405 12.626 10.013 11.8985 10.5311C11.0874 11.1088 10.9532 12.4764 11.3204 13.0701C11.6876 13.6639 11.9693 14.0631 11.9693 14.0631C11.9693 14.0631 12.609 14.0631 13.2491 14.7664C13.2491 14.7664 14.4996 16.2574 15.8121 18.234C16.3946 19.1112 17.9684 18.5934 18.2965 18.234C19.2115 17.2318 18.5556 15.7218 18.4059 15.4371C17.9293 14.5309 14.8706 11.0002 14.6715 10.7731C14.1169 10.1405 13.2501 10.1405 13.2501 10.1405Z" fill="url(#paint19_radial_20020_3433)"/>
<path d="M13.2501 10.1405C13.2501 10.1405 12.626 10.013 11.8985 10.5311C11.0874 11.1088 10.9532 12.4764 11.3204 13.0701C11.6876 13.6639 11.9693 14.0631 11.9693 14.0631C11.9693 14.0631 12.609 14.0631 13.2491 14.7664C13.2491 14.7664 14.4996 16.2574 15.8121 18.234C16.3946 19.1112 17.9684 18.5934 18.2965 18.234C19.2115 17.2318 18.5556 15.7218 18.4059 15.4371C17.9293 14.5309 14.8706 11.0002 14.6715 10.7731C14.1169 10.1405 13.2501 10.1405 13.2501 10.1405Z" fill="url(#paint20_radial_20020_3433)"/>
<path d="M13.2501 10.1405C13.2501 10.1405 12.626 10.013 11.8985 10.5311C11.0874 11.1088 10.9532 12.4764 11.3204 13.0701C11.6876 13.6639 11.9693 14.0631 11.9693 14.0631C11.9693 14.0631 12.609 14.0631 13.2491 14.7664C13.2491 14.7664 14.4996 16.2574 15.8121 18.234C16.3946 19.1112 17.9684 18.5934 18.2965 18.234C19.2115 17.2318 18.5556 15.7218 18.4059 15.4371C17.9293 14.5309 14.8706 11.0002 14.6715 10.7731C14.1169 10.1405 13.2501 10.1405 13.2501 10.1405Z" fill="url(#paint21_linear_20020_3433)"/>
<path d="M17.3985 8.57796C17.3985 8.57796 16.9063 8.0389 16.3204 7.50765C15.7344 6.9764 14.6954 6.7889 13.8907 7.26546C13.2381 7.65195 12.3985 8.73422 13.2501 10.1405C13.2501 10.1405 14.0634 10.1405 14.5946 10.6871C14.5946 10.6871 16.8976 13.2147 18.3446 15.4059C19.2518 16.7797 22.0356 15.9451 21.6727 14.3043C21.4889 13.4729 17.6884 8.96057 17.3985 8.57796Z" fill="url(#paint22_radial_20020_3433)"/>
<path d="M17.3985 8.57796C17.3985 8.57796 16.9063 8.0389 16.3204 7.50765C15.7344 6.9764 14.6954 6.7889 13.8907 7.26546C13.2381 7.65195 12.3985 8.73422 13.2501 10.1405C13.2501 10.1405 14.0634 10.1405 14.5946 10.6871C14.5946 10.6871 16.8976 13.2147 18.3446 15.4059C19.2518 16.7797 22.0356 15.9451 21.6727 14.3043C21.4889 13.4729 17.6884 8.96057 17.3985 8.57796Z" fill="url(#paint23_radial_20020_3433)"/>
<path d="M17.3985 8.57796C17.3985 8.57796 16.9063 8.0389 16.3204 7.50765C15.7344 6.9764 14.6954 6.7889 13.8907 7.26546C13.2381 7.65195 12.3985 8.73422 13.2501 10.1405C13.2501 10.1405 14.0634 10.1405 14.5946 10.6871C14.5946 10.6871 16.8976 13.2147 18.3446 15.4059C19.2518 16.7797 22.0356 15.9451 21.6727 14.3043C21.4889 13.4729 17.6884 8.96057 17.3985 8.57796Z" fill="url(#paint24_linear_20020_3433)"/>
<path d="M25.8906 14.8359C25.4062 13.9062 22.0703 8.50789 21.0937 7.5072C20.1172 6.50652 19.0745 6.59235 18.2891 7.07179C17.5036 7.55124 17.3984 8.57797 17.3984 8.57797C18.0346 9.36835 20.6164 12.5561 21.8047 14.2344C23.349 16.4155 25.8906 14.8359 25.8906 14.8359Z" fill="url(#paint25_radial_20020_3433)"/>
<path d="M25.8906 14.8359C25.4062 13.9062 22.0703 8.50789 21.0937 7.5072C20.1172 6.50652 19.0745 6.59235 18.2891 7.07179C17.5036 7.55124 17.3984 8.57797 17.3984 8.57797C18.0346 9.36835 20.6164 12.5561 21.8047 14.2344C23.349 16.4155 25.8906 14.8359 25.8906 14.8359Z" fill="url(#paint26_radial_20020_3433)"/>
<path d="M25.8906 14.8359C25.4062 13.9062 22.0703 8.50789 21.0937 7.5072C20.1172 6.50652 19.0745 6.59235 18.2891 7.07179C17.5036 7.55124 17.3984 8.57797 17.3984 8.57797C18.0346 9.36835 20.6164 12.5561 21.8047 14.2344C23.349 16.4155 25.8906 14.8359 25.8906 14.8359Z" fill="url(#paint27_linear_20020_3433)"/>
<path d="M25.8906 14.8359C25.4062 13.9062 22.0703 8.50789 21.0937 7.5072C20.1172 6.50652 19.0745 6.59235 18.2891 7.07179C17.5036 7.55124 17.3984 8.57797 17.3984 8.57797C18.0346 9.36835 20.6164 12.5561 21.8047 14.2344C23.349 16.4155 25.8906 14.8359 25.8906 14.8359Z" fill="url(#paint28_radial_20020_3433)"/>
<path d="M6.68886 7.80807L4.85753 7.0401C4.572 6.92195 4.49324 6.55765 4.70985 6.3312L5.66489 5.31708C5.87166 5.09062 6.2458 5.1497 6.38364 5.42538L7.25992 7.20748C7.4273 7.57177 7.063 7.96561 6.68886 7.80807Z" fill="#1A80EA"/>
<path d="M6.68886 7.80807L4.85753 7.0401C4.572 6.92195 4.49324 6.55765 4.70985 6.3312L5.66489 5.31708C5.87166 5.09062 6.2458 5.1497 6.38364 5.42538L7.25992 7.20748C7.4273 7.57177 7.063 7.96561 6.68886 7.80807Z" fill="url(#paint29_linear_20020_3433)"/>
<path d="M6.68886 7.80807L4.85753 7.0401C4.572 6.92195 4.49324 6.55765 4.70985 6.3312L5.66489 5.31708C5.87166 5.09062 6.2458 5.1497 6.38364 5.42538L7.25992 7.20748C7.4273 7.57177 7.063 7.96561 6.68886 7.80807Z" fill="url(#paint30_linear_20020_3433)"/>
<path d="M6.68886 7.80807L4.85753 7.0401C4.572 6.92195 4.49324 6.55765 4.70985 6.3312L5.66489 5.31708C5.87166 5.09062 6.2458 5.1497 6.38364 5.42538L7.25992 7.20748C7.4273 7.57177 7.063 7.96561 6.68886 7.80807Z" fill="url(#paint31_linear_20020_3433)"/>
<path d="M9.12551 6.13803L7.9619 4.56281C7.78068 4.31669 7.89514 3.96225 8.18127 3.87364L9.4784 3.47C9.76454 3.3814 10.0507 3.61767 10.0316 3.92287L9.89807 5.90175C9.85992 6.3054 9.36395 6.46292 9.12551 6.13803Z" fill="#1A80EA"/>
<path d="M9.12551 6.13803L7.9619 4.56281C7.78068 4.31669 7.89514 3.96225 8.18127 3.87364L9.4784 3.47C9.76454 3.3814 10.0507 3.61767 10.0316 3.92287L9.89807 5.90175C9.85992 6.3054 9.36395 6.46292 9.12551 6.13803Z" fill="url(#paint32_linear_20020_3433)"/>
<path d="M9.12551 6.13803L7.9619 4.56281C7.78068 4.31669 7.89514 3.96225 8.18127 3.87364L9.4784 3.47C9.76454 3.3814 10.0507 3.61767 10.0316 3.92287L9.89807 5.90175C9.85992 6.3054 9.36395 6.46292 9.12551 6.13803Z" fill="url(#paint33_linear_20020_3433)"/>
<path d="M9.12551 6.13803L7.9619 4.56281C7.78068 4.31669 7.89514 3.96225 8.18127 3.87364L9.4784 3.47C9.76454 3.3814 10.0507 3.61767 10.0316 3.92287L9.89807 5.90175C9.85992 6.3054 9.36395 6.46292 9.12551 6.13803Z" fill="url(#paint34_linear_20020_3433)"/>
<path d="M5.65 10.457L3.66897 10.715C3.36191 10.7546 3.11428 10.4768 3.18361 10.1692L3.51048 8.79972C3.57982 8.50201 3.93641 8.36309 4.19394 8.53179L5.8481 9.64322C6.18488 9.88138 6.05611 10.4073 5.65 10.457Z" fill="#1A80EA"/>
<path d="M5.65 10.457L3.66897 10.715C3.36191 10.7546 3.11428 10.4768 3.18361 10.1692L3.51048 8.79972C3.57982 8.50201 3.93641 8.36309 4.19394 8.53179L5.8481 9.64322C6.18488 9.88138 6.05611 10.4073 5.65 10.457Z" fill="url(#paint35_linear_20020_3433)"/>
<path d="M5.65 10.457L3.66897 10.715C3.36191 10.7546 3.11428 10.4768 3.18361 10.1692L3.51048 8.79972C3.57982 8.50201 3.93641 8.36309 4.19394 8.53179L5.8481 9.64322C6.18488 9.88138 6.05611 10.4073 5.65 10.457Z" fill="url(#paint36_linear_20020_3433)"/>
<path d="M5.65 10.457L3.66897 10.715C3.36191 10.7546 3.11428 10.4768 3.18361 10.1692L3.51048 8.79972C3.57982 8.50201 3.93641 8.36309 4.19394 8.53179L5.8481 9.64322C6.18488 9.88138 6.05611 10.4073 5.65 10.457Z" fill="url(#paint37_linear_20020_3433)"/>
<defs>
<linearGradient id="paint0_linear_20020_3433" x1="18.3745" y1="30.3757" x2="12.3745" y2="15.6257" gradientUnits="userSpaceOnUse">
<stop offset="0.122196" stop-color="#FF6F44"/>
<stop offset="1" stop-color="#F47833"/>
</linearGradient>
<radialGradient id="paint1_radial_20020_3433" cx="0" cy="0" r="1" gradientUnits="userSpaceOnUse" gradientTransform="translate(7.56201 14.8757) rotate(76.185) scale(3.92607 3.30127)">
<stop offset="0.126711" stop-color="#FF9F2C"/>
<stop offset="1" stop-color="#FF9F2C" stop-opacity="0"/>
</radialGradient>
<radialGradient id="paint2_radial_20020_3433" cx="0" cy="0" r="1" gradientUnits="userSpaceOnUse" gradientTransform="translate(16.3745 18.7507) rotate(59.3715) scale(12.881 7.42758)">
<stop offset="0.505939" stop-color="#D66017"/>
<stop offset="1" stop-color="#D66017" stop-opacity="0"/>
</radialGradient>
<radialGradient id="paint3_radial_20020_3433" cx="0" cy="0" r="1" gradientUnits="userSpaceOnUse" gradientTransform="translate(23.9058 12.0007) rotate(96.3402) scale(2.82981 2.37946)">
<stop stop-color="#FFCC41"/>
<stop offset="1" stop-color="#FFCC41" stop-opacity="0"/>
</radialGradient>
<radialGradient id="paint4_radial_20020_3433" cx="0" cy="0" r="1" gradientUnits="userSpaceOnUse" gradientTransform="translate(9.24902 10.9365) rotate(55.6197) scale(4.31657 3.73049)">
<stop offset="0.186792" stop-color="#FFAB30"/>
<stop offset="0.82956" stop-color="#F37722"/>
</radialGradient>
<radialGradient id="paint5_radial_20020_3433" cx="0" cy="0" r="1" gradientUnits="userSpaceOnUse" gradientTransform="translate(11.6865 13.499) rotate(88.977) scale(3.50056 3.14522)">
<stop offset="0.0267379" stop-color="#D46318"/>
<stop offset="1" stop-color="#D46318" stop-opacity="0"/>
</radialGradient>
<radialGradient id="paint6_radial_20020_3433" cx="0" cy="0" r="1" gradientUnits="userSpaceOnUse" gradientTransform="translate(8.62402 15.749) rotate(60.8324) scale(9.2333 3.7368)">
<stop offset="0.161122" stop-color="#C54401"/>
<stop offset="0.344055" stop-color="#C54401" stop-opacity="0"/>
</radialGradient>
<radialGradient id="paint7_radial_20020_3433" cx="0" cy="0" r="1" gradientUnits="userSpaceOnUse" gradientTransform="translate(11.8759 7.43823) rotate(56.3099) scale(4.28159 3.7011)">
<stop offset="0.186792" stop-color="#FFC439"/>
<stop offset="0.82956" stop-color="#F37722"/>
</radialGradient>
<radialGradient id="paint8_radial_20020_3433" cx="0" cy="0" r="1" gradientUnits="userSpaceOnUse" gradientTransform="translate(13.0009 10.3132) rotate(65.7723) scale(2.74146 1.83442)">
<stop offset="0.0267379" stop-color="#D86715"/>
<stop offset="1" stop-color="#D86715" stop-opacity="0"/>
</radialGradient>
<radialGradient id="paint9_radial_20020_3433" cx="0" cy="0" r="1" gradientUnits="userSpaceOnUse" gradientTransform="translate(10.2509 11.6257) rotate(62.0302) scale(10.261 4.15568)">
<stop offset="0.161122" stop-color="#C54401"/>
<stop offset="0.290305" stop-color="#C54401" stop-opacity="0"/>
</radialGradient>
<radialGradient id="paint10_radial_20020_3433" cx="0" cy="0" r="1" gradientUnits="userSpaceOnUse" gradientTransform="translate(22.3746 15.1244) rotate(57.1596) scale(32.7309 20.5602)">
<stop offset="0.174074" stop-color="#FFE160"/>
<stop offset="0.456741" stop-color="#FFC741"/>
<stop offset="0.730967" stop-color="#F27F7B"/>
</radialGradient>
<radialGradient id="paint11_radial_20020_3433" cx="0" cy="0" r="1" gradientUnits="userSpaceOnUse" gradientTransform="translate(28.0934 16.9681) rotate(90) scale(7.5 1.84375)">
<stop stop-color="#FFEB67"/>
<stop offset="1" stop-color="#FFED67" stop-opacity="0"/>
<stop offset="1" stop-color="#FFEA66" stop-opacity="0"/>
</radialGradient>
<radialGradient id="paint12_radial_20020_3433" cx="0" cy="0" r="1" gradientUnits="userSpaceOnUse" gradientTransform="translate(13.4371 16.7494) rotate(53.6606) scale(6.75029 1.49832)">
<stop stop-color="#FFD74B"/>
<stop offset="1" stop-color="#FFD74B" stop-opacity="0"/>
</radialGradient>
<radialGradient id="paint13_radial_20020_3433" cx="0" cy="0" r="1" gradientUnits="userSpaceOnUse" gradientTransform="translate(18.7184 15.5306) rotate(53.3659) scale(3.03753 1.63772)">
<stop stop-color="#FBC53D"/>
<stop offset="1" stop-color="#FFDC59" stop-opacity="0"/>
</radialGradient>
<radialGradient id="paint14_radial_20020_3433" cx="0" cy="0" r="1" gradientUnits="userSpaceOnUse" gradientTransform="translate(14.6246 8.99939) rotate(72.7725) scale(33.7648 28.7091)">
<stop offset="0.63763" stop-color="#FFB05E" stop-opacity="0"/>
<stop offset="0.703717" stop-color="#FFB05E"/>
</radialGradient>
<radialGradient id="paint15_radial_20020_3433" cx="0" cy="0" r="1" gradientUnits="userSpaceOnUse" gradientTransform="translate(13.1246 25.7494) rotate(47.7621) scale(20.176 6.395)">
<stop offset="0.332283" stop-color="#F28368"/>
<stop offset="1" stop-color="#FFC056" stop-opacity="0"/>
</radialGradient>
<radialGradient id="paint16_radial_20020_3433" cx="0" cy="0" r="1" gradientUnits="userSpaceOnUse" gradientTransform="translate(28.1877 14.1251) rotate(87.7382) scale(28.2095 6.43646)">
<stop offset="0.0491183" stop-color="#FFEA66"/>
<stop offset="0.363874" stop-color="#EDB01E"/>
<stop offset="0.510416" stop-color="#D2831D"/>
</radialGradient>
<radialGradient id="paint17_radial_20020_3433" cx="0" cy="0" r="1" gradientUnits="userSpaceOnUse" gradientTransform="translate(27.4377 18.8751) rotate(64.3196) scale(4.2997 2.27611)">
<stop offset="0.52378" stop-color="#FFDC5A"/>
<stop offset="1" stop-color="#FBD44D" stop-opacity="0"/>
</radialGradient>
<radialGradient id="paint18_radial_20020_3433" cx="0" cy="0" r="1" gradientUnits="userSpaceOnUse" gradientTransform="translate(28.0627 17.3751) rotate(89.0179) scale(5.46955 0.983543)">
<stop offset="0.241007" stop-color="#FFEA66"/>
<stop offset="1" stop-color="#FFED67" stop-opacity="0"/>
<stop offset="1" stop-color="#FFEA66" stop-opacity="0"/>
</radialGradient>
<radialGradient id="paint19_radial_20020_3433" cx="0" cy="0" r="1" gradientUnits="userSpaceOnUse" gradientTransform="translate(16.4371 13.6871) rotate(52.9945) scale(42.2626 6.06263)">
<stop offset="0.117759" stop-color="#FFD945"/>
<stop offset="0.392418" stop-color="#FABB2C"/>
<stop offset="0.602637" stop-color="#F3A822"/>
</radialGradient>
<radialGradient id="paint20_radial_20020_3433" cx="0" cy="0" r="1" gradientUnits="userSpaceOnUse" gradientTransform="translate(13.6871 15.9996) rotate(52.1555) scale(10.289 2.64639)">
<stop stop-color="#E38701"/>
<stop offset="0.498616" stop-color="#F2A91A" stop-opacity="0"/>
</radialGradient>
<linearGradient id="paint21_linear_20020_3433" x1="19.3746" y1="17.9371" x2="16.4913" y2="16.2965" gradientUnits="userSpaceOnUse">
<stop offset="0.147947" stop-color="#FFDE5B"/>
<stop offset="1" stop-color="#FFE160" stop-opacity="0"/>
</linearGradient>
<radialGradient id="paint22_radial_20020_3433" cx="0" cy="0" r="1" gradientUnits="userSpaceOnUse" gradientTransform="translate(18.5098 10.8925) rotate(54.4286) scale(42.3162 6.43477)">
<stop offset="0.0126503" stop-color="#FFE34E"/>
<stop offset="0.296062" stop-color="#FABC29"/>
<stop offset="0.602637" stop-color="#F09F0C"/>
</radialGradient>
<radialGradient id="paint23_radial_20020_3433" cx="0" cy="0" r="1" gradientUnits="userSpaceOnUse" gradientTransform="translate(14.9696 11.8434) rotate(50.0937) scale(15.9286 2.22533)">
<stop offset="0.101813" stop-color="#E38701"/>
<stop offset="0.540918" stop-color="#F2A91A" stop-opacity="0"/>
</radialGradient>
<linearGradient id="paint24_linear_20020_3433" x1="22.1884" y1="16.0973" x2="18.6259" y2="12.9996" gradientUnits="userSpaceOnUse">
<stop offset="0.28671" stop-color="#FFE160"/>
<stop offset="1" stop-color="#FFE160" stop-opacity="0"/>
</linearGradient>
<radialGradient id="paint25_radial_20020_3433" cx="0" cy="0" r="1" gradientUnits="userSpaceOnUse" gradientTransform="translate(22.8125 10.4375) rotate(55.5194) scale(26.3854 6.40756)">
<stop offset="0.118483" stop-color="#FFE34E"/>
<stop offset="0.402194" stop-color="#FABC29"/>
<stop offset="1" stop-color="#F09F0C"/>
</radialGradient>
<radialGradient id="paint26_radial_20020_3433" cx="0" cy="0" r="1" gradientUnits="userSpaceOnUse" gradientTransform="translate(19.4688 11.5937) rotate(52.0523) scale(12.9585 1.81604)">
<stop stop-color="#E38701"/>
<stop offset="0.609651" stop-color="#F2A91A" stop-opacity="0"/>
</radialGradient>
<linearGradient id="paint27_linear_20020_3433" x1="25.0617" y1="15.8611" x2="22.4498" y2="12.2497" gradientUnits="userSpaceOnUse">
<stop offset="0.487226" stop-color="#FFE160"/>
<stop offset="1" stop-color="#FFE160" stop-opacity="0"/>
</linearGradient>
<radialGradient id="paint28_radial_20020_3433" cx="0" cy="0" r="1" gradientUnits="userSpaceOnUse" gradientTransform="translate(22.1875 11.6875) rotate(53.0382) scale(23.3875 10.6023)">
<stop offset="0.239356" stop-color="#C7720F" stop-opacity="0"/>
<stop offset="0.300451" stop-color="#C7720F"/>
</radialGradient>
<linearGradient id="paint29_linear_20020_3433" x1="4.9154" y1="5.94502" x2="5.45943" y2="6.45562" gradientUnits="userSpaceOnUse">
<stop stop-color="#2065A3"/>
<stop offset="1" stop-color="#2067AE" stop-opacity="0"/>
</linearGradient>
<linearGradient id="paint30_linear_20020_3433" x1="5.61538" y1="7.95265" x2="5.91952" y2="7.24984" gradientUnits="userSpaceOnUse">
<stop offset="0.605233" stop-color="#1C60FF"/>
<stop offset="1" stop-color="#1963FF" stop-opacity="0"/>
</linearGradient>
<linearGradient id="paint31_linear_20020_3433" x1="6.7615" y1="5.97579" x2="6.36418" y2="6.18584" gradientUnits="userSpaceOnUse">
<stop stop-color="#2093F1"/>
<stop offset="1" stop-color="#2294F3" stop-opacity="0"/>
</linearGradient>
<linearGradient id="paint32_linear_20020_3433" x1="8.76309" y1="3.34685" x2="9.01283" y2="4.17147" gradientUnits="userSpaceOnUse">
<stop stop-color="#2065A3"/>
<stop offset="1" stop-color="#2067AE" stop-opacity="0"/>
</linearGradient>
<linearGradient id="paint33_linear_20020_3433" x1="8.47994" y1="5.91758" x2="8.99912" y2="5.53817" gradientUnits="userSpaceOnUse">
<stop offset="0.605233" stop-color="#1C60FF"/>
<stop offset="1" stop-color="#1963FF" stop-opacity="0"/>
</linearGradient>
<linearGradient id="paint34_linear_20020_3433" x1="9.97022" y1="4.44966" x2="9.70885" y2="4.4361" gradientUnits="userSpaceOnUse">
<stop stop-color="#2093F1"/>
<stop offset="1" stop-color="#2294F3" stop-opacity="0"/>
</linearGradient>
<linearGradient id="paint35_linear_20020_3433" x1="3.17187" y1="9.58887" x2="3.81441" y2="9.74406" gradientUnits="userSpaceOnUse">
<stop stop-color="#2065A3"/>
<stop offset="1" stop-color="#2067AE" stop-opacity="0"/>
</linearGradient>
<linearGradient id="paint36_linear_20020_3433" x1="4.60638" y1="11.074" x2="4.54661" y2="10.3119" gradientUnits="userSpaceOnUse">
<stop offset="0.605233" stop-color="#1C60FF"/>
<stop offset="1" stop-color="#1963FF" stop-opacity="0"/>
</linearGradient>
<linearGradient id="paint37_linear_20020_3433" x1="4.99862" y1="8.93342" x2="4.72218" y2="9.33687" gradientUnits="userSpaceOnUse">
<stop stop-color="#2093F1"/>
<stop offset="1" stop-color="#2294F3" stop-opacity="0"/>
</linearGradient>
</defs>
</svg>
