<svg width="32" height="32" viewBox="0 0 32 32" fill="none" xmlns="http://www.w3.org/2000/svg">
<path d="M15.9989 29.9978C25.3333 29.9978 29.9978 23.7303 29.9978 15.9989C29.9978 8.26751 25.3333 2 15.9989 2C6.66443 2 2 8.26751 2 15.9989C2 23.7303 6.66443 29.9978 15.9989 29.9978Z" fill="url(#paint0_radial_23_362)"/>
<path d="M15.9989 29.9978C25.3333 29.9978 29.9978 23.7303 29.9978 15.9989C29.9978 8.26751 25.3333 2 15.9989 2C6.66443 2 2 8.26751 2 15.9989C2 23.7303 6.66443 29.9978 15.9989 29.9978Z" fill="url(#paint1_radial_23_362)"/>
<path d="M15.9989 29.9978C25.3333 29.9978 29.9978 23.7303 29.9978 15.9989C29.9978 8.26751 25.3333 2 15.9989 2C6.66443 2 2 8.26751 2 15.9989C2 23.7303 6.66443 29.9978 15.9989 29.9978Z" fill="url(#paint2_radial_23_362)" fill-opacity="0.6"/>
<path d="M15.9989 29.9978C25.3333 29.9978 29.9978 23.7303 29.9978 15.9989C29.9978 8.26751 25.3333 2 15.9989 2C6.66443 2 2 8.26751 2 15.9989C2 23.7303 6.66443 29.9978 15.9989 29.9978Z" fill="url(#paint3_radial_23_362)"/>
<path d="M15.9989 29.9978C25.3333 29.9978 29.9978 23.7303 29.9978 15.9989C29.9978 8.26751 25.3333 2 15.9989 2C6.66443 2 2 8.26751 2 15.9989C2 23.7303 6.66443 29.9978 15.9989 29.9978Z" fill="url(#paint4_radial_23_362)"/>
<path d="M15.9989 29.9978C25.3333 29.9978 29.9978 23.7303 29.9978 15.9989C29.9978 8.26751 25.3333 2 15.9989 2C6.66443 2 2 8.26751 2 15.9989C2 23.7303 6.66443 29.9978 15.9989 29.9978Z" fill="url(#paint5_radial_23_362)"/>
<path d="M15.9989 29.9978C25.3333 29.9978 29.9978 23.7303 29.9978 15.9989C29.9978 8.26751 25.3333 2 15.9989 2C6.66443 2 2 8.26751 2 15.9989C2 23.7303 6.66443 29.9978 15.9989 29.9978Z" fill="url(#paint6_radial_23_362)"/>
<path d="M15.9989 29.9978C25.3333 29.9978 29.9978 23.7303 29.9978 15.9989C29.9978 8.26751 25.3333 2 15.9989 2C6.66443 2 2 8.26751 2 15.9989C2 23.7303 6.66443 29.9978 15.9989 29.9978Z" fill="url(#paint7_radial_23_362)"/>
<path d="M15.9989 29.9978C25.3333 29.9978 29.9978 23.7303 29.9978 15.9989C29.9978 8.26751 25.3333 2 15.9989 2C6.66443 2 2 8.26751 2 15.9989C2 23.7303 6.66443 29.9978 15.9989 29.9978Z" fill="url(#paint8_radial_23_362)"/>
<path d="M15.9989 29.9978C25.3333 29.9978 29.9978 23.7303 29.9978 15.9989C29.9978 8.26751 25.3333 2 15.9989 2C6.66443 2 2 8.26751 2 15.9989C2 23.7303 6.66443 29.9978 15.9989 29.9978Z" fill="url(#paint9_radial_23_362)"/>
<path d="M15.9989 29.9978C25.3333 29.9978 29.9978 23.7303 29.9978 15.9989C29.9978 8.26751 25.3333 2 15.9989 2C6.66443 2 2 8.26751 2 15.9989C2 23.7303 6.66443 29.9978 15.9989 29.9978Z" fill="url(#paint10_radial_23_362)"/>
<path d="M15.9989 29.9978C25.3333 29.9978 29.9978 23.7303 29.9978 15.9989C29.9978 8.26751 25.3333 2 15.9989 2C6.66443 2 2 8.26751 2 15.9989C2 23.7303 6.66443 29.9978 15.9989 29.9978Z" fill="url(#paint11_radial_23_362)"/>
<path d="M16 26C6 26 6 16 6 16H26C26 16 26 26 16 26Z" fill="url(#paint12_radial_23_362)"/>
<path d="M23.5 17.5H8.5C7.67157 17.5 7 16.8284 7 16H25C25 16.8284 24.3284 17.5 23.5 17.5Z" fill="url(#paint13_linear_23_362)"/>
<path d="M9.44746 13.8899C8.95348 14.1369 8.35281 13.9367 8.10582 13.4427C7.85883 12.9487 8.05906 12.3481 8.55303 12.1011L10.7595 10.9978L12.5 10.5L14.0002 10.9978C13.9994 11.3757 13.7856 11.7209 13.4475 11.8899L9.44746 13.8899Z" fill="url(#paint14_linear_23_362)"/>
<path d="M9.44746 13.8899C8.95348 14.1369 8.35281 13.9367 8.10582 13.4427C7.85883 12.9487 8.05906 12.3481 8.55303 12.1011L10.7595 10.9978L12.5 10.5L14.0002 10.9978C13.9994 11.3757 13.7856 11.7209 13.4475 11.8899L9.44746 13.8899Z" fill="url(#paint15_linear_23_362)"/>
<path d="M9.44746 13.8899C8.95348 14.1369 8.35281 13.9367 8.10582 13.4427C7.85883 12.9487 8.05906 12.3481 8.55303 12.1011L10.7595 10.9978L12.5 10.5L14.0002 10.9978C13.9994 11.3757 13.7856 11.7209 13.4475 11.8899L9.44746 13.8899Z" fill="url(#paint16_radial_23_362)"/>
<path d="M9.44746 8.10579C8.95348 7.8588 8.35281 8.05903 8.10582 8.55301C7.85883 9.04698 8.05906 9.64766 8.55303 9.89465L10.7595 10.9979H14.0002C13.9994 10.62 13.7856 10.2748 13.4475 10.1058L9.44746 8.10579Z" fill="url(#paint17_linear_23_362)"/>
<path d="M9.44746 8.10579C8.95348 7.8588 8.35281 8.05903 8.10582 8.55301C7.85883 9.04698 8.05906 9.64766 8.55303 9.89465L10.7595 10.9979H14.0002C13.9994 10.62 13.7856 10.2748 13.4475 10.1058L9.44746 8.10579Z" fill="url(#paint18_linear_23_362)"/>
<path d="M9.44746 8.10579C8.95348 7.8588 8.35281 8.05903 8.10582 8.55301C7.85883 9.04698 8.05906 9.64766 8.55303 9.89465L10.7595 10.9979H14.0002C13.9994 10.62 13.7856 10.2748 13.4475 10.1058L9.44746 8.10579Z" fill="url(#paint19_radial_23_362)"/>
<path d="M22.5372 13.8899C23.0311 14.1369 23.6318 13.9367 23.8788 13.4427C24.1258 12.9487 23.9256 12.3481 23.4316 12.1011L21.2251 10.9978L19.5 10.5L17.9844 10.9978C17.9852 11.3757 18.1991 11.7209 18.5372 11.8899L22.5372 13.8899Z" fill="url(#paint20_linear_23_362)"/>
<path d="M22.5372 13.8899C23.0311 14.1369 23.6318 13.9367 23.8788 13.4427C24.1258 12.9487 23.9256 12.3481 23.4316 12.1011L21.2251 10.9978L19.5 10.5L17.9844 10.9978C17.9852 11.3757 18.1991 11.7209 18.5372 11.8899L22.5372 13.8899Z" fill="url(#paint21_linear_23_362)"/>
<path d="M22.5372 8.10579C23.0311 7.8588 23.6318 8.05903 23.8788 8.55301C24.1258 9.04698 23.9256 9.64766 23.4316 9.89465L21.2251 10.9979H17.9844C17.9852 10.62 18.1991 10.2748 18.5372 10.1058L22.5372 8.10579Z" fill="url(#paint22_linear_23_362)"/>
<path d="M22.5372 8.10579C23.0311 7.8588 23.6318 8.05903 23.8788 8.55301C24.1258 9.04698 23.9256 9.64766 23.4316 9.89465L21.2251 10.9979H17.9844C17.9852 10.62 18.1991 10.2748 18.5372 10.1058L22.5372 8.10579Z" fill="url(#paint23_radial_23_362)"/>
<path d="M22.5372 8.10579C23.0311 7.8588 23.6318 8.05903 23.8788 8.55301C24.1258 9.04698 23.9256 9.64766 23.4316 9.89465L21.2251 10.9979H17.9844C17.9852 10.62 18.1991 10.2748 18.5372 10.1058L22.5372 8.10579Z" fill="url(#paint24_radial_23_362)"/>
<path d="M22.5372 8.10579C23.0311 7.8588 23.6318 8.05903 23.8788 8.55301C24.1258 9.04698 23.9256 9.64766 23.4316 9.89465L21.2251 10.9979H17.9844C17.9852 10.62 18.1991 10.2748 18.5372 10.1058L22.5372 8.10579Z" fill="url(#paint25_linear_23_362)"/>
<defs>
<radialGradient id="paint0_radial_23_362" cx="0" cy="0" r="1" gradientUnits="userSpaceOnUse" gradientTransform="translate(25.5 9) rotate(131.878) scale(38.9487)">
<stop stop-color="#FFF478"/>
<stop offset="0.474827" stop-color="#FFB02E"/>
<stop offset="1" stop-color="#F70A8D"/>
</radialGradient>
<radialGradient id="paint1_radial_23_362" cx="0" cy="0" r="1" gradientUnits="userSpaceOnUse" gradientTransform="translate(16 12.5) rotate(101.31) scale(17.8466 22.8581)">
<stop offset="0.787821" stop-color="#F59639" stop-opacity="0"/>
<stop offset="0.972509" stop-color="#FF7DCE"/>
</radialGradient>
<radialGradient id="paint2_radial_23_362" cx="0" cy="0" r="1" gradientUnits="userSpaceOnUse" gradientTransform="translate(18 14) rotate(135) scale(41.0122)">
<stop offset="0.314853" stop-opacity="0"/>
<stop offset="1"/>
</radialGradient>
<radialGradient id="paint3_radial_23_362" cx="0" cy="0" r="1" gradientUnits="userSpaceOnUse" gradientTransform="translate(16 17) rotate(77.692) scale(28.1469)">
<stop offset="0.507903" stop-color="#7D6133" stop-opacity="0"/>
<stop offset="1" stop-color="#715B32"/>
</radialGradient>
<radialGradient id="paint4_radial_23_362" cx="0" cy="0" r="1" gradientUnits="userSpaceOnUse" gradientTransform="translate(16.5 16.5) rotate(55.7131) scale(13.3135 9.65032)">
<stop stop-color="#FFB849"/>
<stop offset="1" stop-color="#FFB847" stop-opacity="0"/>
</radialGradient>
<radialGradient id="paint5_radial_23_362" cx="0" cy="0" r="1" gradientUnits="userSpaceOnUse" gradientTransform="translate(20.5 18) rotate(9.86581) scale(11.6726)">
<stop stop-color="#FFA64B"/>
<stop offset="0.900412" stop-color="#FFAE46" stop-opacity="0"/>
</radialGradient>
<radialGradient id="paint6_radial_23_362" cx="0" cy="0" r="1" gradientUnits="userSpaceOnUse" gradientTransform="translate(17.5 15) rotate(43.9708) scale(59.0529)">
<stop offset="0.185425" stop-opacity="0"/>
<stop offset="1" stop-opacity="0.4"/>
</radialGradient>
<radialGradient id="paint7_radial_23_362" cx="0" cy="0" r="1" gradientUnits="userSpaceOnUse" gradientTransform="translate(21.754 12.8672) rotate(119.867) scale(1.81229 2.75618)">
<stop stop-color="#D07E2D"/>
<stop offset="1" stop-color="#D98833" stop-opacity="0"/>
</radialGradient>
<radialGradient id="paint8_radial_23_362" cx="0" cy="0" r="1" gradientUnits="userSpaceOnUse" gradientTransform="translate(19.6454 11.8187) rotate(128.66) scale(1.73812 2.64338)">
<stop stop-color="#D07E2D"/>
<stop offset="1" stop-color="#D98833" stop-opacity="0"/>
</radialGradient>
<radialGradient id="paint9_radial_23_362" cx="0" cy="0" r="1" gradientUnits="userSpaceOnUse" gradientTransform="translate(21.4541 10.1417) rotate(65.6376) scale(1.55562 2.36583)">
<stop stop-color="#D07E2D"/>
<stop offset="1" stop-color="#D98833" stop-opacity="0"/>
</radialGradient>
<radialGradient id="paint10_radial_23_362" cx="0" cy="0" r="1" gradientUnits="userSpaceOnUse" gradientTransform="translate(9.82522 10.194) rotate(110.225) scale(1.52257 3.6486)">
<stop stop-color="#D07E2D"/>
<stop offset="1" stop-color="#D98833" stop-opacity="0"/>
</radialGradient>
<radialGradient id="paint11_radial_23_362" cx="0" cy="0" r="1" gradientUnits="userSpaceOnUse" gradientTransform="translate(9.56068 12.8202) rotate(70.8664) scale(1.62803 3.00124)">
<stop stop-color="#D07E2D"/>
<stop offset="1" stop-color="#D98833" stop-opacity="0"/>
</radialGradient>
<radialGradient id="paint12_radial_23_362" cx="0" cy="0" r="1" gradientUnits="userSpaceOnUse" gradientTransform="translate(16 28.2222) rotate(-90) scale(12.2222 24.4444)">
<stop stop-color="#F70A8D"/>
<stop offset="1" stop-color="#89029C"/>
</radialGradient>
<linearGradient id="paint13_linear_23_362" x1="16" y1="16" x2="16" y2="17.5" gradientUnits="userSpaceOnUse">
<stop stop-color="#ECCDFF"/>
<stop offset="1" stop-color="white"/>
</linearGradient>
<linearGradient id="paint14_linear_23_362" x1="10.4722" y1="14.7652" x2="8" y2="9.85061" gradientUnits="userSpaceOnUse">
<stop offset="0.21392" stop-color="#492741"/>
<stop offset="0.331485" stop-color="#503A4A"/>
<stop offset="0.511203" stop-color="#482641"/>
</linearGradient>
<linearGradient id="paint15_linear_23_362" x1="10.3004" y1="10.9978" x2="10.4163" y2="11.4731" gradientUnits="userSpaceOnUse">
<stop stop-color="#2D1721"/>
<stop offset="1" stop-color="#2D1721" stop-opacity="0"/>
</linearGradient>
<radialGradient id="paint16_radial_23_362" cx="0" cy="0" r="1" gradientUnits="userSpaceOnUse" gradientTransform="translate(12.3181 11.2904) rotate(-148.405) scale(5.68231)">
<stop offset="0.631717" stop-color="#492741" stop-opacity="0"/>
<stop offset="0.798224" stop-color="#492741"/>
</radialGradient>
<linearGradient id="paint17_linear_23_362" x1="8.85962" y1="11.1385" x2="10.6889" y2="7.91235" gradientUnits="userSpaceOnUse">
<stop offset="0.162863" stop-color="#22161C"/>
<stop offset="0.435713" stop-color="#482641"/>
<stop offset="0.631598" stop-color="#503A4A"/>
</linearGradient>
<linearGradient id="paint18_linear_23_362" x1="10.3004" y1="10.9979" x2="10.4163" y2="10.5226" gradientUnits="userSpaceOnUse">
<stop stop-color="#2D1721"/>
<stop offset="1" stop-color="#2D1721" stop-opacity="0"/>
</linearGradient>
<radialGradient id="paint19_radial_23_362" cx="0" cy="0" r="1" gradientUnits="userSpaceOnUse" gradientTransform="translate(12.3181 10.7053) rotate(148.405) scale(5.68231)">
<stop offset="0.631717" stop-color="#492741" stop-opacity="0"/>
<stop offset="0.798224" stop-color="#492741"/>
</radialGradient>
<linearGradient id="paint20_linear_23_362" x1="21.4063" y1="14.7322" x2="23.9846" y2="9.38845" gradientUnits="userSpaceOnUse">
<stop offset="0.207167" stop-color="#381B32"/>
<stop offset="0.277026" stop-color="#482641"/>
<stop offset="0.390091" stop-color="#503A4A"/>
<stop offset="0.516907" stop-color="#503A4A"/>
<stop offset="0.651166" stop-color="#482641"/>
</linearGradient>
<linearGradient id="paint21_linear_23_362" x1="21.6842" y1="10.9978" x2="21.5683" y2="11.4731" gradientUnits="userSpaceOnUse">
<stop stop-color="#2D1721"/>
<stop offset="1" stop-color="#2D1721" stop-opacity="0"/>
</linearGradient>
<linearGradient id="paint22_linear_23_362" x1="23.125" y1="11.1385" x2="20.7344" y2="6.45102" gradientUnits="userSpaceOnUse">
<stop offset="0.162402" stop-color="#482641"/>
<stop offset="0.296966" stop-color="#503A4A"/>
<stop offset="0.39491" stop-color="#503A4A"/>
<stop offset="0.511203" stop-color="#482641"/>
</linearGradient>
<radialGradient id="paint23_radial_23_362" cx="0" cy="0" r="1" gradientUnits="userSpaceOnUse" gradientTransform="translate(19.3034 10.7783) rotate(29.1673) scale(5.95871)">
<stop offset="0.631717" stop-color="#492741" stop-opacity="0"/>
<stop offset="0.798224" stop-color="#492741"/>
</radialGradient>
<radialGradient id="paint24_radial_23_362" cx="0" cy="0" r="1" gradientUnits="userSpaceOnUse" gradientTransform="translate(23.5204 8.65658) rotate(134.019) scale(0.898479 1.62536)">
<stop stop-color="#5E5051"/>
<stop offset="1" stop-color="#5E5051" stop-opacity="0"/>
</radialGradient>
<linearGradient id="paint25_linear_23_362" x1="21.6842" y1="10.9979" x2="21.5683" y2="10.5226" gradientUnits="userSpaceOnUse">
<stop stop-color="#2D1721"/>
<stop offset="1" stop-color="#2D1721" stop-opacity="0"/>
</linearGradient>
</defs>
</svg>
