<svg width="32" height="32" viewBox="0 0 32 32" fill="none" xmlns="http://www.w3.org/2000/svg">
<path d="M15.9989 29.9978C25.3333 29.9978 29.9978 23.7303 29.9978 15.9989C29.9978 8.26751 25.3333 2 15.9989 2C6.66443 2 2 8.26751 2 15.9989C2 23.7303 6.66443 29.9978 15.9989 29.9978Z" fill="url(#paint0_radial_19_54)"/>
<path d="M15.9989 29.9978C25.3333 29.9978 29.9978 23.7303 29.9978 15.9989C29.9978 8.26751 25.3333 2 15.9989 2C6.66443 2 2 8.26751 2 15.9989C2 23.7303 6.66443 29.9978 15.9989 29.9978Z" fill="url(#paint1_radial_19_54)"/>
<path d="M15.9989 29.9978C25.3333 29.9978 29.9978 23.7303 29.9978 15.9989C29.9978 8.26751 25.3333 2 15.9989 2C6.66443 2 2 8.26751 2 15.9989C2 23.7303 6.66443 29.9978 15.9989 29.9978Z" fill="url(#paint2_radial_19_54)" fill-opacity="0.6"/>
<path d="M15.9989 29.9978C25.3333 29.9978 29.9978 23.7303 29.9978 15.9989C29.9978 8.26751 25.3333 2 15.9989 2C6.66443 2 2 8.26751 2 15.9989C2 23.7303 6.66443 29.9978 15.9989 29.9978Z" fill="url(#paint3_radial_19_54)"/>
<path d="M15.9989 29.9978C25.3333 29.9978 29.9978 23.7303 29.9978 15.9989C29.9978 8.26751 25.3333 2 15.9989 2C6.66443 2 2 8.26751 2 15.9989C2 23.7303 6.66443 29.9978 15.9989 29.9978Z" fill="url(#paint4_radial_19_54)"/>
<path d="M15.9989 29.9978C25.3333 29.9978 29.9978 23.7303 29.9978 15.9989C29.9978 8.26751 25.3333 2 15.9989 2C6.66443 2 2 8.26751 2 15.9989C2 23.7303 6.66443 29.9978 15.9989 29.9978Z" fill="url(#paint5_radial_19_54)"/>
<path d="M15.9989 29.9978C25.3333 29.9978 29.9978 23.7303 29.9978 15.9989C29.9978 8.26751 25.3333 2 15.9989 2C6.66443 2 2 8.26751 2 15.9989C2 23.7303 6.66443 29.9978 15.9989 29.9978Z" fill="url(#paint6_radial_19_54)"/>
<path d="M15.9989 29.9978C25.3333 29.9978 29.9978 23.7303 29.9978 15.9989C29.9978 8.26751 25.3333 2 15.9989 2C6.66443 2 2 8.26751 2 15.9989C2 23.7303 6.66443 29.9978 15.9989 29.9978Z" fill="url(#paint7_radial_19_54)"/>
<path d="M15.9989 29.9978C25.3333 29.9978 29.9978 23.7303 29.9978 15.9989C29.9978 8.26751 25.3333 2 15.9989 2C6.66443 2 2 8.26751 2 15.9989C2 23.7303 6.66443 29.9978 15.9989 29.9978Z" fill="url(#paint8_radial_19_54)"/>
<path d="M15.9989 29.9978C25.3333 29.9978 29.9978 23.7303 29.9978 15.9989C29.9978 8.26751 25.3333 2 15.9989 2C6.66443 2 2 8.26751 2 15.9989C2 23.7303 6.66443 29.9978 15.9989 29.9978Z" fill="url(#paint9_radial_19_54)"/>
<path d="M15.9989 29.9978C25.3333 29.9978 29.9978 23.7303 29.9978 15.9989C29.9978 8.26751 25.3333 2 15.9989 2C6.66443 2 2 8.26751 2 15.9989C2 23.7303 6.66443 29.9978 15.9989 29.9978Z" fill="url(#paint10_radial_19_54)"/>
<path d="M15.9989 29.9978C25.3333 29.9978 29.9978 23.7303 29.9978 15.9989C29.9978 8.26751 25.3333 2 15.9989 2C6.66443 2 2 8.26751 2 15.9989C2 23.7303 6.66443 29.9978 15.9989 29.9978Z" fill="url(#paint11_radial_19_54)"/>
<path fill-rule="evenodd" clip-rule="evenodd" d="M14.498 9.5C14.498 10.9077 13.9237 12.1644 13.0242 12.9896C12.4513 12.7313 11.6781 12.5 10.5 12.5C9.53447 12.5 8.60779 12.6554 7.83246 12.8536C7.01465 12.0296 6.5 10.8325 6.5 9.5C6.5 7.01472 8.29042 5 10.499 5C12.7076 5 14.498 7.01472 14.498 9.5ZM25.5039 9.5C25.5039 10.8328 24.9888 12.0304 24.1704 12.8543C23.3945 12.6558 22.4667 12.5 21.5 12.5C20.323 12.5 19.5501 12.7309 18.9774 12.9889C18.0781 12.1637 17.5039 10.9073 17.5039 9.5C17.5039 7.01472 19.2948 5 21.5039 5C23.713 5 25.5039 7.01472 25.5039 9.5Z" fill="white"/>
<path d="M11 12C12.1046 12 13 10.9926 13 9.75C13 8.50736 12.1046 7.5 11 7.5C9.89543 7.5 9 8.50736 9 9.75C9 10.9926 9.89543 12 11 12Z" fill="url(#paint12_linear_19_54)"/>
<path d="M21 12C22.1046 12 23 10.9926 23 9.75C23 8.50736 22.1046 7.5 21 7.5C19.8954 7.5 19 8.50736 19 9.75C19 10.9926 19.8954 12 21 12Z" fill="url(#paint13_linear_19_54)"/>
<path d="M16 24C7 24 7 15 7 15H25C25 15 25 24 16 24Z" fill="url(#paint14_radial_19_54)"/>
<path d="M8 15.5V15H24V15.5C24 16.0523 23.5523 16.5 23 16.5H9C8.44772 16.5 8 16.0523 8 15.5Z" fill="url(#paint15_linear_19_54)"/>
<defs>
<radialGradient id="paint0_radial_19_54" cx="0" cy="0" r="1" gradientUnits="userSpaceOnUse" gradientTransform="translate(25.5 9) rotate(131.878) scale(38.9487)">
<stop stop-color="#FFF478"/>
<stop offset="0.474827" stop-color="#FFB02E"/>
<stop offset="1" stop-color="#F70A8D"/>
</radialGradient>
<radialGradient id="paint1_radial_19_54" cx="0" cy="0" r="1" gradientUnits="userSpaceOnUse" gradientTransform="translate(16 12.5) rotate(101.31) scale(17.8466 22.8581)">
<stop offset="0.787821" stop-color="#F59639" stop-opacity="0"/>
<stop offset="0.972509" stop-color="#FF7DCE"/>
</radialGradient>
<radialGradient id="paint2_radial_19_54" cx="0" cy="0" r="1" gradientUnits="userSpaceOnUse" gradientTransform="translate(18 14) rotate(135) scale(41.0122)">
<stop offset="0.314853" stop-opacity="0"/>
<stop offset="1"/>
</radialGradient>
<radialGradient id="paint3_radial_19_54" cx="0" cy="0" r="1" gradientUnits="userSpaceOnUse" gradientTransform="translate(16 17) rotate(77.692) scale(28.1469)">
<stop offset="0.507903" stop-color="#7D6133" stop-opacity="0"/>
<stop offset="1" stop-color="#715B32"/>
</radialGradient>
<radialGradient id="paint4_radial_19_54" cx="0" cy="0" r="1" gradientUnits="userSpaceOnUse" gradientTransform="translate(16.5 16.5) rotate(55.7131) scale(13.3135 9.65032)">
<stop stop-color="#FFB849"/>
<stop offset="1" stop-color="#FFB847" stop-opacity="0"/>
</radialGradient>
<radialGradient id="paint5_radial_19_54" cx="0" cy="0" r="1" gradientUnits="userSpaceOnUse" gradientTransform="translate(20.5 18) rotate(9.86581) scale(11.6726)">
<stop stop-color="#FFA64B"/>
<stop offset="0.900412" stop-color="#FFAE46" stop-opacity="0"/>
</radialGradient>
<radialGradient id="paint6_radial_19_54" cx="0" cy="0" r="1" gradientUnits="userSpaceOnUse" gradientTransform="translate(17.5 15) rotate(43.9708) scale(59.0529)">
<stop offset="0.185425" stop-opacity="0"/>
<stop offset="1" stop-opacity="0.4"/>
</radialGradient>
<radialGradient id="paint7_radial_19_54" cx="0" cy="0" r="1" gradientUnits="userSpaceOnUse" gradientTransform="translate(9.12268 9.91474) rotate(93.252) scale(4.532 3.66788)">
<stop offset="0.47452" stop-color="#B3671F"/>
<stop offset="0.781916" stop-color="#B3671F" stop-opacity="0.236695"/>
<stop offset="0.873485" stop-color="#B3671F" stop-opacity="0.0865443"/>
<stop offset="0.948588" stop-color="#B3671F" stop-opacity="0"/>
</radialGradient>
<radialGradient id="paint8_radial_19_54" cx="0" cy="0" r="1" gradientUnits="userSpaceOnUse" gradientTransform="translate(10.9719 11.7303) rotate(3.86546) scale(2.85146 1.81551)">
<stop offset="0.392157" stop-color="#D57D2E"/>
<stop offset="0.643397" stop-color="#D57D2E" stop-opacity="0.446091"/>
<stop offset="0.806763" stop-color="#D57D2E" stop-opacity="0.179254"/>
<stop offset="1" stop-color="#D57D2E" stop-opacity="0"/>
</radialGradient>
<radialGradient id="paint9_radial_19_54" cx="0" cy="0" r="1" gradientUnits="userSpaceOnUse" gradientTransform="translate(19.5069 9.07757) rotate(90) scale(3.92145 2.92186)">
<stop offset="0.308886" stop-color="#9F5915"/>
<stop offset="0.773417" stop-color="#9F5915" stop-opacity="0.15"/>
<stop offset="0.936131" stop-color="#9F5915" stop-opacity="0"/>
</radialGradient>
<radialGradient id="paint10_radial_19_54" cx="0" cy="0" r="1" gradientUnits="userSpaceOnUse" gradientTransform="translate(22.4287 11.4996) rotate(14.5889) scale(2.90003 2.05227)">
<stop offset="0.404329" stop-color="#D18239"/>
<stop offset="0.783188" stop-color="#9F5915" stop-opacity="0.15"/>
<stop offset="0.936131" stop-color="#9F5915" stop-opacity="0"/>
</radialGradient>
<radialGradient id="paint11_radial_19_54" cx="0" cy="0" r="1" gradientUnits="userSpaceOnUse" gradientTransform="translate(20.5449 11.6534) rotate(2.93568) scale(3.00269 1.78788)">
<stop offset="0.404329" stop-color="#DA8A38"/>
<stop offset="0.783188" stop-color="#D38333" stop-opacity="0.22"/>
<stop offset="0.936131" stop-color="#D38233" stop-opacity="0"/>
</radialGradient>
<linearGradient id="paint12_linear_19_54" x1="21.3846" y1="7.5" x2="20.6358" y2="12.043" gradientUnits="userSpaceOnUse">
<stop stop-color="#553B3E"/>
<stop offset="1" stop-color="#3D2432"/>
</linearGradient>
<linearGradient id="paint13_linear_19_54" x1="21.3846" y1="7.5" x2="20.6358" y2="12.043" gradientUnits="userSpaceOnUse">
<stop stop-color="#553B3E"/>
<stop offset="1" stop-color="#3D2432"/>
</linearGradient>
<radialGradient id="paint14_radial_19_54" cx="0" cy="0" r="1" gradientUnits="userSpaceOnUse" gradientTransform="translate(16 26) rotate(-90) scale(11 22)">
<stop stop-color="#F70A8D"/>
<stop offset="1" stop-color="#89029C"/>
</radialGradient>
<linearGradient id="paint15_linear_19_54" x1="16" y1="15" x2="16" y2="16.5" gradientUnits="userSpaceOnUse">
<stop stop-color="#ECCDFF"/>
<stop offset="1" stop-color="white"/>
</linearGradient>
</defs>
</svg>
