<svg width="32" height="32" viewBox="0 0 32 32" fill="none" xmlns="http://www.w3.org/2000/svg">
<path d="M14.5311 15.5462L5.35924 16.6561C5.35924 16.6561 5.81944 20.4486 6.71936 23.3745C8.40347 28.3548 12.4849 30.1499 16.6089 29.5622C20.035 29.0739 22.9052 26.7961 24.1089 24.6559C25.6218 21.966 25.0908 19.0565 24.6714 17.0934C23.9182 13.5684 24.0933 12.9684 24.3589 11.6872C24.6245 10.4059 25.4683 6.40591 25.4683 6.40591C25.5776 5.34341 25.3408 3.38878 23.3901 3.09341C21.2803 2.77393 20.3661 4.39288 20.2183 5.21841L19.0776 11.7965C18.9495 12.1149 18.7044 11.898 18.5309 11.2505C18.0622 9.5005 16.8943 5.9036 16.3437 3.95378C15.8242 2.11419 14.1901 1.90266 13.1259 2.17177C11.4305 2.59806 10.8587 4.43689 11.2179 5.53146C11.5771 6.62603 14.5311 15.5462 14.5311 15.5462Z" fill="url(#paint0_radial_20020_2056)"/>
<path d="M14.5311 15.5462L5.35924 16.6561C5.35924 16.6561 5.81944 20.4486 6.71936 23.3745C8.40347 28.3548 12.4849 30.1499 16.6089 29.5622C20.035 29.0739 22.9052 26.7961 24.1089 24.6559C25.6218 21.966 25.0908 19.0565 24.6714 17.0934C23.9182 13.5684 24.0933 12.9684 24.3589 11.6872C24.6245 10.4059 25.4683 6.40591 25.4683 6.40591C25.5776 5.34341 25.3408 3.38878 23.3901 3.09341C21.2803 2.77393 20.3661 4.39288 20.2183 5.21841L19.0776 11.7965C18.9495 12.1149 18.7044 11.898 18.5309 11.2505C18.0622 9.5005 16.8943 5.9036 16.3437 3.95378C15.8242 2.11419 14.1901 1.90266 13.1259 2.17177C11.4305 2.59806 10.8587 4.43689 11.2179 5.53146C11.5771 6.62603 14.5311 15.5462 14.5311 15.5462Z" fill="url(#paint1_radial_20020_2056)"/>
<path d="M14.5311 15.5462L5.35924 16.6561C5.35924 16.6561 5.81944 20.4486 6.71936 23.3745C8.40347 28.3548 12.4849 30.1499 16.6089 29.5622C20.035 29.0739 22.9052 26.7961 24.1089 24.6559C25.6218 21.966 25.0908 19.0565 24.6714 17.0934C23.9182 13.5684 24.0933 12.9684 24.3589 11.6872C24.6245 10.4059 25.4683 6.40591 25.4683 6.40591C25.5776 5.34341 25.3408 3.38878 23.3901 3.09341C21.2803 2.77393 20.3661 4.39288 20.2183 5.21841L19.0776 11.7965C18.9495 12.1149 18.7044 11.898 18.5309 11.2505C18.0622 9.5005 16.8943 5.9036 16.3437 3.95378C15.8242 2.11419 14.1901 1.90266 13.1259 2.17177C11.4305 2.59806 10.8587 4.43689 11.2179 5.53146C11.5771 6.62603 14.5311 15.5462 14.5311 15.5462Z" fill="url(#paint2_radial_20020_2056)"/>
<path d="M14.5311 15.5462L5.35924 16.6561C5.35924 16.6561 5.81944 20.4486 6.71936 23.3745C8.40347 28.3548 12.4849 30.1499 16.6089 29.5622C20.035 29.0739 22.9052 26.7961 24.1089 24.6559C25.6218 21.966 25.0908 19.0565 24.6714 17.0934C23.9182 13.5684 24.0933 12.9684 24.3589 11.6872C24.6245 10.4059 25.4683 6.40591 25.4683 6.40591C25.5776 5.34341 25.3408 3.38878 23.3901 3.09341C21.2803 2.77393 20.3661 4.39288 20.2183 5.21841L19.0776 11.7965C18.9495 12.1149 18.7044 11.898 18.5309 11.2505C18.0622 9.5005 16.8943 5.9036 16.3437 3.95378C15.8242 2.11419 14.1901 1.90266 13.1259 2.17177C11.4305 2.59806 10.8587 4.43689 11.2179 5.53146C11.5771 6.62603 14.5311 15.5462 14.5311 15.5462Z" fill="url(#paint3_radial_20020_2056)"/>
<path d="M14.5311 15.5462L5.35924 16.6561C5.35924 16.6561 5.81944 20.4486 6.71936 23.3745C8.40347 28.3548 12.4849 30.1499 16.6089 29.5622C20.035 29.0739 22.9052 26.7961 24.1089 24.6559C25.6218 21.966 25.0908 19.0565 24.6714 17.0934C23.9182 13.5684 24.0933 12.9684 24.3589 11.6872C24.6245 10.4059 25.4683 6.40591 25.4683 6.40591C25.5776 5.34341 25.3408 3.38878 23.3901 3.09341C21.2803 2.77393 20.3661 4.39288 20.2183 5.21841L19.0776 11.7965C18.9495 12.1149 18.7044 11.898 18.5309 11.2505C18.0622 9.5005 16.8943 5.9036 16.3437 3.95378C15.8242 2.11419 14.1901 1.90266 13.1259 2.17177C11.4305 2.59806 10.8587 4.43689 11.2179 5.53146C11.5771 6.62603 14.5311 15.5462 14.5311 15.5462Z" fill="url(#paint4_radial_20020_2056)"/>
<path d="M14.5311 15.5462L5.35924 16.6561C5.35924 16.6561 5.81944 20.4486 6.71936 23.3745C8.40347 28.3548 12.4849 30.1499 16.6089 29.5622C20.035 29.0739 22.9052 26.7961 24.1089 24.6559C25.6218 21.966 25.0908 19.0565 24.6714 17.0934C23.9182 13.5684 24.0933 12.9684 24.3589 11.6872C24.6245 10.4059 25.4683 6.40591 25.4683 6.40591C25.5776 5.34341 25.3408 3.38878 23.3901 3.09341C21.2803 2.77393 20.3661 4.39288 20.2183 5.21841L19.0776 11.7965C18.9495 12.1149 18.7044 11.898 18.5309 11.2505C18.0622 9.5005 16.8943 5.9036 16.3437 3.95378C15.8242 2.11419 14.1901 1.90266 13.1259 2.17177C11.4305 2.59806 10.8587 4.43689 11.2179 5.53146C11.5771 6.62603 14.5311 15.5462 14.5311 15.5462Z" fill="url(#paint5_radial_20020_2056)"/>
<path d="M14.5311 15.5462L5.35924 16.6561C5.35924 16.6561 5.81944 20.4486 6.71936 23.3745C8.40347 28.3548 12.4849 30.1499 16.6089 29.5622C20.035 29.0739 22.9052 26.7961 24.1089 24.6559C25.6218 21.966 25.0908 19.0565 24.6714 17.0934C23.9182 13.5684 24.0933 12.9684 24.3589 11.6872C24.6245 10.4059 25.4683 6.40591 25.4683 6.40591C25.5776 5.34341 25.3408 3.38878 23.3901 3.09341C21.2803 2.77393 20.3661 4.39288 20.2183 5.21841L19.0776 11.7965C18.9495 12.1149 18.7044 11.898 18.5309 11.2505C18.0622 9.5005 16.8943 5.9036 16.3437 3.95378C15.8242 2.11419 14.1901 1.90266 13.1259 2.17177C11.4305 2.59806 10.8587 4.43689 11.2179 5.53146C11.5771 6.62603 14.5311 15.5462 14.5311 15.5462Z" fill="url(#paint6_radial_20020_2056)"/>
<path d="M14.5311 15.5462L5.35924 16.6561C5.35924 16.6561 5.81944 20.4486 6.71936 23.3745C8.40347 28.3548 12.4849 30.1499 16.6089 29.5622C20.035 29.0739 22.9052 26.7961 24.1089 24.6559C25.6218 21.966 25.0908 19.0565 24.6714 17.0934C23.9182 13.5684 24.0933 12.9684 24.3589 11.6872C24.6245 10.4059 25.4683 6.40591 25.4683 6.40591C25.5776 5.34341 25.3408 3.38878 23.3901 3.09341C21.2803 2.77393 20.3661 4.39288 20.2183 5.21841L19.0776 11.7965C18.9495 12.1149 18.7044 11.898 18.5309 11.2505C18.0622 9.5005 16.8943 5.9036 16.3437 3.95378C15.8242 2.11419 14.1901 1.90266 13.1259 2.17177C11.4305 2.59806 10.8587 4.43689 11.2179 5.53146C11.5771 6.62603 14.5311 15.5462 14.5311 15.5462Z" fill="url(#paint7_radial_20020_2056)"/>
<path d="M14.5311 15.5462L5.35924 16.6561C5.35924 16.6561 5.81944 20.4486 6.71936 23.3745C8.40347 28.3548 12.4849 30.1499 16.6089 29.5622C20.035 29.0739 22.9052 26.7961 24.1089 24.6559C25.6218 21.966 25.0908 19.0565 24.6714 17.0934C23.9182 13.5684 24.0933 12.9684 24.3589 11.6872C24.6245 10.4059 25.4683 6.40591 25.4683 6.40591C25.5776 5.34341 25.3408 3.38878 23.3901 3.09341C21.2803 2.77393 20.3661 4.39288 20.2183 5.21841L19.0776 11.7965C18.9495 12.1149 18.7044 11.898 18.5309 11.2505C18.0622 9.5005 16.8943 5.9036 16.3437 3.95378C15.8242 2.11419 14.1901 1.90266 13.1259 2.17177C11.4305 2.59806 10.8587 4.43689 11.2179 5.53146C11.5771 6.62603 14.5311 15.5462 14.5311 15.5462Z" fill="url(#paint8_radial_20020_2056)"/>
<path d="M14.5311 15.5462L5.35924 16.6561C5.35924 16.6561 5.81944 20.4486 6.71936 23.3745C8.40347 28.3548 12.4849 30.1499 16.6089 29.5622C20.035 29.0739 22.9052 26.7961 24.1089 24.6559C25.6218 21.966 25.0908 19.0565 24.6714 17.0934C23.9182 13.5684 24.0933 12.9684 24.3589 11.6872C24.6245 10.4059 25.4683 6.40591 25.4683 6.40591C25.5776 5.34341 25.3408 3.38878 23.3901 3.09341C21.2803 2.77393 20.3661 4.39288 20.2183 5.21841L19.0776 11.7965C18.9495 12.1149 18.7044 11.898 18.5309 11.2505C18.0622 9.5005 16.8943 5.9036 16.3437 3.95378C15.8242 2.11419 14.1901 1.90266 13.1259 2.17177C11.4305 2.59806 10.8587 4.43689 11.2179 5.53146C11.5771 6.62603 14.5311 15.5462 14.5311 15.5462Z" fill="url(#paint9_radial_20020_2056)"/>
<path d="M14.5311 15.5462L5.35924 16.6561C5.35924 16.6561 5.81944 20.4486 6.71936 23.3745C8.40347 28.3548 12.4849 30.1499 16.6089 29.5622C20.035 29.0739 22.9052 26.7961 24.1089 24.6559C25.6218 21.966 25.0908 19.0565 24.6714 17.0934C23.9182 13.5684 24.0933 12.9684 24.3589 11.6872C24.6245 10.4059 25.4683 6.40591 25.4683 6.40591C25.5776 5.34341 25.3408 3.38878 23.3901 3.09341C21.2803 2.77393 20.3661 4.39288 20.2183 5.21841L19.0776 11.7965C18.9495 12.1149 18.7044 11.898 18.5309 11.2505C18.0622 9.5005 16.8943 5.9036 16.3437 3.95378C15.8242 2.11419 14.1901 1.90266 13.1259 2.17177C11.4305 2.59806 10.8587 4.43689 11.2179 5.53146C11.5771 6.62603 14.5311 15.5462 14.5311 15.5462Z" fill="url(#paint10_radial_20020_2056)"/>
<path d="M14.5311 15.5462L5.35924 16.6561C5.35924 16.6561 5.81944 20.4486 6.71936 23.3745C8.40347 28.3548 12.4849 30.1499 16.6089 29.5622C20.035 29.0739 22.9052 26.7961 24.1089 24.6559C25.6218 21.966 25.0908 19.0565 24.6714 17.0934C23.9182 13.5684 24.0933 12.9684 24.3589 11.6872C24.6245 10.4059 25.4683 6.40591 25.4683 6.40591C25.5776 5.34341 25.3408 3.38878 23.3901 3.09341C21.2803 2.77393 20.3661 4.39288 20.2183 5.21841L19.0776 11.7965C18.9495 12.1149 18.7044 11.898 18.5309 11.2505C18.0622 9.5005 16.8943 5.9036 16.3437 3.95378C15.8242 2.11419 14.1901 1.90266 13.1259 2.17177C11.4305 2.59806 10.8587 4.43689 11.2179 5.53146C11.5771 6.62603 14.5311 15.5462 14.5311 15.5462Z" fill="url(#paint11_radial_20020_2056)"/>
<path d="M14.5311 15.5462L5.35924 16.6561C5.35924 16.6561 5.81944 20.4486 6.71936 23.3745C8.40347 28.3548 12.4849 30.1499 16.6089 29.5622C20.035 29.0739 22.9052 26.7961 24.1089 24.6559C25.6218 21.966 25.0908 19.0565 24.6714 17.0934C23.9182 13.5684 24.0933 12.9684 24.3589 11.6872C24.6245 10.4059 25.4683 6.40591 25.4683 6.40591C25.5776 5.34341 25.3408 3.38878 23.3901 3.09341C21.2803 2.77393 20.3661 4.39288 20.2183 5.21841L19.0776 11.7965C18.9495 12.1149 18.7044 11.898 18.5309 11.2505C18.0622 9.5005 16.8943 5.9036 16.3437 3.95378C15.8242 2.11419 14.1901 1.90266 13.1259 2.17177C11.4305 2.59806 10.8587 4.43689 11.2179 5.53146C11.5771 6.62603 14.5311 15.5462 14.5311 15.5462Z" fill="url(#paint12_radial_20020_2056)"/>
<path d="M14.5311 15.5462L5.35924 16.6561C5.35924 16.6561 5.81944 20.4486 6.71936 23.3745C8.40347 28.3548 12.4849 30.1499 16.6089 29.5622C20.035 29.0739 22.9052 26.7961 24.1089 24.6559C25.6218 21.966 25.0908 19.0565 24.6714 17.0934C23.9182 13.5684 24.0933 12.9684 24.3589 11.6872C24.6245 10.4059 25.4683 6.40591 25.4683 6.40591C25.5776 5.34341 25.3408 3.38878 23.3901 3.09341C21.2803 2.77393 20.3661 4.39288 20.2183 5.21841L19.0776 11.7965C18.9495 12.1149 18.7044 11.898 18.5309 11.2505C18.0622 9.5005 16.8943 5.9036 16.3437 3.95378C15.8242 2.11419 14.1901 1.90266 13.1259 2.17177C11.4305 2.59806 10.8587 4.43689 11.2179 5.53146C11.5771 6.62603 14.5311 15.5462 14.5311 15.5462Z" fill="url(#paint13_radial_20020_2056)"/>
<path d="M14.5311 15.5462L5.35924 16.6561C5.35924 16.6561 5.81944 20.4486 6.71936 23.3745C8.40347 28.3548 12.4849 30.1499 16.6089 29.5622C20.035 29.0739 22.9052 26.7961 24.1089 24.6559C25.6218 21.966 25.0908 19.0565 24.6714 17.0934C23.9182 13.5684 24.0933 12.9684 24.3589 11.6872C24.6245 10.4059 25.4683 6.40591 25.4683 6.40591C25.5776 5.34341 25.3408 3.38878 23.3901 3.09341C21.2803 2.77393 20.3661 4.39288 20.2183 5.21841L19.0776 11.7965C18.9495 12.1149 18.7044 11.898 18.5309 11.2505C18.0622 9.5005 16.8943 5.9036 16.3437 3.95378C15.8242 2.11419 14.1901 1.90266 13.1259 2.17177C11.4305 2.59806 10.8587 4.43689 11.2179 5.53146C11.5771 6.62603 14.5311 15.5462 14.5311 15.5462Z" fill="url(#paint14_radial_20020_2056)"/>
<path d="M14.5311 15.5462L5.35924 16.6561C5.35924 16.6561 5.81944 20.4486 6.71936 23.3745C8.40347 28.3548 12.4849 30.1499 16.6089 29.5622C20.035 29.0739 22.9052 26.7961 24.1089 24.6559C25.6218 21.966 25.0908 19.0565 24.6714 17.0934C23.9182 13.5684 24.0933 12.9684 24.3589 11.6872C24.6245 10.4059 25.4683 6.40591 25.4683 6.40591C25.5776 5.34341 25.3408 3.38878 23.3901 3.09341C21.2803 2.77393 20.3661 4.39288 20.2183 5.21841L19.0776 11.7965C18.9495 12.1149 18.7044 11.898 18.5309 11.2505C18.0622 9.5005 16.8943 5.9036 16.3437 3.95378C15.8242 2.11419 14.1901 1.90266 13.1259 2.17177C11.4305 2.59806 10.8587 4.43689 11.2179 5.53146C11.5771 6.62603 14.5311 15.5462 14.5311 15.5462Z" fill="url(#paint15_radial_20020_2056)"/>
<path d="M14.5311 15.5462L5.35924 16.6561C5.35924 16.6561 5.81944 20.4486 6.71936 23.3745C8.40347 28.3548 12.4849 30.1499 16.6089 29.5622C20.035 29.0739 22.9052 26.7961 24.1089 24.6559C25.6218 21.966 25.0908 19.0565 24.6714 17.0934C23.9182 13.5684 24.0933 12.9684 24.3589 11.6872C24.6245 10.4059 25.4683 6.40591 25.4683 6.40591C25.5776 5.34341 25.3408 3.38878 23.3901 3.09341C21.2803 2.77393 20.3661 4.39288 20.2183 5.21841L19.0776 11.7965C18.9495 12.1149 18.7044 11.898 18.5309 11.2505C18.0622 9.5005 16.8943 5.9036 16.3437 3.95378C15.8242 2.11419 14.1901 1.90266 13.1259 2.17177C11.4305 2.59806 10.8587 4.43689 11.2179 5.53146C11.5771 6.62603 14.5311 15.5462 14.5311 15.5462Z" fill="url(#paint16_radial_20020_2056)"/>
<path d="M14.5311 15.5462L5.35924 16.6561C5.35924 16.6561 5.81944 20.4486 6.71936 23.3745C8.40347 28.3548 12.4849 30.1499 16.6089 29.5622C20.035 29.0739 22.9052 26.7961 24.1089 24.6559C25.6218 21.966 25.0908 19.0565 24.6714 17.0934C23.9182 13.5684 24.0933 12.9684 24.3589 11.6872C24.6245 10.4059 25.4683 6.40591 25.4683 6.40591C25.5776 5.34341 25.3408 3.38878 23.3901 3.09341C21.2803 2.77393 20.3661 4.39288 20.2183 5.21841L19.0776 11.7965C18.9495 12.1149 18.7044 11.898 18.5309 11.2505C18.0622 9.5005 16.8943 5.9036 16.3437 3.95378C15.8242 2.11419 14.1901 1.90266 13.1259 2.17177C11.4305 2.59806 10.8587 4.43689 11.2179 5.53146C11.5771 6.62603 14.5311 15.5462 14.5311 15.5462Z" fill="url(#paint17_radial_20020_2056)"/>
<path d="M14.5311 15.5462L5.35924 16.6561C5.35924 16.6561 5.81944 20.4486 6.71936 23.3745C8.40347 28.3548 12.4849 30.1499 16.6089 29.5622C20.035 29.0739 22.9052 26.7961 24.1089 24.6559C25.6218 21.966 25.0908 19.0565 24.6714 17.0934C23.9182 13.5684 24.0933 12.9684 24.3589 11.6872C24.6245 10.4059 25.4683 6.40591 25.4683 6.40591C25.5776 5.34341 25.3408 3.38878 23.3901 3.09341C21.2803 2.77393 20.3661 4.39288 20.2183 5.21841L19.0776 11.7965C18.9495 12.1149 18.7044 11.898 18.5309 11.2505C18.0622 9.5005 16.8943 5.9036 16.3437 3.95378C15.8242 2.11419 14.1901 1.90266 13.1259 2.17177C11.4305 2.59806 10.8587 4.43689 11.2179 5.53146C11.5771 6.62603 14.5311 15.5462 14.5311 15.5462Z" fill="url(#paint18_radial_20020_2056)"/>
<path d="M14.5311 15.5462L5.35924 16.6561C5.35924 16.6561 5.81944 20.4486 6.71936 23.3745C8.40347 28.3548 12.4849 30.1499 16.6089 29.5622C20.035 29.0739 22.9052 26.7961 24.1089 24.6559C25.6218 21.966 25.0908 19.0565 24.6714 17.0934C23.9182 13.5684 24.0933 12.9684 24.3589 11.6872C24.6245 10.4059 25.4683 6.40591 25.4683 6.40591C25.5776 5.34341 25.3408 3.38878 23.3901 3.09341C21.2803 2.77393 20.3661 4.39288 20.2183 5.21841L19.0776 11.7965C18.9495 12.1149 18.7044 11.898 18.5309 11.2505C18.0622 9.5005 16.8943 5.9036 16.3437 3.95378C15.8242 2.11419 14.1901 1.90266 13.1259 2.17177C11.4305 2.59806 10.8587 4.43689 11.2179 5.53146C11.5771 6.62603 14.5311 15.5462 14.5311 15.5462Z" fill="url(#paint19_radial_20020_2056)"/>
<path d="M14.5311 15.5462L5.35924 16.6561C5.35924 16.6561 5.81944 20.4486 6.71936 23.3745C8.40347 28.3548 12.4849 30.1499 16.6089 29.5622C20.035 29.0739 22.9052 26.7961 24.1089 24.6559C25.6218 21.966 25.0908 19.0565 24.6714 17.0934C23.9182 13.5684 24.0933 12.9684 24.3589 11.6872C24.6245 10.4059 25.4683 6.40591 25.4683 6.40591C25.5776 5.34341 25.3408 3.38878 23.3901 3.09341C21.2803 2.77393 20.3661 4.39288 20.2183 5.21841L19.0776 11.7965C18.9495 12.1149 18.7044 11.898 18.5309 11.2505C18.0622 9.5005 16.8943 5.9036 16.3437 3.95378C15.8242 2.11419 14.1901 1.90266 13.1259 2.17177C11.4305 2.59806 10.8587 4.43689 11.2179 5.53146C11.5771 6.62603 14.5311 15.5462 14.5311 15.5462Z" fill="url(#paint20_radial_20020_2056)"/>
<path d="M14.5311 15.5462L5.35924 16.6561C5.35924 16.6561 5.81944 20.4486 6.71936 23.3745C8.40347 28.3548 12.4849 30.1499 16.6089 29.5622C20.035 29.0739 22.9052 26.7961 24.1089 24.6559C25.6218 21.966 25.0908 19.0565 24.6714 17.0934C23.9182 13.5684 24.0933 12.9684 24.3589 11.6872C24.6245 10.4059 25.4683 6.40591 25.4683 6.40591C25.5776 5.34341 25.3408 3.38878 23.3901 3.09341C21.2803 2.77393 20.3661 4.39288 20.2183 5.21841L19.0776 11.7965C18.9495 12.1149 18.7044 11.898 18.5309 11.2505C18.0622 9.5005 16.8943 5.9036 16.3437 3.95378C15.8242 2.11419 14.1901 1.90266 13.1259 2.17177C11.4305 2.59806 10.8587 4.43689 11.2179 5.53146C11.5771 6.62603 14.5311 15.5462 14.5311 15.5462Z" fill="url(#paint21_radial_20020_2056)"/>
<path d="M5.08457 14.4755C4.84983 12.6644 5.88957 11.5863 7.32066 11.4025C8.75176 11.2186 9.81479 12.3292 10.0109 13.8425L10.2962 16.044C10.4924 17.5573 9.70273 18.5559 8.27163 18.7398C6.84053 18.9237 5.56602 18.1903 5.36989 16.677L5.08457 14.4755Z" fill="url(#paint22_radial_20020_2056)"/>
<path d="M5.08457 14.4755C4.84983 12.6644 5.88957 11.5863 7.32066 11.4025C8.75176 11.2186 9.81479 12.3292 10.0109 13.8425L10.2962 16.044C10.4924 17.5573 9.70273 18.5559 8.27163 18.7398C6.84053 18.9237 5.56602 18.1903 5.36989 16.677L5.08457 14.4755Z" fill="url(#paint23_radial_20020_2056)"/>
<path d="M5.08457 14.4755C4.84983 12.6644 5.88957 11.5863 7.32066 11.4025C8.75176 11.2186 9.81479 12.3292 10.0109 13.8425L10.2962 16.044C10.4924 17.5573 9.70273 18.5559 8.27163 18.7398C6.84053 18.9237 5.56602 18.1903 5.36989 16.677L5.08457 14.4755Z" fill="url(#paint24_radial_20020_2056)"/>
<path d="M5.08457 14.4755C4.84983 12.6644 5.88957 11.5863 7.32066 11.4025C8.75176 11.2186 9.81479 12.3292 10.0109 13.8425L10.2962 16.044C10.4924 17.5573 9.70273 18.5559 8.27163 18.7398C6.84053 18.9237 5.56602 18.1903 5.36989 16.677L5.08457 14.4755Z" fill="url(#paint25_radial_20020_2056)"/>
<path d="M5.08457 14.4755C4.84983 12.6644 5.88957 11.5863 7.32066 11.4025C8.75176 11.2186 9.81479 12.3292 10.0109 13.8425L10.2962 16.044C10.4924 17.5573 9.70273 18.5559 8.27163 18.7398C6.84053 18.9237 5.56602 18.1903 5.36989 16.677L5.08457 14.4755Z" fill="url(#paint26_radial_20020_2056)"/>
<path d="M8.98507 12.874C8.56283 11.0474 9.71918 9.88243 11.1553 9.65659C12.5915 9.43075 13.8663 10.1481 14.1869 12.1724L14.5307 14.8443C14.8071 16.5894 13.7429 17.9746 12.5066 18.169C10.6791 18.4564 9.7442 17.5106 9.46783 15.7655L8.98507 12.874Z" fill="url(#paint27_radial_20020_2056)"/>
<path d="M8.98507 12.874C8.56283 11.0474 9.71918 9.88243 11.1553 9.65659C12.5915 9.43075 13.8663 10.1481 14.1869 12.1724L14.5307 14.8443C14.8071 16.5894 13.7429 17.9746 12.5066 18.169C10.6791 18.4564 9.7442 17.5106 9.46783 15.7655L8.98507 12.874Z" fill="url(#paint28_radial_20020_2056)"/>
<path d="M18.3512 20.1715C20.5719 20.051 21.5557 21.1374 22.464 23.3166C23.3139 25.3559 25.8937 21.5134 24.9234 18.8438C23.6991 15.4754 20.7111 14.2905 17.3114 15.0392C15.5082 15.4363 15.2623 17.0567 15.3978 17.8218C15.5334 18.5869 16.1305 20.292 18.3512 20.1715Z" fill="#FFC742"/>
<path d="M18.3512 20.1715C20.5719 20.051 21.5557 21.1374 22.464 23.3166C23.3139 25.3559 25.8937 21.5134 24.9234 18.8438C23.6991 15.4754 20.7111 14.2905 17.3114 15.0392C15.5082 15.4363 15.2623 17.0567 15.3978 17.8218C15.5334 18.5869 16.1305 20.292 18.3512 20.1715Z" fill="url(#paint29_radial_20020_2056)"/>
<path d="M18.3512 20.1715C20.5719 20.051 21.5557 21.1374 22.464 23.3166C23.3139 25.3559 25.8937 21.5134 24.9234 18.8438C23.6991 15.4754 20.7111 14.2905 17.3114 15.0392C15.5082 15.4363 15.2623 17.0567 15.3978 17.8218C15.5334 18.5869 16.1305 20.292 18.3512 20.1715Z" fill="url(#paint30_radial_20020_2056)"/>
<path d="M18.3512 20.1715C20.5719 20.051 21.5557 21.1374 22.464 23.3166C23.3139 25.3559 25.8937 21.5134 24.9234 18.8438C23.6991 15.4754 20.7111 14.2905 17.3114 15.0392C15.5082 15.4363 15.2623 17.0567 15.3978 17.8218C15.5334 18.5869 16.1305 20.292 18.3512 20.1715Z" fill="url(#paint31_radial_20020_2056)"/>
<path d="M18.3512 20.1715C20.5719 20.051 21.5557 21.1374 22.464 23.3166C23.3139 25.3559 25.8937 21.5134 24.9234 18.8438C23.6991 15.4754 20.7111 14.2905 17.3114 15.0392C15.5082 15.4363 15.2623 17.0567 15.3978 17.8218C15.5334 18.5869 16.1305 20.292 18.3512 20.1715Z" fill="url(#paint32_radial_20020_2056)"/>
<path d="M18.3512 20.1715C20.5719 20.051 21.5557 21.1374 22.464 23.3166C23.3139 25.3559 25.8937 21.5134 24.9234 18.8438C23.6991 15.4754 20.7111 14.2905 17.3114 15.0392C15.5082 15.4363 15.2623 17.0567 15.3978 17.8218C15.5334 18.5869 16.1305 20.292 18.3512 20.1715Z" fill="url(#paint33_radial_20020_2056)"/>
<path d="M18.3512 20.1715C20.5719 20.051 21.5557 21.1374 22.464 23.3166C23.3139 25.3559 25.8937 21.5134 24.9234 18.8438C23.6991 15.4754 20.7111 14.2905 17.3114 15.0392C15.5082 15.4363 15.2623 17.0567 15.3978 17.8218C15.5334 18.5869 16.1305 20.292 18.3512 20.1715Z" fill="url(#paint34_radial_20020_2056)"/>
<defs>
<radialGradient id="paint0_radial_20020_2056" cx="0" cy="0" r="1" gradientUnits="userSpaceOnUse" gradientTransform="translate(14.8743 24.3744) rotate(-76.7043) scale(22.2848 17.6157)">
<stop stop-color="#FFB553"/>
<stop offset="0.925314" stop-color="#FCB936"/>
</radialGradient>
<radialGradient id="paint1_radial_20020_2056" cx="0" cy="0" r="1" gradientUnits="userSpaceOnUse" gradientTransform="translate(8.81183 17.5619) rotate(-9.90418) scale(3.99707 2.97637)">
<stop offset="0.33643" stop-color="#A24301"/>
<stop offset="1" stop-color="#D8801C" stop-opacity="0"/>
</radialGradient>
<radialGradient id="paint2_radial_20020_2056" cx="0" cy="0" r="1" gradientUnits="userSpaceOnUse" gradientTransform="translate(11.6243 16.8119) rotate(-7.12501) scale(3.52724 2.62652)">
<stop offset="0.393254" stop-color="#B7580B"/>
<stop offset="1" stop-color="#B7580B" stop-opacity="0"/>
</radialGradient>
<radialGradient id="paint3_radial_20020_2056" cx="0" cy="0" r="1" gradientUnits="userSpaceOnUse" gradientTransform="translate(17.9993 17.9369) rotate(-4.03772) scale(5.32572 3.05359)">
<stop offset="0.52166" stop-color="#C96D26"/>
<stop offset="1" stop-color="#C96D26" stop-opacity="0"/>
</radialGradient>
<radialGradient id="paint4_radial_20020_2056" cx="0" cy="0" r="1" gradientUnits="userSpaceOnUse" gradientTransform="translate(19.4993 19.1244) rotate(18.8119) scale(6.00846 3.44506)">
<stop offset="0.364657" stop-color="#E87A4C"/>
<stop offset="1" stop-color="#E87A4C" stop-opacity="0"/>
</radialGradient>
<radialGradient id="paint5_radial_20020_2056" cx="0" cy="0" r="1" gradientUnits="userSpaceOnUse" gradientTransform="translate(18.4368 6.93689) rotate(100.197) scale(29.6559 18.6614)">
<stop offset="0.715801" stop-color="#F47E80" stop-opacity="0"/>
<stop offset="0.805739" stop-color="#F47E80"/>
</radialGradient>
<radialGradient id="paint6_radial_20020_2056" cx="0" cy="0" r="1" gradientUnits="userSpaceOnUse" gradientTransform="translate(6.06183 24.2494) rotate(75.4008) scale(13.8858 5.23175)">
<stop offset="0.0570815" stop-color="#DA8A3D"/>
<stop offset="1" stop-color="#F19F2B" stop-opacity="0"/>
</radialGradient>
<radialGradient id="paint7_radial_20020_2056" cx="0" cy="0" r="1" gradientUnits="userSpaceOnUse" gradientTransform="translate(19.4368 22.5619) rotate(97.3057) scale(2.45745 4.40952)">
<stop stop-color="#FFBE53"/>
<stop offset="1" stop-color="#FFBE53" stop-opacity="0"/>
</radialGradient>
<radialGradient id="paint8_radial_20020_2056" cx="0" cy="0" r="1" gradientUnits="userSpaceOnUse" gradientTransform="translate(23.9368 6.37439) rotate(101.503) scale(18.1776 3.28336)">
<stop stop-color="#FFE263"/>
<stop offset="0.724186" stop-color="#FFE263" stop-opacity="0"/>
</radialGradient>
<radialGradient id="paint9_radial_20020_2056" cx="0" cy="0" r="1" gradientUnits="userSpaceOnUse" gradientTransform="translate(22.9368 16.1244) rotate(78.4654) scale(6.25125 3.92345)">
<stop offset="0.0744322" stop-color="#FFED67"/>
<stop offset="1" stop-color="#FFED67" stop-opacity="0"/>
</radialGradient>
<radialGradient id="paint10_radial_20020_2056" cx="0" cy="0" r="1" gradientUnits="userSpaceOnUse" gradientTransform="translate(15.1868 5.18689) rotate(72.2485) scale(19.8842 4.07161)">
<stop stop-color="#FFE263"/>
<stop offset="0.724186" stop-color="#FFE263" stop-opacity="0"/>
</radialGradient>
<radialGradient id="paint11_radial_20020_2056" cx="0" cy="0" r="1" gradientUnits="userSpaceOnUse" gradientTransform="translate(13.1556 11.9056) rotate(74.3159) scale(6.58908 2.74808)">
<stop offset="0.293288" stop-color="#C77C3C"/>
<stop offset="0.633272" stop-color="#E29438" stop-opacity="0"/>
</radialGradient>
<radialGradient id="paint12_radial_20020_2056" cx="0" cy="0" r="1" gradientUnits="userSpaceOnUse" gradientTransform="translate(10.8118 8.31189) rotate(74.162) scale(9.16025 3.82853)">
<stop stop-color="#E29438"/>
<stop offset="1" stop-color="#E29438" stop-opacity="0"/>
</radialGradient>
<radialGradient id="paint13_radial_20020_2056" cx="0" cy="0" r="1" gradientUnits="userSpaceOnUse" gradientTransform="translate(19.6556 5.62439) rotate(96.6987) scale(9.37651 2.35691)">
<stop offset="0.291673" stop-color="#D9992F"/>
<stop offset="1" stop-color="#D9992F" stop-opacity="0"/>
</radialGradient>
<radialGradient id="paint14_radial_20020_2056" cx="0" cy="0" r="1" gradientUnits="userSpaceOnUse" gradientTransform="translate(16.8118 10.3119) rotate(74.876) scale(4.79094 1.39031)">
<stop stop-color="#FFE161"/>
<stop offset="1" stop-color="#FFE161" stop-opacity="0"/>
</radialGradient>
<radialGradient id="paint15_radial_20020_2056" cx="0" cy="0" r="1" gradientUnits="userSpaceOnUse" gradientTransform="translate(23.2493 8.99939) rotate(101.712) scale(5.23398 1.51888)">
<stop stop-color="#FFE161"/>
<stop offset="1" stop-color="#FFE161" stop-opacity="0"/>
</radialGradient>
<radialGradient id="paint16_radial_20020_2056" cx="0" cy="0" r="1" gradientUnits="userSpaceOnUse" gradientTransform="translate(18.3118 14.6244) rotate(91.0051) scale(3.56305 4.67948)">
<stop stop-color="#FFCA30"/>
<stop offset="1" stop-color="#FFCA30" stop-opacity="0"/>
</radialGradient>
<radialGradient id="paint17_radial_20020_2056" cx="0" cy="0" r="1" gradientUnits="userSpaceOnUse" gradientTransform="translate(18.8743 9.78064) rotate(90) scale(2.59375 0.947428)">
<stop offset="0.553966" stop-color="#C18745"/>
<stop offset="0.963855" stop-color="#C18745" stop-opacity="0"/>
</radialGradient>
<radialGradient id="paint18_radial_20020_2056" cx="0" cy="0" r="1" gradientUnits="userSpaceOnUse" gradientTransform="translate(12.5618 0.499391) rotate(139.737) scale(8.02657 3.56736)">
<stop offset="0.101032" stop-color="#DDA447"/>
<stop offset="1" stop-color="#DDA447" stop-opacity="0"/>
</radialGradient>
<radialGradient id="paint19_radial_20020_2056" cx="0" cy="0" r="1" gradientUnits="userSpaceOnUse" gradientTransform="translate(21.8118 2.56189) rotate(148.815) scale(2.77615 1.23385)">
<stop offset="0.101032" stop-color="#DDA447"/>
<stop offset="1" stop-color="#DDA447" stop-opacity="0"/>
</radialGradient>
<radialGradient id="paint20_radial_20020_2056" cx="0" cy="0" r="1" gradientUnits="userSpaceOnUse" gradientTransform="translate(24.3118 4.99939) rotate(104.421) scale(2.25866 1.78543)">
<stop stop-color="#FFE15F"/>
<stop offset="1" stop-color="#FFE15F" stop-opacity="0"/>
</radialGradient>
<radialGradient id="paint21_radial_20020_2056" cx="0" cy="0" r="1" gradientUnits="userSpaceOnUse" gradientTransform="translate(14.9368 3.93689) rotate(90) scale(2.1875 1.72917)">
<stop stop-color="#FFE15F"/>
<stop offset="1" stop-color="#FFE15F" stop-opacity="0"/>
</radialGradient>
<radialGradient id="paint22_radial_20020_2056" cx="0" cy="0" r="1" gradientUnits="userSpaceOnUse" gradientTransform="translate(8.18842 14.6241) rotate(171.455) scale(2.89933 6.95086)">
<stop stop-color="#FFC458"/>
<stop offset="0.510508" stop-color="#F7B225"/>
<stop offset="1" stop-color="#E8983F"/>
</radialGradient>
<radialGradient id="paint23_radial_20020_2056" cx="0" cy="0" r="1" gradientUnits="userSpaceOnUse" gradientTransform="translate(8.12592 12.3741) rotate(92.7244) scale(9.63589 7.00694)">
<stop offset="0.478145" stop-color="#EC875C" stop-opacity="0"/>
<stop offset="0.708865" stop-color="#EC875C"/>
</radialGradient>
<radialGradient id="paint24_radial_20020_2056" cx="0" cy="0" r="1" gradientUnits="userSpaceOnUse" gradientTransform="translate(9.40717 12.1553) rotate(100.02) scale(9.99622 8.35797)">
<stop offset="0.621335" stop-color="#EC875C" stop-opacity="0"/>
<stop offset="0.704085" stop-color="#DD7D7B"/>
</radialGradient>
<radialGradient id="paint25_radial_20020_2056" cx="0" cy="0" r="1" gradientUnits="userSpaceOnUse" gradientTransform="translate(9.68842 14.1866) rotate(80.3083) scale(5.45282 1.38597)">
<stop offset="0.405928" stop-color="#DE9210"/>
<stop offset="1" stop-color="#DE9210" stop-opacity="0"/>
</radialGradient>
<radialGradient id="paint26_radial_20020_2056" cx="0" cy="0" r="1" gradientUnits="userSpaceOnUse" gradientTransform="translate(10.1259 14.1866) rotate(80.8195) scale(6.26779 1.30318)">
<stop offset="0.66312" stop-color="#BD7019"/>
<stop offset="1" stop-color="#BD7019" stop-opacity="0"/>
</radialGradient>
<radialGradient id="paint27_radial_20020_2056" cx="0" cy="0" r="1" gradientUnits="userSpaceOnUse" gradientTransform="translate(13.1255 13.2508) rotate(170.077) scale(3.87041 10.213)">
<stop stop-color="#FFEB65"/>
<stop offset="0.510508" stop-color="#FFC12C"/>
<stop offset="1" stop-color="#EA9A18"/>
</radialGradient>
<radialGradient id="paint28_radial_20020_2056" cx="0" cy="0" r="1" gradientUnits="userSpaceOnUse" gradientTransform="translate(12.1617 10.7558) rotate(94.0901) scale(11.4617 8.28783)">
<stop offset="0.44754" stop-color="#EC875C" stop-opacity="0"/>
<stop offset="0.694434" stop-color="#EC875C"/>
</radialGradient>
<radialGradient id="paint29_radial_20020_2056" cx="0" cy="0" r="1" gradientUnits="userSpaceOnUse" gradientTransform="translate(20.0621 21.0621) rotate(78.6939) scale(6.75427 6.89694)">
<stop offset="0.432432" stop-color="#FFCF46"/>
<stop offset="0.63069" stop-color="#FFE565"/>
<stop offset="0.713514" stop-color="#FFE565"/>
<stop offset="0.885914" stop-color="#FFD43B"/>
</radialGradient>
<radialGradient id="paint30_radial_20020_2056" cx="0" cy="0" r="1" gradientUnits="userSpaceOnUse" gradientTransform="translate(23.7496 16.8121) rotate(-59.0978) scale(9.97908 11.118)">
<stop offset="0.475974" stop-color="#ECA120" stop-opacity="0"/>
<stop offset="0.749853" stop-color="#ECA120"/>
</radialGradient>
<radialGradient id="paint31_radial_20020_2056" cx="0" cy="0" r="1" gradientUnits="userSpaceOnUse" gradientTransform="translate(22.483 22.7972) rotate(79.9567) scale(4.62405 4.64742)">
<stop offset="0.462765" stop-color="#FFB943"/>
<stop offset="1" stop-color="#FFC140" stop-opacity="0"/>
</radialGradient>
<radialGradient id="paint32_radial_20020_2056" cx="0" cy="0" r="1" gradientUnits="userSpaceOnUse" gradientTransform="translate(18.2496 22.1871) rotate(51.9272) scale(4.76355 5.74515)">
<stop offset="0.263326" stop-color="#F8905D"/>
<stop offset="1" stop-color="#F8905D" stop-opacity="0"/>
</radialGradient>
<radialGradient id="paint33_radial_20020_2056" cx="0" cy="0" r="1" gradientUnits="userSpaceOnUse" gradientTransform="translate(20.3815 21.5621) rotate(53.5085) scale(2.72096 2.52236)">
<stop stop-color="#F58A38"/>
<stop offset="1" stop-color="#F58A38" stop-opacity="0"/>
</radialGradient>
<radialGradient id="paint34_radial_20020_2056" cx="0" cy="0" r="1" gradientUnits="userSpaceOnUse" gradientTransform="translate(22.3121 22.5621) rotate(90) scale(2.47266 5.12822)">
<stop stop-color="#FDB64F"/>
<stop offset="1" stop-color="#FDB64F" stop-opacity="0"/>
</radialGradient>
</defs>
</svg>
