<svg width="32" height="32" viewBox="0 0 32 32" fill="none" xmlns="http://www.w3.org/2000/svg">
<path fill-rule="evenodd" clip-rule="evenodd" d="M7.2142 4.75C7.39531 4.78953 7.58764 4.82852 7.79115 4.86668C9.8468 5.25212 12.7499 5.5 16 5.5C19.2501 5.5 22.1532 5.25212 24.2088 4.86668C24.4124 4.82852 24.6047 4.78953 24.7858 4.75C24.6047 4.71047 24.4124 4.67148 24.2088 4.63332C22.1532 4.24788 19.2501 4 16 4C12.7499 4 9.8468 4.24788 7.79115 4.63332C7.58764 4.67148 7.39531 4.71047 7.2142 4.75ZM7.23829 1.6847C9.52578 1.2558 12.6227 1 16 1C19.3773 1 22.4742 1.2558 24.7617 1.6847C25.8931 1.89684 26.9026 2.16499 27.6649 2.5029C28.0408 2.66956 28.4408 2.88937 28.7696 3.19061C29.0955 3.48925 29.5 4.01205 29.5 4.75C29.5 5.48795 29.0955 6.01075 28.7696 6.30939C28.4408 6.61063 28.0408 6.83044 27.6649 6.9971C26.9026 7.33501 25.8931 7.60316 24.7617 7.8153C22.4742 8.2442 19.3773 8.5 16 8.5C12.6227 8.5 9.52578 8.2442 7.23829 7.8153C6.10686 7.60316 5.09739 7.33501 4.33512 6.9971C3.95916 6.83044 3.5592 6.61063 3.23044 6.30939C2.90451 6.01075 2.5 5.48795 2.5 4.75C2.5 4.01205 2.90451 3.48925 3.23044 3.19061C3.5592 2.88937 3.95916 2.66956 4.33512 2.5029C5.09739 2.16499 6.10686 1.89684 7.23829 1.6847Z" fill="url(#paint0_linear_23_441)"/>
<path fill-rule="evenodd" clip-rule="evenodd" d="M7.2142 4.75C7.39531 4.78953 7.58764 4.82852 7.79115 4.86668C9.8468 5.25212 12.7499 5.5 16 5.5C19.2501 5.5 22.1532 5.25212 24.2088 4.86668C24.4124 4.82852 24.6047 4.78953 24.7858 4.75C24.6047 4.71047 24.4124 4.67148 24.2088 4.63332C22.1532 4.24788 19.2501 4 16 4C12.7499 4 9.8468 4.24788 7.79115 4.63332C7.58764 4.67148 7.39531 4.71047 7.2142 4.75ZM7.23829 1.6847C9.52578 1.2558 12.6227 1 16 1C19.3773 1 22.4742 1.2558 24.7617 1.6847C25.8931 1.89684 26.9026 2.16499 27.6649 2.5029C28.0408 2.66956 28.4408 2.88937 28.7696 3.19061C29.0955 3.48925 29.5 4.01205 29.5 4.75C29.5 5.48795 29.0955 6.01075 28.7696 6.30939C28.4408 6.61063 28.0408 6.83044 27.6649 6.9971C26.9026 7.33501 25.8931 7.60316 24.7617 7.8153C22.4742 8.2442 19.3773 8.5 16 8.5C12.6227 8.5 9.52578 8.2442 7.23829 7.8153C6.10686 7.60316 5.09739 7.33501 4.33512 6.9971C3.95916 6.83044 3.5592 6.61063 3.23044 6.30939C2.90451 6.01075 2.5 5.48795 2.5 4.75C2.5 4.01205 2.90451 3.48925 3.23044 3.19061C3.5592 2.88937 3.95916 2.66956 4.33512 2.5029C5.09739 2.16499 6.10686 1.89684 7.23829 1.6847Z" fill="url(#paint1_radial_23_441)"/>
<path d="M15.9989 29.9978C25.3333 29.9978 29.9978 23.7303 29.9978 15.9989C29.9978 8.26751 25.3333 2 15.9989 2C6.66443 2 2 8.26751 2 15.9989C2 23.7303 6.66443 29.9978 15.9989 29.9978Z" fill="url(#paint2_radial_23_441)"/>
<path d="M15.9989 29.9978C25.3333 29.9978 29.9978 23.7303 29.9978 15.9989C29.9978 8.26751 25.3333 2 15.9989 2C6.66443 2 2 8.26751 2 15.9989C2 23.7303 6.66443 29.9978 15.9989 29.9978Z" fill="url(#paint3_radial_23_441)"/>
<path d="M15.9989 29.9978C25.3333 29.9978 29.9978 23.7303 29.9978 15.9989C29.9978 8.26751 25.3333 2 15.9989 2C6.66443 2 2 8.26751 2 15.9989C2 23.7303 6.66443 29.9978 15.9989 29.9978Z" fill="url(#paint4_radial_23_441)" fill-opacity="0.6"/>
<path d="M15.9989 29.9978C25.3333 29.9978 29.9978 23.7303 29.9978 15.9989C29.9978 8.26751 25.3333 2 15.9989 2C6.66443 2 2 8.26751 2 15.9989C2 23.7303 6.66443 29.9978 15.9989 29.9978Z" fill="url(#paint5_radial_23_441)"/>
<path d="M15.9989 29.9978C25.3333 29.9978 29.9978 23.7303 29.9978 15.9989C29.9978 8.26751 25.3333 2 15.9989 2C6.66443 2 2 8.26751 2 15.9989C2 23.7303 6.66443 29.9978 15.9989 29.9978Z" fill="url(#paint6_radial_23_441)"/>
<path d="M15.9989 29.9978C25.3333 29.9978 29.9978 23.7303 29.9978 15.9989C29.9978 8.26751 25.3333 2 15.9989 2C6.66443 2 2 8.26751 2 15.9989C2 23.7303 6.66443 29.9978 15.9989 29.9978Z" fill="url(#paint7_radial_23_441)"/>
<path d="M15.9989 29.9978C25.3333 29.9978 29.9978 23.7303 29.9978 15.9989C29.9978 8.26751 25.3333 2 15.9989 2C6.66443 2 2 8.26751 2 15.9989C2 23.7303 6.66443 29.9978 15.9989 29.9978Z" fill="url(#paint8_radial_23_441)"/>
<path fill-rule="evenodd" clip-rule="evenodd" d="M22.7719 13.5649C22.5633 13.2853 22.2176 12.995 21.5388 13.0001C20.852 13.0051 20.5109 13.2989 20.3105 13.5712C20.1997 13.7217 20.127 13.8766 20.0825 13.995C20.0608 14.0529 20.0473 14.0983 20.04 14.1248C20.0368 14.1366 20.035 14.1444 20.0342 14.1475C19.9238 14.6832 19.4024 15.0316 18.8641 14.9269C18.322 14.8216 17.9679 14.2967 18.0732 13.7545C18.1101 13.5999 18.1101 13.5999 18.1101 13.5999C18.1316 13.5209 18.1638 13.4154 18.2101 13.2922C18.3016 13.0482 18.4539 12.7197 18.6997 12.3858C19.2122 11.6894 20.1093 11.0106 21.524 11.0001C22.9468 10.9896 23.855 11.672 24.375 12.369C24.6246 12.7036 24.7811 13.0338 24.8757 13.2789C24.9236 13.4028 24.9572 13.5087 24.9797 13.5881C25.1128 14.0569 24.9237 14.7834 24.2421 14.9246C23.7049 15.0359 23.1791 14.6937 23.0623 14.159C23.0615 14.1558 23.0594 14.1473 23.0557 14.1343C23.0478 14.1064 23.0332 14.0594 23.0101 13.9996C22.9629 13.8775 22.8865 13.7185 22.7719 13.5649Z" fill="url(#paint9_radial_23_441)"/>
<path fill-rule="evenodd" clip-rule="evenodd" d="M11.7407 13.5649C11.5321 13.2853 11.1864 12.995 10.5076 13.0001C9.8208 13.0051 9.47962 13.2989 9.27924 13.5712C9.1685 13.7217 9.09571 13.8766 9.05128 13.995C9.02955 14.0529 9.01601 14.0983 9.00879 14.1248C9.00557 14.1366 9.0037 14.1444 9.00298 14.1475C8.89254 14.6832 8.3712 15.0316 7.83286 14.9269C7.29072 14.8216 6.93663 14.2967 7.04199 13.7545C7.07889 13.5999 7.07889 13.5999 7.07889 13.5999C7.10039 13.5209 7.13257 13.4154 7.17883 13.2922C7.27039 13.0482 7.4227 12.7197 7.6684 12.3858C8.18091 11.6894 9.07801 11.0106 10.4928 11.0001C11.9156 10.9896 12.8238 11.672 13.3437 12.369C13.5934 12.7036 13.7498 13.0338 13.8445 13.2789C13.8923 13.4028 13.9259 13.5087 13.9484 13.5881C14.0815 14.0569 13.8924 14.7834 13.2109 14.9246C12.6736 15.0359 12.1478 14.6937 12.0311 14.159C12.0303 14.1558 12.0282 14.1473 12.0245 14.1343C12.0165 14.1064 12.0019 14.0594 11.9789 13.9996C11.9317 13.8775 11.8553 13.7185 11.7407 13.5649Z" fill="url(#paint10_radial_23_441)"/>
<path fill-rule="evenodd" clip-rule="evenodd" d="M12 18C12.5523 18 13 18.4477 13 19C13 19.5066 13.1602 20.2889 13.6115 20.9157C14.0261 21.4915 14.7259 22 16 22C17.2741 22 17.9739 21.4915 18.3885 20.9157C18.8398 20.2889 19 19.5066 19 19C19 18.4477 19.4477 18 20 18C20.5523 18 21 18.4477 21 19C21 19.8267 20.7602 21.0445 20.0115 22.0843C19.2261 23.1751 17.9259 24 16 24C14.0741 24 12.7739 23.1751 11.9885 22.0843C11.2398 21.0445 11 19.8267 11 19C11 18.4477 11.4477 18 12 18Z" fill="url(#paint11_radial_23_441)"/>
<path fill-rule="evenodd" clip-rule="evenodd" d="M12 18C12.5523 18 13 18.4477 13 19C13 19.5066 13.1602 20.2889 13.6115 20.9157C14.0261 21.4915 14.7259 22 16 22C17.2741 22 17.9739 21.4915 18.3885 20.9157C18.8398 20.2889 19 19.5066 19 19C19 18.4477 19.4477 18 20 18C20.5523 18 21 18.4477 21 19C21 19.8267 20.7602 21.0445 20.0115 22.0843C19.2261 23.1751 17.9259 24 16 24C14.0741 24 12.7739 23.1751 11.9885 22.0843C11.2398 21.0445 11 19.8267 11 19C11 18.4477 11.4477 18 12 18Z" fill="url(#paint12_radial_23_441)"/>
<path fill-rule="evenodd" clip-rule="evenodd" d="M3.58545 8.87308C3.76914 9.03039 3.95754 9.1651 4.13427 9.27827C4.92402 9.78396 5.96733 10.183 7.12271 10.4959C9.45512 11.1276 12.5932 11.5 16.0001 11.5C19.4071 11.5 22.5451 11.1276 24.8775 10.4959C26.0329 10.183 27.0762 9.78396 27.866 9.27827C28.0422 9.16542 28.23 9.03115 28.4132 8.87442C27.7682 7.60018 26.9262 6.45596 25.8872 5.4834C25.2541 5.66662 24.6125 5.81191 24.0984 5.90114C25.1119 6.17598 25.8242 6.47668 26.2482 6.74818L26.2511 6.75L26.2482 6.75182C25.8235 7.02378 25.1095 7.32504 24.0933 7.60026C22.0825 8.14483 19.2206 8.5 16.0001 8.5C12.7796 8.5 9.9177 8.14483 7.90696 7.60026C6.89077 7.32504 6.17672 7.02378 5.752 6.75182L5.74916 6.75L5.75201 6.74818C6.16147 6.48598 6.83987 6.19655 7.79869 5.92948C7.31166 5.85527 6.67802 5.72592 6.0317 5.55817C5.02935 6.51408 4.21395 7.63189 3.58545 8.87308ZM5.44075 6.99946C5.44075 6.99946 5.44277 6.99515 5.44957 6.98683C5.44461 6.99535 5.44075 6.99946 5.44075 6.99946ZM26.5595 6.99946C26.5595 6.99946 26.5556 6.99535 26.5507 6.98683C26.5575 6.99515 26.5595 6.99946 26.5595 6.99946ZM26.5507 6.51317C26.5556 6.50465 26.5595 6.50054 26.5595 6.50054C26.5595 6.50054 26.5575 6.50485 26.5507 6.51317ZM5.44957 6.51317C5.44277 6.50485 5.44075 6.50054 5.44075 6.50054C5.44075 6.50054 5.44461 6.50465 5.44957 6.51317Z" fill="url(#paint13_radial_23_441)"/>
<path d="M3.12336 3.29456C3.85261 4.18731 7.59851 4.99999 8.5 4.99999H8.57107C10.5521 5.30835 13.1419 5.50004 16 5.50004C18.9216 5.50004 21.5628 5.29974 23.56 4.97927C24.9298 4.83139 28.5 3.91569 28.5 2.99999V2.97144C28.5936 3.03932 28.684 3.11223 28.7696 3.19065C29.0955 3.48929 29.5 4.01209 29.5 4.75004C29.5 5.48799 29.0955 6.01079 28.7696 6.30944C28.4408 6.61068 28.0408 6.83048 27.6649 6.99714C26.9026 7.33505 25.8931 7.6032 24.7617 7.81534C22.4742 8.24425 19.3773 8.50004 16 8.50004C12.6227 8.50004 9.52578 8.24425 7.23829 7.81534C6.10686 7.6032 5.09739 7.33505 4.33512 6.99714C3.95916 6.83048 3.5592 6.61068 3.23044 6.30944C2.90451 6.01079 2.5 5.48799 2.5 4.75004C2.5 4.09131 2.82233 3.60401 3.12336 3.29456Z" fill="url(#paint14_radial_23_441)"/>
<path d="M3.12336 3.29456C3.85261 4.18731 7.59851 4.99999 8.5 4.99999H8.57107C10.5521 5.30835 13.1419 5.50004 16 5.50004C18.9216 5.50004 21.5628 5.29974 23.56 4.97927C24.9298 4.83139 28.5 3.91569 28.5 2.99999V2.97144C28.5936 3.03932 28.684 3.11223 28.7696 3.19065C29.0955 3.48929 29.5 4.01209 29.5 4.75004C29.5 5.48799 29.0955 6.01079 28.7696 6.30944C28.4408 6.61068 28.0408 6.83048 27.6649 6.99714C26.9026 7.33505 25.8931 7.6032 24.7617 7.81534C22.4742 8.24425 19.3773 8.50004 16 8.50004C12.6227 8.50004 9.52578 8.24425 7.23829 7.81534C6.10686 7.6032 5.09739 7.33505 4.33512 6.99714C3.95916 6.83048 3.5592 6.61068 3.23044 6.30944C2.90451 6.01079 2.5 5.48799 2.5 4.75004C2.5 4.09131 2.82233 3.60401 3.12336 3.29456Z" fill="url(#paint15_radial_23_441)"/>
<defs>
<linearGradient id="paint0_linear_23_441" x1="16" y1="1" x2="16" y2="4.5" gradientUnits="userSpaceOnUse">
<stop stop-color="#3173EC"/>
<stop offset="1" stop-color="#3A54E1"/>
</linearGradient>
<radialGradient id="paint1_radial_23_441" cx="0" cy="0" r="1" gradientUnits="userSpaceOnUse" gradientTransform="translate(9.5 7.5) rotate(-105.945) scale(7.28011 11.995)">
<stop offset="0.482485" stop-color="#5468DB"/>
<stop offset="0.734708" stop-color="#5292FF"/>
<stop offset="0.988246" stop-color="#486FFF" stop-opacity="0"/>
</radialGradient>
<radialGradient id="paint2_radial_23_441" cx="0" cy="0" r="1" gradientUnits="userSpaceOnUse" gradientTransform="translate(25.5 9) rotate(131.878) scale(38.9487)">
<stop stop-color="#FFF478"/>
<stop offset="0.474827" stop-color="#FFB02E"/>
<stop offset="1" stop-color="#F70A8D"/>
</radialGradient>
<radialGradient id="paint3_radial_23_441" cx="0" cy="0" r="1" gradientUnits="userSpaceOnUse" gradientTransform="translate(16 12.5) rotate(101.31) scale(17.8466 22.8581)">
<stop offset="0.787821" stop-color="#F59639" stop-opacity="0"/>
<stop offset="0.972509" stop-color="#FF7DCE"/>
</radialGradient>
<radialGradient id="paint4_radial_23_441" cx="0" cy="0" r="1" gradientUnits="userSpaceOnUse" gradientTransform="translate(18 14) rotate(135) scale(41.0122)">
<stop offset="0.314853" stop-opacity="0"/>
<stop offset="1"/>
</radialGradient>
<radialGradient id="paint5_radial_23_441" cx="0" cy="0" r="1" gradientUnits="userSpaceOnUse" gradientTransform="translate(16 17) rotate(77.692) scale(28.1469)">
<stop offset="0.507903" stop-color="#7D6133" stop-opacity="0"/>
<stop offset="1" stop-color="#715B32"/>
</radialGradient>
<radialGradient id="paint6_radial_23_441" cx="0" cy="0" r="1" gradientUnits="userSpaceOnUse" gradientTransform="translate(16.5 16.5) rotate(55.7131) scale(13.3135 9.65032)">
<stop stop-color="#FFB849"/>
<stop offset="1" stop-color="#FFB847" stop-opacity="0"/>
</radialGradient>
<radialGradient id="paint7_radial_23_441" cx="0" cy="0" r="1" gradientUnits="userSpaceOnUse" gradientTransform="translate(20.5 18) rotate(9.86581) scale(11.6726)">
<stop stop-color="#FFA64B"/>
<stop offset="0.900412" stop-color="#FFAE46" stop-opacity="0"/>
</radialGradient>
<radialGradient id="paint8_radial_23_441" cx="0" cy="0" r="1" gradientUnits="userSpaceOnUse" gradientTransform="translate(17.5 15) rotate(43.9708) scale(59.0529)">
<stop offset="0.185425" stop-opacity="0"/>
<stop offset="1" stop-opacity="0.4"/>
</radialGradient>
<radialGradient id="paint9_radial_23_441" cx="0" cy="0" r="1" gradientUnits="userSpaceOnUse" gradientTransform="translate(21.5371 13.8359) rotate(90) scale(3.1875 4.31047)">
<stop offset="0.307692" stop-color="#452A3D"/>
<stop offset="0.626374" stop-color="#594052"/>
<stop offset="1" stop-color="#482C40"/>
</radialGradient>
<radialGradient id="paint10_radial_23_441" cx="0" cy="0" r="1" gradientUnits="userSpaceOnUse" gradientTransform="translate(10.5059 13.8359) rotate(90) scale(3.1875 4.31047)">
<stop offset="0.307692" stop-color="#452A3D"/>
<stop offset="0.626374" stop-color="#594052"/>
<stop offset="1" stop-color="#482C40"/>
</radialGradient>
<radialGradient id="paint11_radial_23_441" cx="0" cy="0" r="1" gradientUnits="userSpaceOnUse" gradientTransform="translate(16.3873 18.7345) rotate(86.7356) scale(5.72692 5.4626)">
<stop offset="0.535134" stop-color="#4E3028"/>
<stop offset="0.740289" stop-color="#5E425A"/>
<stop offset="1" stop-color="#522C57"/>
<stop offset="1" stop-color="#55275C"/>
</radialGradient>
<radialGradient id="paint12_radial_23_441" cx="0" cy="0" r="1" gradientUnits="userSpaceOnUse" gradientTransform="translate(16 21.214) rotate(90) scale(4.36959 8.84875)">
<stop offset="0.645531" stop-color="#4C2746" stop-opacity="0"/>
<stop offset="1" stop-color="#4E2847"/>
</radialGradient>
<radialGradient id="paint13_radial_23_441" cx="0" cy="0" r="1" gradientUnits="userSpaceOnUse" gradientTransform="translate(14.5 6.5) rotate(90) scale(3.5 19.4266)">
<stop stop-color="#392108"/>
<stop offset="1" stop-color="#C87928" stop-opacity="0"/>
</radialGradient>
<radialGradient id="paint14_radial_23_441" cx="0" cy="0" r="1" gradientUnits="userSpaceOnUse" gradientTransform="translate(16.5 -23) rotate(90) scale(33 38.8902)">
<stop offset="0.842736" stop-color="#425BFF"/>
<stop offset="0.898067" stop-color="#508FFF"/>
<stop offset="0.957885" stop-color="#4457FF"/>
</radialGradient>
<radialGradient id="paint15_radial_23_441" cx="0" cy="0" r="1" gradientUnits="userSpaceOnUse" gradientTransform="translate(6.5 3.5) scale(14 16.4989)">
<stop stop-color="#5664D2"/>
<stop offset="1" stop-color="#4457FF" stop-opacity="0"/>
</radialGradient>
</defs>
</svg>
