<svg width="32" height="32" viewBox="0 0 32 32" fill="none" xmlns="http://www.w3.org/2000/svg">
<g clip-path="url(#clip0_23_431)">
<path d="M15.9989 29.9978C25.3333 29.9978 29.9978 23.7303 29.9978 15.9989C29.9978 8.26751 25.3333 2 15.9989 2C6.66443 2 2 8.26751 2 15.9989C2 23.7303 6.66443 29.9978 15.9989 29.9978Z" fill="url(#paint0_radial_23_431)"/>
<path d="M15.9989 29.9978C25.3333 29.9978 29.9978 23.7303 29.9978 15.9989C29.9978 8.26751 25.3333 2 15.9989 2C6.66443 2 2 8.26751 2 15.9989C2 23.7303 6.66443 29.9978 15.9989 29.9978Z" fill="url(#paint1_radial_23_431)"/>
<path d="M15.9989 29.9978C25.3333 29.9978 29.9978 23.7303 29.9978 15.9989C29.9978 8.26751 25.3333 2 15.9989 2C6.66443 2 2 8.26751 2 15.9989C2 23.7303 6.66443 29.9978 15.9989 29.9978Z" fill="url(#paint2_radial_23_431)"/>
<path d="M15.9989 29.9978C25.3333 29.9978 29.9978 23.7303 29.9978 15.9989C29.9978 8.26751 25.3333 2 15.9989 2C6.66443 2 2 8.26751 2 15.9989C2 23.7303 6.66443 29.9978 15.9989 29.9978Z" fill="url(#paint3_radial_23_431)" fill-opacity="0.6"/>
<path d="M15.9989 29.9978C25.3333 29.9978 29.9978 23.7303 29.9978 15.9989C29.9978 8.26751 25.3333 2 15.9989 2C6.66443 2 2 8.26751 2 15.9989C2 23.7303 6.66443 29.9978 15.9989 29.9978Z" fill="url(#paint4_radial_23_431)"/>
<path d="M15.9989 29.9978C25.3333 29.9978 29.9978 23.7303 29.9978 15.9989C29.9978 8.26751 25.3333 2 15.9989 2C6.66443 2 2 8.26751 2 15.9989C2 23.7303 6.66443 29.9978 15.9989 29.9978Z" fill="url(#paint5_radial_23_431)"/>
<path d="M15.9989 29.9978C25.3333 29.9978 29.9978 23.7303 29.9978 15.9989C29.9978 8.26751 25.3333 2 15.9989 2C6.66443 2 2 8.26751 2 15.9989C2 23.7303 6.66443 29.9978 15.9989 29.9978Z" fill="url(#paint6_radial_23_431)"/>
<path d="M15.9989 29.9978C25.3333 29.9978 29.9978 23.7303 29.9978 15.9989C29.9978 8.26751 25.3333 2 15.9989 2C6.66443 2 2 8.26751 2 15.9989C2 23.7303 6.66443 29.9978 15.9989 29.9978Z" fill="url(#paint7_radial_23_431)"/>
<path d="M15.9989 29.9978C25.3333 29.9978 29.9978 23.7303 29.9978 15.9989C29.9978 8.26751 25.3333 2 15.9989 2C6.66443 2 2 8.26751 2 15.9989C2 23.7303 6.66443 29.9978 15.9989 29.9978Z" fill="url(#paint8_radial_23_431)"/>
<path d="M15.9989 29.9978C25.3333 29.9978 29.9978 23.7303 29.9978 15.9989C29.9978 8.26751 25.3333 2 15.9989 2C6.66443 2 2 8.26751 2 15.9989C2 23.7303 6.66443 29.9978 15.9989 29.9978Z" fill="url(#paint9_radial_23_431)"/>
<path d="M15.9989 29.9978C25.3333 29.9978 29.9978 23.7303 29.9978 15.9989C29.9978 8.26751 25.3333 2 15.9989 2C6.66443 2 2 8.26751 2 15.9989C2 23.7303 6.66443 29.9978 15.9989 29.9978Z" fill="url(#paint10_radial_23_431)"/>
<path d="M15.9989 29.9978C25.3333 29.9978 29.9978 23.7303 29.9978 15.9989C29.9978 8.26751 25.3333 2 15.9989 2C6.66443 2 2 8.26751 2 15.9989C2 23.7303 6.66443 29.9978 15.9989 29.9978Z" fill="url(#paint11_radial_23_431)"/>
<path d="M15.9989 29.9978C25.3333 29.9978 29.9978 23.7303 29.9978 15.9989C29.9978 8.26751 25.3333 2 15.9989 2C6.66443 2 2 8.26751 2 15.9989C2 23.7303 6.66443 29.9978 15.9989 29.9978Z" fill="url(#paint12_radial_23_431)"/>
<path d="M15.9989 29.9978C25.3333 29.9978 29.9978 23.7303 29.9978 15.9989C29.9978 8.26751 25.3333 2 15.9989 2C6.66443 2 2 8.26751 2 15.9989C2 23.7303 6.66443 29.9978 15.9989 29.9978Z" fill="url(#paint13_radial_23_431)"/>
<path d="M15.9989 29.9978C25.3333 29.9978 29.9978 23.7303 29.9978 15.9989C29.9978 8.26751 25.3333 2 15.9989 2C6.66443 2 2 8.26751 2 15.9989C2 23.7303 6.66443 29.9978 15.9989 29.9978Z" fill="url(#paint14_radial_23_431)"/>
<path d="M15.9989 29.9978C25.3333 29.9978 29.9978 23.7303 29.9978 15.9989C29.9978 8.26751 25.3333 2 15.9989 2C6.66443 2 2 8.26751 2 15.9989C2 23.7303 6.66443 29.9978 15.9989 29.9978Z" fill="url(#paint15_radial_23_431)"/>
<path d="M15.9989 29.9978C25.3333 29.9978 29.9978 23.7303 29.9978 15.9989C29.9978 8.26751 25.3333 2 15.9989 2C6.66443 2 2 8.26751 2 15.9989C2 23.7303 6.66443 29.9978 15.9989 29.9978Z" fill="url(#paint16_radial_23_431)"/>
<path d="M15.9989 29.9978C25.3333 29.9978 29.9978 23.7303 29.9978 15.9989C29.9978 8.26751 25.3333 2 15.9989 2C6.66443 2 2 8.26751 2 15.9989C2 23.7303 6.66443 29.9978 15.9989 29.9978Z" fill="url(#paint17_radial_23_431)"/>
<path d="M15.9989 29.9978C25.3333 29.9978 29.9978 23.7303 29.9978 15.9989C29.9978 8.26751 25.3333 2 15.9989 2C6.66443 2 2 8.26751 2 15.9989C2 23.7303 6.66443 29.9978 15.9989 29.9978Z" fill="url(#paint18_radial_23_431)"/>
<path d="M13.5 18C13.5 18 15 16.5 15 14.5C15 12.0147 12.9853 10 10.5 10C8.01472 10 6 12.0147 6 14.5C6 16.5 7.04226 17.3801 7.04226 17.3801C7.04226 17.3801 9.05528 16.8367 10.5 17C12.5 17.226 13.5 18 13.5 18Z" fill="white"/>
<path d="M13 14.25C13 15.3546 12.1046 16.25 11 16.25C9.89543 16.25 9 15.3546 9 14.25C9 13.1454 9.89543 12.25 11 12.25C12.1046 12.25 13 13.1454 13 14.25Z" fill="url(#paint19_linear_23_431)"/>
<path fill-rule="evenodd" clip-rule="evenodd" d="M21.5 13.9999C20.2271 13.9999 19.792 14.9313 19.724 15.2423C19.6068 15.7781 19.1317 16.1038 18.6629 15.9699C18.1942 15.836 17.9091 15.2931 18.0263 14.7573C18.2499 13.7351 19.2731 12 21.5 12C23.7269 12 24.7501 13.7351 24.9737 14.7573C25.0909 15.2931 24.8058 15.836 24.3371 15.9699C23.8683 16.1038 23.3932 15.7781 23.276 15.2423C23.208 14.9313 22.7729 13.9999 21.5 13.9999Z" fill="url(#paint20_radial_23_431)"/>
<path d="M16 26C9 26 9 19 9 19H23C23 19 23 26 16 26Z" fill="url(#paint21_radial_23_431)"/>
<path fill-rule="evenodd" clip-rule="evenodd" d="M23.9306 9.98761C24.5235 10.5505 24.8821 11.2277 25.0255 11.6581C25.1128 11.9201 25.396 12.0617 25.658 11.9743C25.9199 11.887 26.0615 11.6039 25.9742 11.3419C25.7843 10.7723 25.3429 9.94951 24.6191 9.26239C23.8869 8.5672 22.852 8 21.4999 8C21.2237 8 20.9999 8.22386 20.9999 8.5C20.9999 8.77614 21.2237 9 21.4999 9C22.5478 9 23.3462 9.4328 23.9306 9.98761Z" fill="url(#paint22_radial_23_431)"/>
<path fill-rule="evenodd" clip-rule="evenodd" d="M23.9306 9.98761C24.5235 10.5505 24.8821 11.2277 25.0255 11.6581C25.1128 11.9201 25.396 12.0617 25.658 11.9743C25.9199 11.887 26.0615 11.6039 25.9742 11.3419C25.7843 10.7723 25.3429 9.94951 24.6191 9.26239C23.8869 8.5672 22.852 8 21.4999 8C21.2237 8 20.9999 8.22386 20.9999 8.5C20.9999 8.77614 21.2237 9 21.4999 9C22.5478 9 23.3462 9.4328 23.9306 9.98761Z" fill="url(#paint23_radial_23_431)"/>
<path fill-rule="evenodd" clip-rule="evenodd" d="M8.06939 7.98761C7.47649 8.55049 7.11794 9.22774 6.97448 9.65811C6.88715 9.92009 6.60399 10.0617 6.34202 9.97434C6.08005 9.88702 5.93847 9.60386 6.02579 9.34189C6.21567 8.77226 6.65711 7.94951 7.38088 7.26239C8.11314 6.5672 9.14804 6 10.5001 6C10.7763 6 11.0001 6.22386 11.0001 6.5C11.0001 6.77614 10.7763 7 10.5001 7C9.45223 7 8.65379 7.4328 8.06939 7.98761Z" fill="url(#paint24_radial_23_431)"/>
<path fill-rule="evenodd" clip-rule="evenodd" d="M8.06939 7.98761C7.47649 8.55049 7.11794 9.22774 6.97448 9.65811C6.88715 9.92009 6.60399 10.0617 6.34202 9.97434C6.08005 9.88702 5.93847 9.60386 6.02579 9.34189C6.21567 8.77226 6.65711 7.94951 7.38088 7.26239C8.11314 6.5672 9.14804 6 10.5001 6C10.7763 6 11.0001 6.22386 11.0001 6.5C11.0001 6.77614 10.7763 7 10.5001 7C9.45223 7 8.65379 7.4328 8.06939 7.98761Z" fill="url(#paint25_radial_23_431)"/>
<path fill-rule="evenodd" clip-rule="evenodd" d="M22.8136 20.5H9.18644C9 19.6243 9 19 9 19H23C23 19 23 19.6243 22.8136 20.5Z" fill="url(#paint26_linear_23_431)"/>
</g>
<defs>
<radialGradient id="paint0_radial_23_431" cx="0" cy="0" r="1" gradientUnits="userSpaceOnUse" gradientTransform="translate(25.5 9) rotate(132.839) scale(37.5033)">
<stop stop-color="#FFF478"/>
<stop offset="0.474827" stop-color="#FFB02E"/>
<stop offset="1" stop-color="#F70A8D"/>
</radialGradient>
<radialGradient id="paint1_radial_23_431" cx="0" cy="0" r="1" gradientUnits="userSpaceOnUse" gradientTransform="translate(25.5 9) rotate(131.878) scale(38.9487)">
<stop stop-color="#FFF478"/>
<stop offset="0.474827" stop-color="#FFB02E"/>
<stop offset="1" stop-color="#F70A8D"/>
</radialGradient>
<radialGradient id="paint2_radial_23_431" cx="0" cy="0" r="1" gradientUnits="userSpaceOnUse" gradientTransform="translate(16 12.5) rotate(101.31) scale(17.8466 22.8581)">
<stop offset="0.787821" stop-color="#F59639" stop-opacity="0"/>
<stop offset="0.972509" stop-color="#FF7DCE"/>
</radialGradient>
<radialGradient id="paint3_radial_23_431" cx="0" cy="0" r="1" gradientUnits="userSpaceOnUse" gradientTransform="translate(18 14) rotate(135) scale(41.0122)">
<stop offset="0.314853" stop-opacity="0"/>
<stop offset="1"/>
</radialGradient>
<radialGradient id="paint4_radial_23_431" cx="0" cy="0" r="1" gradientUnits="userSpaceOnUse" gradientTransform="translate(16 17) rotate(77.692) scale(28.1469)">
<stop offset="0.507903" stop-color="#7D6133" stop-opacity="0"/>
<stop offset="1" stop-color="#715B32"/>
</radialGradient>
<radialGradient id="paint5_radial_23_431" cx="0" cy="0" r="1" gradientUnits="userSpaceOnUse" gradientTransform="translate(16.5 16.5) rotate(55.7131) scale(13.3135 9.65032)">
<stop stop-color="#FFB849"/>
<stop offset="1" stop-color="#FFB847" stop-opacity="0"/>
</radialGradient>
<radialGradient id="paint6_radial_23_431" cx="0" cy="0" r="1" gradientUnits="userSpaceOnUse" gradientTransform="translate(20.5 18) rotate(9.86581) scale(11.6726)">
<stop stop-color="#FFA64B"/>
<stop offset="0.900412" stop-color="#FFAE46" stop-opacity="0"/>
</radialGradient>
<radialGradient id="paint7_radial_23_431" cx="0" cy="0" r="1" gradientUnits="userSpaceOnUse" gradientTransform="translate(17.5 15) rotate(43.9708) scale(59.0529)">
<stop offset="0.185425" stop-opacity="0"/>
<stop offset="1" stop-opacity="0.4"/>
</radialGradient>
<radialGradient id="paint8_radial_23_431" cx="0" cy="0" r="1" gradientUnits="userSpaceOnUse" gradientTransform="translate(11.6725 14.7697) rotate(86.5467) scale(3.7592 3.81207)">
<stop stop-color="#B3671F"/>
<stop offset="0.392157" stop-color="#B3671F"/>
<stop offset="0.643397" stop-color="#B3671F" stop-opacity="0.446091"/>
<stop offset="0.806763" stop-color="#B3671F" stop-opacity="0.179254"/>
<stop offset="1" stop-color="#B3671F" stop-opacity="0"/>
</radialGradient>
<radialGradient id="paint9_radial_23_431" cx="0" cy="0" r="1" gradientUnits="userSpaceOnUse" gradientTransform="translate(8.91035 14.1463) rotate(89.9138) scale(4.77181 4.11178)">
<stop offset="0.47452" stop-color="#B3671F"/>
<stop offset="0.781916" stop-color="#B3671F" stop-opacity="0.236695"/>
<stop offset="0.873485" stop-color="#B3671F" stop-opacity="0.0865443"/>
<stop offset="0.948588" stop-color="#B3671F" stop-opacity="0"/>
</radialGradient>
<radialGradient id="paint10_radial_23_431" cx="0" cy="0" r="1" gradientUnits="userSpaceOnUse" gradientTransform="translate(23.3599 15.1272) rotate(46.1017) scale(1.74373 1.41318)">
<stop stop-color="#D0782E"/>
<stop offset="1" stop-color="#D0782E" stop-opacity="0"/>
</radialGradient>
<radialGradient id="paint11_radial_23_431" cx="0" cy="0" r="1" gradientUnits="userSpaceOnUse" gradientTransform="translate(22.0797 14.1552) rotate(34.5742) scale(2.13061 0.729976)">
<stop stop-color="#D0782E"/>
<stop offset="1" stop-color="#D0782E" stop-opacity="0"/>
</radialGradient>
<radialGradient id="paint12_radial_23_431" cx="0" cy="0" r="1" gradientUnits="userSpaceOnUse" gradientTransform="translate(20.9417 13.5388) rotate(24.7395) scale(2.66249 1.09297)">
<stop stop-color="#D0782E"/>
<stop offset="1" stop-color="#D0782E" stop-opacity="0"/>
</radialGradient>
<radialGradient id="paint13_radial_23_431" cx="0" cy="0" r="1" gradientUnits="userSpaceOnUse" gradientTransform="translate(17.6732 14.9747) rotate(105.124) scale(1.59522 1.17734)">
<stop stop-color="#E7982E"/>
<stop offset="1" stop-color="#E39632" stop-opacity="0"/>
</radialGradient>
<radialGradient id="paint14_radial_23_431" cx="0" cy="0" r="1" gradientUnits="userSpaceOnUse" gradientTransform="translate(24.9927 11.8214) rotate(54.1967) scale(0.949407)">
<stop stop-color="#E7982E"/>
<stop offset="1" stop-color="#E39632" stop-opacity="0"/>
</radialGradient>
<radialGradient id="paint15_radial_23_431" cx="0" cy="0" r="1" gradientUnits="userSpaceOnUse" gradientTransform="translate(24.2101 10.5717) rotate(67.5573) scale(1.88471 0.7789)">
<stop stop-color="#E7982E"/>
<stop offset="1" stop-color="#E39632" stop-opacity="0"/>
</radialGradient>
<radialGradient id="paint16_radial_23_431" cx="0" cy="0" r="1" gradientUnits="userSpaceOnUse" gradientTransform="translate(22.8721 9.43566) rotate(35.24) scale(3.10649 1.35087)">
<stop stop-color="#E2981B"/>
<stop offset="1" stop-color="#FFDC64" stop-opacity="0"/>
</radialGradient>
<radialGradient id="paint17_radial_23_431" cx="0" cy="0" r="1" gradientUnits="userSpaceOnUse" gradientTransform="translate(21.6981 9.00648) rotate(28.8386) scale(2.27678 0.992083)">
<stop stop-color="#E2981B"/>
<stop offset="1" stop-color="#FFDC64" stop-opacity="0"/>
</radialGradient>
<radialGradient id="paint18_radial_23_431" cx="0" cy="0" r="1" gradientUnits="userSpaceOnUse" gradientTransform="translate(8.22454 9.98363) rotate(-8.56089) scale(4.4529)">
<stop stop-color="#D59A13"/>
<stop offset="1" stop-color="#D59A13" stop-opacity="0"/>
</radialGradient>
<linearGradient id="paint19_linear_23_431" x1="12.5385" y1="12.25" x2="10.8542" y2="15.5342" gradientUnits="userSpaceOnUse">
<stop stop-color="#553B3E"/>
<stop offset="1" stop-color="#3D2432"/>
</linearGradient>
<radialGradient id="paint20_radial_23_431" cx="0" cy="0" r="1" gradientUnits="userSpaceOnUse" gradientTransform="translate(21.5 14.9998) rotate(90) scale(3.99976 5.12655)">
<stop offset="0.337213" stop-color="#4D274B"/>
<stop offset="0.628228" stop-color="#514047"/>
<stop offset="1" stop-color="#4E2553"/>
<stop offset="1" stop-color="#4A342F"/>
</radialGradient>
<radialGradient id="paint21_radial_23_431" cx="0" cy="0" r="1" gradientUnits="userSpaceOnUse" gradientTransform="translate(16 27.5556) rotate(-90) scale(8.55556 17.1111)">
<stop stop-color="#F70A8D"/>
<stop offset="1" stop-color="#89029C"/>
</radialGradient>
<radialGradient id="paint22_radial_23_431" cx="0" cy="0" r="1" gradientUnits="userSpaceOnUse" gradientTransform="translate(22.2234 11.498) rotate(-145.524) scale(3.94156 3.60988)">
<stop offset="0.641397" stop-color="#2F1F2A"/>
<stop offset="0.822285" stop-color="#51394C"/>
<stop offset="0.881253" stop-color="#50394C"/>
<stop offset="1" stop-color="#442E3E"/>
</radialGradient>
<radialGradient id="paint23_radial_23_431" cx="0" cy="0" r="1" gradientUnits="userSpaceOnUse" gradientTransform="translate(23.3118 10.0001) rotate(129.805) scale(4.05269 3.26964)">
<stop offset="0.645531" stop-color="#362530" stop-opacity="0"/>
<stop offset="1" stop-color="#342330"/>
</radialGradient>
<radialGradient id="paint24_radial_23_431" cx="0" cy="0" r="1" gradientUnits="userSpaceOnUse" gradientTransform="translate(9.85664 9.81565) rotate(-124.747) scale(3.41018 4.28513)">
<stop offset="0.552138" stop-color="#4A2F37"/>
<stop offset="0.822285" stop-color="#51394C"/>
<stop offset="0.881253" stop-color="#50394C"/>
<stop offset="1" stop-color="#4D3635"/>
</radialGradient>
<radialGradient id="paint25_radial_23_431" cx="0" cy="0" r="1" gradientUnits="userSpaceOnUse" gradientTransform="translate(10.7528 6.62374) rotate(-176.165) scale(0.413982 0.778569)">
<stop stop-color="#5A4950"/>
<stop offset="1" stop-color="#5D4C4F" stop-opacity="0"/>
</radialGradient>
<linearGradient id="paint26_linear_23_431" x1="16" y1="19" x2="16" y2="20.5" gradientUnits="userSpaceOnUse">
<stop stop-color="#ECCDFF"/>
<stop offset="1" stop-color="white"/>
</linearGradient>
<clipPath id="clip0_23_431">
<rect width="32" height="32" fill="white"/>
</clipPath>
</defs>
</svg>
