<svg width="24" height="24" viewBox="0 0 24 24" fill="none" xmlns="http://www.w3.org/2000/svg">
<path d="M19.6217 6.81868C19.5057 6.90869 17.4575 8.06281 17.4575 10.6291C17.4575 13.5974 20.0638 14.6475 20.1418 14.6735C20.1298 14.7375 19.7277 16.1116 18.7676 17.5118C17.9116 18.7439 17.0175 19.974 15.6573 19.974C14.2972 19.974 13.9472 19.1839 12.377 19.1839C10.8469 19.1839 10.3028 20 9.05867 20C7.81455 20 6.94646 18.8599 5.94836 17.4597C4.79225 15.8156 3.85815 13.2613 3.85815 10.8371C3.85815 6.94869 6.38641 4.88649 8.87466 4.88649C10.1968 4.88649 11.2989 5.75458 12.129 5.75458C12.9191 5.75458 14.1512 4.83448 15.6553 4.83448C16.2254 4.83448 18.2736 4.88649 19.6217 6.81868ZM14.9413 3.18832C15.5633 2.45024 16.0034 1.42614 16.0034 0.40204C16.0034 0.260026 15.9914 0.116012 15.9654 0C14.9533 0.0380038 13.7491 0.674067 13.0231 1.51615C12.453 2.16422 11.921 3.18832 11.921 4.22642C11.921 4.38244 11.947 4.53845 11.959 4.58846C12.023 4.60046 12.127 4.61446 12.231 4.61446C13.1391 4.61446 14.2812 4.0064 14.9413 3.18832Z" fill="#1C1A22"/>
</svg>
