<svg width="24" height="24" viewBox="0 0 24 24" fill="none" xmlns="http://www.w3.org/2000/svg">
<path d="M10.375 2H14.125C15.1605 2 16 2.83947 16 3.875C16 4.66945 15.5059 5.34849 14.8083 5.62161C14.9604 6.23012 15.4055 6.69126 16.0868 7.36227L16.0997 7.37503C16.579 7.84706 17.1475 8.40694 17.645 9.15331C17.6565 9.17058 17.6671 9.18829 17.6767 9.20638C18.1986 10.0264 18.5 10.9806 18.5 12C18.5 12.1176 18.496 12.2344 18.4881 12.3504C18.496 12.441 18.5 12.5326 18.5 12.625V18.875C18.5 20.6009 17.1009 22 15.375 22C14.8064 22 14.2723 21.8477 13.8125 21.5818C13.3527 21.8477 12.8186 22 12.25 22C11.6814 22 11.1473 21.8477 10.6875 21.5818C10.2277 21.8477 9.69364 22 9.125 22C7.39911 22 6 20.6009 6 18.875V12.625C6 12.5326 6.00403 12.441 6.01194 12.3504C6.00401 12.2344 6 12.1176 6 12C6 10.3383 6.79855 8.86051 8.03809 7.84289C8.17878 7.69262 8.3172 7.55 8.44764 7.41561L8.44948 7.41372C9.1162 6.72681 9.55152 6.25744 9.69654 5.62349C8.99636 5.35161 8.5 4.67127 8.5 3.875C8.5 2.83947 9.33947 2 10.375 2ZM17.25 17V12.625C17.25 12.5567 17.2464 12.4895 17.2394 12.4236C17.2353 12.3851 17.2348 12.3464 17.2378 12.3079C17.2459 12.2063 17.25 12.1036 17.25 12C17.25 11.2176 17.0153 10.4812 16.5986 9.84091C16.591 9.82915 16.5838 9.81719 16.577 9.80505C16.5053 9.69939 16.4319 9.59795 16.3569 9.5H8.14744C7.57687 10.2149 7.25 11.0785 7.25 12C7.25 12.1036 7.25411 12.2063 7.26219 12.3079C7.26525 12.3464 7.26473 12.3851 7.26064 12.4236C7.25362 12.4895 7.25 12.5567 7.25 12.625V17H17.25ZM7.25 18.25V18.875C7.25 19.9105 8.08947 20.75 9.125 20.75C9.56902 20.75 9.97546 20.5964 10.2966 20.339C10.525 20.1559 10.85 20.1559 11.0784 20.339C11.3995 20.5964 11.806 20.75 12.25 20.75C12.694 20.75 13.1005 20.5964 13.4216 20.339C13.65 20.1559 13.975 20.1559 14.2034 20.339C14.5245 20.5964 14.931 20.75 15.375 20.75C16.4105 20.75 17.25 19.9105 17.25 18.875V18.25H7.25ZM13.5577 5.75H10.9455C10.7489 6.84053 10.0527 7.55722 9.39565 8.23366L9.37978 8.25H15.2068L15.1544 8.19844C14.488 7.54278 13.7641 6.83045 13.5577 5.75ZM10.375 4.5H14.125C14.4702 4.5 14.75 4.22018 14.75 3.875C14.75 3.52982 14.4702 3.25 14.125 3.25H10.375C10.0298 3.25 9.75 3.52982 9.75 3.875C9.75 4.22018 10.0298 4.5 10.375 4.5Z" fill="#1C1A22" stroke="#1C1A22" stroke-width="0.5"/>
</svg>
