<svg width="24" height="24" viewBox="0 0 24 24" fill="none" xmlns="http://www.w3.org/2000/svg">
<rect x="4" y="11.5882" width="16.9412" height="7.41176" rx="1.5" stroke="#1C1A22" stroke-width="1.5"/>
<rect x="10.3525" y="7.35294" width="4.23529" height="4.23529" rx="0.5" stroke="#1C1A22" stroke-width="1.5"/>
<path d="M13.8821 3.96471C13.8821 4.66643 13.2501 5.23529 12.4704 5.23529C11.6907 5.23529 11.0586 4.66643 11.0586 3.96471C11.0586 3.26298 12.2351 1 12.4704 1C12.7057 1 13.8821 3.26298 13.8821 3.96471Z" stroke="#1C1A22" stroke-width="1.5"/>
<path d="M20.8798 15.5749L19.9437 15.0133C18.6025 14.2086 16.9269 14.2086 15.5857 15.0133L14.6496 15.5749C13.3084 16.3797 11.6328 16.3797 10.2915 15.5749L9.1701 14.9021C7.92841 14.157 6.39215 14.098 5.09697 14.7456L4 15.2941" stroke="#1C1A22" stroke-width="1.5"/>
</svg>
