<svg width="24" height="24" viewBox="0 0 24 24" fill="none" xmlns="http://www.w3.org/2000/svg">
<path d="M4.35 12C4.35 7.77502 7.77502 4.35 12 4.35C16.225 4.35 19.65 7.77502 19.65 12C19.65 16.225 16.225 19.65 12 19.65C7.77502 19.65 4.35 16.225 4.35 12ZM12 3C7.02944 3 3 7.02944 3 12C3 16.9706 7.02944 21 12 21C16.9706 21 21 16.9706 21 12C21 7.02944 16.9706 3 12 3ZM11.9938 7.18345C11.9491 6.8541 11.6665 6.6 11.325 6.6C10.9524 6.6 10.65 6.9024 10.65 7.275V12.675L10.6562 12.7666C10.7009 13.0959 10.9834 13.35 11.325 13.35H14.925L15.0166 13.3438C15.3459 13.2991 15.6 13.0166 15.6 12.675C15.6 12.3024 15.2976 12 14.925 12H12V7.275L11.9938 7.18345Z" fill="#1C1A22" stroke="#1C1A22" stroke-width="0.5" stroke-linecap="round" stroke-linejoin="round"/>
</svg>
