<svg width="24" height="24" viewBox="0 0 24 24" fill="none" xmlns="http://www.w3.org/2000/svg">
<path d="M10.0244 6.07317H13.5366C13.5366 5.1033 12.7504 4.31707 11.7805 4.31707C10.8106 4.31707 10.0244 5.1033 10.0244 6.07317ZM8.70732 6.07317C8.70732 4.37591 10.0832 3 11.7805 3C13.4778 3 14.8537 4.37591 14.8537 6.07317H19.9024C20.2661 6.07317 20.561 6.36801 20.561 6.73171C20.561 7.09541 20.2661 7.39024 19.9024 7.39024H18.7442L17.7151 18.0245C17.5518 19.7122 16.1334 21 14.4377 21H9.12324C7.42759 21 6.0092 19.7122 5.84587 18.0245L4.81675 7.39024H3.65854C3.29484 7.39024 3 7.09541 3 6.73171C3 6.36801 3.29484 6.07317 3.65854 6.07317H8.70732ZM10.4634 10.2439C10.4634 9.8802 10.1686 9.58537 9.80488 9.58537C9.44118 9.58537 9.14634 9.8802 9.14634 10.2439V16.8293C9.14634 17.193 9.44118 17.4878 9.80488 17.4878C10.1686 17.4878 10.4634 17.193 10.4634 16.8293V10.2439ZM13.7561 9.58537C14.1198 9.58537 14.4146 9.8802 14.4146 10.2439V16.8293C14.4146 17.193 14.1198 17.4878 13.7561 17.4878C13.3924 17.4878 13.0976 17.193 13.0976 16.8293V10.2439C13.0976 9.8802 13.3924 9.58537 13.7561 9.58537ZM7.15682 17.8976C7.25482 18.9103 8.10585 19.6829 9.12324 19.6829H14.4377C15.4551 19.6829 16.3062 18.9103 16.4042 17.8976L17.421 7.39024H6.13998L7.15682 17.8976Z" fill="#1C1A22" stroke="#1C1A22" stroke-width="0.5" stroke-linecap="round"/>
</svg>
