<svg width="24" height="24" viewBox="0 0 24 24" fill="none" xmlns="http://www.w3.org/2000/svg">
<path d="M3 5.5H21M16.0557 5.5L15.3731 4.09173C14.9196 3.15626 14.6928 2.68852 14.3017 2.39681C14.215 2.3321 14.1231 2.27454 14.027 2.2247C13.5939 2 13.0741 2 12.0345 2C10.9688 2 10.436 2 9.99568 2.23412C9.8981 2.28601 9.80498 2.3459 9.71729 2.41317C9.32164 2.7167 9.10063 3.20155 8.65861 4.17126L8.05292 5.5" stroke="black" stroke-width="1.5" stroke-linecap="round"/>
<path fill-rule="evenodd" clip-rule="evenodd" d="M19.5 5.5L18.8803 15.5251L18.8802 15.5264C18.7219 18.0868 18.6427 19.3673 18.0008 20.2879C17.6833 20.7431 17.2747 21.1273 16.8007 21.416C15.8421 22 14.559 22 11.9927 22C9.42312 22 8.1383 22 7.17905 21.4149C6.7048 21.1257 6.296 20.7408 5.97868 20.2848C5.33688 19.3626 5.25945 18.0801 5.10461 15.5152L4.5 5.5H19.5ZM9.5 9.75C9.91421 9.75 10.25 10.0858 10.25 10.5V16.5C10.25 16.9142 9.91421 17.25 9.5 17.25C9.08579 17.25 8.75 16.9142 8.75 16.5V10.5C8.75 10.0858 9.08579 9.75 9.5 9.75ZM15.25 10.5C15.25 10.0858 14.9142 9.75 14.5 9.75C14.0858 9.75 13.75 10.0858 13.75 10.5V16.5C13.75 16.9142 14.0858 17.25 14.5 17.25C14.9142 17.25 15.25 16.9142 15.25 16.5V10.5Z" fill="black"/>
</svg>
