<svg width="24" height="24" viewBox="0 0 24 24" fill="none" xmlns="http://www.w3.org/2000/svg">
<path d="M5.025 5C3.90662 5 3 5.90662 3 7.025V9.275C3 10.3934 3.90662 11.3 5.025 11.3H7.275C8.39338 11.3 9.3 10.3934 9.3 9.275V7.025C9.3 5.90662 8.39338 5 7.275 5H5.025ZM4.35 7.025C4.35 6.65221 4.65221 6.35 5.025 6.35H7.275C7.64779 6.35 7.95 6.65221 7.95 7.025V9.275C7.95 9.64779 7.64779 9.95 7.275 9.95H5.025C4.65221 9.95 4.35 9.64779 4.35 9.275V7.025ZM11.325 5.9C10.9522 5.9 10.65 6.20221 10.65 6.575C10.65 6.94779 10.9522 7.25 11.325 7.25H20.325C20.6978 7.25 21 6.94779 21 6.575C21 6.20221 20.6978 5.9 20.325 5.9H11.325ZM11.325 8.6C10.9522 8.6 10.65 8.90221 10.65 9.275C10.65 9.64779 10.9522 9.95 11.325 9.95H17.625C17.9978 9.95 18.3 9.64779 18.3 9.275C18.3 8.90221 17.9978 8.6 17.625 8.6H11.325ZM5.025 13.1C3.90662 13.1 3 14.0066 3 15.125V17.375C3 18.4934 3.90662 19.4 5.025 19.4H7.275C8.39338 19.4 9.3 18.4934 9.3 17.375V15.125C9.3 14.0066 8.39338 13.1 7.275 13.1H5.025ZM4.35 15.125C4.35 14.7522 4.65221 14.45 5.025 14.45H7.275C7.64779 14.45 7.95 14.7522 7.95 15.125V17.375C7.95 17.7478 7.64779 18.05 7.275 18.05H5.025C4.65221 18.05 4.35 17.7478 4.35 17.375V15.125ZM11.325 14C10.9522 14 10.65 14.3022 10.65 14.675C10.65 15.0478 10.9522 15.35 11.325 15.35H20.325C20.6978 15.35 21 15.0478 21 14.675C21 14.3022 20.6978 14 20.325 14H11.325ZM11.325 16.7C10.9522 16.7 10.65 17.0022 10.65 17.375C10.65 17.7478 10.9522 18.05 11.325 18.05H17.625C17.9978 18.05 18.3 17.7478 18.3 17.375C18.3 17.0022 17.9978 16.7 17.625 16.7H11.325Z" fill="#1C1A22"/>
</svg>
