<svg width="24" height="24" viewBox="0 0 24 24" fill="none" xmlns="http://www.w3.org/2000/svg">
<path d="M5.025 4C3.90662 4 3 4.90662 3 6.025V8.275C3 9.39338 3.90662 10.3 5.025 10.3H7.275C8.39338 10.3 9.3 9.39338 9.3 8.275V6.025C9.3 4.90662 8.39338 4 7.275 4H5.025ZM11.325 4.9C10.9522 4.9 10.65 5.20221 10.65 5.575C10.65 5.94779 10.9522 6.25 11.325 6.25H20.325C20.6978 6.25 21 5.94779 21 5.575C21 5.20221 20.6978 4.9 20.325 4.9H11.325ZM11.325 7.6C10.9522 7.6 10.65 7.90221 10.65 8.275C10.65 8.64779 10.9522 8.95 11.325 8.95H17.625C17.9978 8.95 18.3 8.64779 18.3 8.275C18.3 7.90221 17.9978 7.6 17.625 7.6H11.325ZM5.025 12.1C3.90662 12.1 3 13.0066 3 14.125V16.375C3 17.4934 3.90662 18.4 5.025 18.4H7.275C8.39338 18.4 9.3 17.4934 9.3 16.375V14.125C9.3 13.0066 8.39338 12.1 7.275 12.1H5.025ZM11.325 13C10.9522 13 10.65 13.3022 10.65 13.675C10.65 14.0478 10.9522 14.35 11.325 14.35H20.325C20.6978 14.35 21 14.0478 21 13.675C21 13.3022 20.6978 13 20.325 13H11.325ZM11.325 15.7C10.9522 15.7 10.65 16.0022 10.65 16.375C10.65 16.7478 10.9522 17.05 11.325 17.05H17.625C17.9978 17.05 18.3 16.7478 18.3 16.375C18.3 16.0022 17.9978 15.7 17.625 15.7H11.325Z" fill="#1C1A22"/>
</svg>
