<svg width="24" height="24" viewBox="0 0 24 24" fill="none" xmlns="http://www.w3.org/2000/svg">
<path fill-rule="evenodd" clip-rule="evenodd" d="M9.59413 2.97222C7.08079 5.35907 3.5 9.49387 3.5 13.678C3.5 17.7804 6.71878 22 12 22C17.2812 22 20.5 17.7804 20.5 13.678C20.5 9.49387 16.9192 5.35907 14.4059 2.97222C13.0409 1.67593 10.9591 1.67593 9.59413 2.97222ZM16.75 14C16.75 13.5858 16.4142 13.25 16 13.25C15.5858 13.25 15.25 13.5858 15.25 14C15.25 15.7949 13.7949 17.25 12 17.25C11.5858 17.25 11.25 17.5858 11.25 18C11.25 18.4142 11.5858 18.75 12 18.75C14.6233 18.75 16.75 16.6233 16.75 14Z" fill="black"/>
</svg>
