<svg width="24" height="24" viewBox="0 0 24 24" fill="none" xmlns="http://www.w3.org/2000/svg">
<path d="M20.1079 3.89082C18.9201 2.70301 16.9943 2.70307 15.8066 3.89095L5.64976 14.0489C5.30441 14.3943 5.06166 14.8288 4.94853 15.3039L4.01735 19.2149C3.96608 19.4302 4.03019 19.6568 4.18672 19.8133C4.34325 19.9698 4.56977 20.0339 4.78512 19.9827L8.6959 19.0515C9.17119 18.9383 9.60574 18.6955 9.9512 18.35L20.1081 8.19195C21.2957 7.00417 21.2957 5.07853 20.1079 3.89082ZM16.7081 4.79239C17.398 4.10244 18.5165 4.10241 19.2064 4.79232C19.8963 5.48216 19.8963 6.60062 19.2065 7.2905L18.4489 8.04818L15.9507 5.54992L16.7081 4.79239ZM15.0492 6.45147L17.5475 8.94973L9.04965 17.4486C8.87103 17.6272 8.64635 17.7528 8.4006 17.8113L5.49752 18.5025L6.18877 15.5992C6.24726 15.3536 6.37276 15.129 6.55131 14.9504L15.0492 6.45147Z" fill="#1C1A22" stroke="#1C1A22" stroke-width="0.5" stroke-linejoin="round"/>
</svg>
