<svg width="24" height="24" viewBox="0 0 24 24" fill="none" xmlns="http://www.w3.org/2000/svg">
<circle cx="11.9006" cy="12.1115" r="1.92208" stroke="#1C1A22" stroke-width="2"/>
<path d="M15.9296 7.9541C16.978 8.99773 17.6274 10.4457 17.6274 12.0462C17.6274 13.6455 16.979 15.0925 15.932 16.1359M7.87065 7.9541C6.82229 8.99773 6.17285 10.4457 6.17285 12.0462C6.17285 13.6455 6.82129 15.0925 7.86825 16.1359" stroke="#1C1A22" stroke-width="2" stroke-linecap="round"/>
<path d="M18.2725 18.5909C19.8964 16.9166 20.9004 14.6061 20.9004 12.0544C20.9004 9.49398 19.8895 7.17641 18.2559 5.50074M5.52833 18.5909C3.90441 16.9166 2.90039 14.6061 2.90039 12.0544C2.90039 9.4936 3.91155 7.17573 5.54564 5.5" stroke="#1C1A22" stroke-width="2" stroke-linecap="round"/>
</svg>
