<svg width="24" height="24" viewBox="0 0 24 24" fill="none" xmlns="http://www.w3.org/2000/svg">
<path d="M12 16C13.1046 16 14 15.1046 14 14C14 12.8954 13.1046 12 12 12C10.8954 12 10 12.8954 10 14C10 15.1046 10.8954 16 12 16Z" stroke="black" stroke-width="1.5" stroke-linecap="round"/>
<path d="M4 20.001C2.74418 18.3295 2 16.2516 2 14C2 8.47715 6.47715 4 12 4C17.5228 4 22 8.47715 22 14C22 16.2516 21.2558 18.3295 20 20.001" stroke="black" stroke-width="1.5" stroke-linecap="round"/>
<path d="M7.52779 18C6.57771 16.9385 6 15.5367 6 14C6 10.6863 8.68629 8 12 8C15.3137 8 18 10.6863 18 14C18 15.5367 17.4223 16.9385 16.4722 18" stroke="black" stroke-width="1.5" stroke-linecap="round"/>
</svg>
