<svg width="24" height="24" viewBox="0 0 24 24" fill="none" xmlns="http://www.w3.org/2000/svg">
<path d="M4.24753 4.1977C4.00789 4.43734 3.9861 4.81234 4.18217 5.07659L4.24753 5.1523L7.07634 7.98111C5.34655 9.19563 4.05372 11.0096 3.51652 13.1557C3.42599 13.5173 3.64577 13.8838 4.00741 13.9744C4.36904 14.0649 4.73559 13.8451 4.82611 13.4835C5.30264 11.5798 6.47953 9.98323 8.04827 8.95278L9.67694 10.5815C9.04018 11.2309 8.64753 12.1205 8.64753 13.1019C8.64753 15.0901 10.2593 16.7019 12.2475 16.7019C13.2289 16.7019 14.1185 16.3092 14.7679 15.6725L18.7925 19.6977C19.0561 19.9613 19.4835 19.9613 19.7471 19.6977C19.9867 19.4581 20.0085 19.0831 19.8124 18.8188L19.7471 18.7431L15.5476 14.5426L15.5487 14.5413L14.4687 13.4632L11.8857 10.8808L11.8875 10.8801L9.29442 8.28974L9.29553 8.28811L8.27557 7.27064L5.20212 4.1977C4.93852 3.9341 4.51113 3.9341 4.24753 4.1977ZM10.6312 11.5366L13.8128 14.7182C13.4078 15.1105 12.8559 15.3519 12.2475 15.3519C11.0049 15.3519 9.99753 14.3445 9.99753 13.1019C9.99753 12.4935 10.2389 11.9416 10.6312 11.5366ZM12.2475 6.3477C11.3473 6.3477 10.4738 6.48097 9.64751 6.7302L10.7608 7.84278C11.243 7.74749 11.7403 7.69771 12.2475 7.69771C15.7783 7.69771 18.8264 10.1099 19.67 13.4875C19.7603 13.8492 20.1267 14.0692 20.4884 13.9789C20.8501 13.8886 21.0701 13.5221 20.9797 13.1604C19.9869 9.18515 16.4015 6.3477 12.2475 6.3477ZM12.4227 9.50606L15.8439 12.9267C15.7523 11.0755 14.27 9.59458 12.4227 9.50606Z" fill="#1C1A22" stroke="#1C1A22" stroke-width="0.5"/>
</svg>
