<svg width="24" height="24" viewBox="0 0 24 24" fill="none" xmlns="http://www.w3.org/2000/svg">
<path d="M6.36106 5.36106C9.50915 2.21298 14.6132 2.21298 17.7613 5.36106C20.8464 8.44619 20.9081 13.4098 17.9464 16.5701L17.7613 16.7613C16.9142 17.6084 15.4974 18.9923 13.5093 20.9145C12.7018 21.6953 11.4206 21.6952 10.6132 20.9143L7.0492 17.4438C6.78607 17.1844 6.5567 16.9569 6.36106 16.7613C3.21298 13.6132 3.21298 8.50915 6.36106 5.36106ZM14.8666 8.25571L14.7888 8.18848C14.5471 8.0092 14.2155 8.00699 13.9717 8.18184L13.8847 8.25571L12.0612 10.0789L10.2377 8.25571L10.1598 8.18848C9.91817 8.0092 9.58653 8.00699 9.34269 8.18184L9.25571 8.25571L9.18848 8.33359C9.0092 8.57521 9.00699 8.90684 9.18184 9.15069L9.25571 9.23767L11.0789 11.0612L9.25571 12.8847L9.18848 12.9626C9.0092 13.2042 9.00699 13.5358 9.18184 13.7797L9.25571 13.8666L9.33359 13.9339C9.57521 14.1132 9.90684 14.1154 10.1507 13.9405L10.2377 13.8666L12.0612 12.0434L13.8847 13.8666L13.9626 13.9339C14.2042 14.1132 14.5358 14.1154 14.7797 13.9405L14.8666 13.8666L14.9339 13.7888C15.1132 13.5471 15.1154 13.2155 14.9405 12.9717L14.8666 12.8847L13.0434 11.0612L14.8666 9.23767L14.9339 9.15979C15.1132 8.91817 15.1154 8.58654 14.9405 8.34269L14.8666 8.25571L14.7888 8.18848L14.8666 8.25571Z" fill="#1C1A22"/>
</svg>
