<svg width="24" height="24" viewBox="0 0 24 24" fill="none" xmlns="http://www.w3.org/2000/svg">
<path d="M6.29725 5.29725C9.36026 2.23425 14.3264 2.23425 17.3894 5.29725C20.3911 8.299 20.4511 13.1285 17.5695 16.2033L17.3894 16.3894C16.5652 17.2136 15.1866 18.56 13.2523 20.4303C12.4666 21.19 11.2201 21.1899 10.4345 20.4301L6.96679 17.0534C6.71077 16.8011 6.4876 16.5797 6.29725 16.3894C3.23425 13.3264 3.23425 8.36026 6.29725 5.29725ZM16.434 6.25267C13.8986 3.71733 9.78801 3.71733 7.25267 6.25267C4.71733 8.78801 4.71733 12.8986 7.25267 15.434L8.78055 16.94C9.4857 17.6292 10.3502 18.4689 11.3738 19.4589C11.6357 19.7121 12.0512 19.7122 12.3131 19.4589L14.9923 16.8562C15.5855 16.2759 16.0661 15.8018 16.434 15.434C18.9693 12.8986 18.9693 8.78801 16.434 6.25267ZM14.4972 8.04825L14.573 8.11367C14.8128 8.35351 14.8346 8.72883 14.6384 8.99331L14.573 9.06908L12.799 10.8433L14.573 12.6175C14.8128 12.8574 14.8346 13.2327 14.6384 13.4972L14.573 13.573C14.3331 13.8128 13.9578 13.8346 13.6933 13.6384L13.6175 13.573L11.8433 11.799L10.0691 13.573C9.82924 13.8128 9.45392 13.8346 9.18944 13.6384L9.11367 13.573C8.87382 13.3331 8.85202 12.9578 9.04825 12.6933L9.11367 12.6175L10.8876 10.8433L9.11367 9.06908C8.87382 8.82924 8.85202 8.45392 9.04825 8.18944L9.11367 8.11367C9.35351 7.87382 9.72883 7.85202 9.99331 8.04825L10.0691 8.11367L11.8433 9.88759L13.6175 8.11367C13.8574 7.87382 14.2327 7.85202 14.4972 8.04825Z" fill="#1C1A22" stroke="#1C1A22" stroke-width="0.5"/>
</svg>
