<svg width="24" height="24" viewBox="0 0 24 24" fill="none" xmlns="http://www.w3.org/2000/svg">
<path fill-rule="evenodd" clip-rule="evenodd" d="M12.0011 22C12.6044 22 13.1841 21.773 13.6177 21.367C13.9205 21.0834 14.231 20.7972 14.5451 20.5075C18.3609 16.9893 22.711 12.9784 20.316 7.37966C18.9126 4.09916 15.5439 2 12.0011 2C8.45834 2 5.08963 4.09916 3.68627 7.37966C1.30092 12.9556 5.60302 16.9368 9.39811 20.4489C9.73249 20.7583 10.0629 21.0641 10.3845 21.367C10.8182 21.773 11.3978 22 12.0011 22ZM12 14.5C13.933 14.5 15.5 12.933 15.5 11C15.5 9.067 13.933 7.5 12 7.5C10.067 7.5 8.5 9.067 8.5 11C8.5 12.933 10.067 14.5 12 14.5Z" fill="black"/>
</svg>
