<svg width="24" height="24" viewBox="0 0 24 24" fill="none" xmlns="http://www.w3.org/2000/svg">
<path d="M17.7613 16.7613L16.6624 17.8481C15.8524 18.6431 14.8015 19.665 13.5093 20.9145C12.7018 21.6953 11.4206 21.6952 10.6132 20.9143L7.38117 17.7704C6.97497 17.3715 6.63495 17.0352 6.36106 16.7613C3.21298 13.6132 3.21298 8.50915 6.36106 5.36106C9.50915 2.21298 14.6132 2.21298 17.7613 5.36106C20.9094 8.50915 20.9094 13.6132 17.7613 16.7613ZM14.3759 11.3155C14.3759 10.0371 13.3395 9.00082 12.0612 9.00082C10.7828 9.00082 9.74651 10.0371 9.74651 11.3155C9.74651 12.5939 10.7828 13.6302 12.0612 13.6302C13.3395 13.6302 14.3759 12.5939 14.3759 11.3155Z" fill="#1C1A22"/>
</svg>
