<svg width="24" height="24" viewBox="0 0 24 24" fill="none" xmlns="http://www.w3.org/2000/svg">
<path d="M6.29725 5.29725C9.36026 2.23425 14.3264 2.23425 17.3894 5.29725C20.4524 8.36026 20.4524 13.3264 17.3894 16.3894L16.3202 17.4468C15.5321 18.2203 14.5096 19.2146 13.2523 20.4303C12.4666 21.19 11.2201 21.1899 10.4345 20.4301L7.28979 17.3712C6.89456 16.9831 6.56374 16.6559 6.29725 16.3894C3.23425 13.3264 3.23425 8.36026 6.29725 5.29725ZM16.434 6.25267C13.8986 3.71733 9.78801 3.71733 7.25267 6.25267C4.71733 8.78801 4.71733 12.8986 7.25267 15.434L8.59219 16.7558C9.32984 17.4777 10.2571 18.3789 11.3738 19.4589C11.6357 19.7121 12.0512 19.7122 12.3131 19.4589L15.3711 16.4851C15.7935 16.0705 16.1478 15.7201 16.434 15.434C18.9693 12.8986 18.9693 8.78801 16.434 6.25267ZM11.8433 8.3875C13.3365 8.3875 14.547 9.598 14.547 11.0912C14.547 12.5844 13.3365 13.7949 11.8433 13.7949C10.3501 13.7949 9.13959 12.5844 9.13959 11.0912C9.13959 9.598 10.3501 8.3875 11.8433 8.3875ZM11.8433 9.73866C11.0963 9.73866 10.4908 10.3442 10.4908 11.0912C10.4908 11.8382 11.0963 12.4438 11.8433 12.4438C12.5903 12.4438 13.1959 11.8382 13.1959 11.0912C13.1959 10.3442 12.5903 9.73866 11.8433 9.73866Z" fill="#1C1A22" stroke="#1C1A22" stroke-width="0.5"/>
</svg>
