<svg width="24" height="24" viewBox="0 0 24 24" fill="none" xmlns="http://www.w3.org/2000/svg">
<path d="M19.332 16.4962C16.8455 20.803 11.3384 22.2786 7.03162 19.7921C5.85877 19.115 4.87142 18.1989 4.11941 17.1069C3.86798 16.7418 4.03062 16.2376 4.44799 16.0882C7.83985 14.8742 9.6565 13.4674 10.7107 11.4551C11.8204 9.33669 12.1072 7.01617 11.3309 3.83538C11.2235 3.39554 11.5709 2.97675 12.023 3.001C13.4248 3.07621 14.7942 3.47887 16.0361 4.19587C20.3429 6.68239 21.8185 12.1895 19.332 16.4962ZM11.9069 12.0818C10.7804 14.2322 8.92556 15.7722 5.76906 17.0325C6.31668 17.659 6.96801 18.196 7.70685 18.6226C11.3677 20.7362 16.0489 19.4819 18.1625 15.821C20.2761 12.1601 19.0218 7.47901 15.3609 5.36541C14.5713 4.90952 13.7225 4.6034 12.847 4.45111C13.4297 7.49775 13.0539 9.89231 11.9069 12.0818Z" fill="#1C1A22" stroke="#1C1A22" stroke-width="0.5"/>
</svg>
