<svg width="24" height="24" viewBox="0 0 24 24" fill="none" xmlns="http://www.w3.org/2000/svg">
<path d="M7.77209 2.43923L8.84868 2.09522C9.8575 1.77287 10.9353 2.29382 11.3674 3.31256L12.2271 5.33991C12.6018 6.22336 12.3939 7.26227 11.7131 7.9084L9.81881 9.70641C9.93569 10.7819 10.2972 11.8409 10.9033 12.8834C11.5095 13.9259 12.2665 14.7907 13.1744 15.4778L15.4496 14.7191C16.312 14.4315 17.2512 14.762 17.7802 15.5392L19.0125 17.3498C19.6275 18.2532 19.5169 19.4995 18.7538 20.2655L17.9361 21.0865C17.1222 21.9036 15.9597 22.2 14.8843 21.8645C12.3454 21.0726 10.0111 18.7214 7.88132 14.8109C5.74845 10.8947 4.9957 7.57214 5.62307 4.84313C5.88707 3.69482 6.70458 2.78033 7.77209 2.43923Z" fill="#1C1A22"/>
</svg>
