<svg width="24" height="24" viewBox="0 0 24 24" fill="none" xmlns="http://www.w3.org/2000/svg">
<path d="M7.05694 2.41802L8.22394 2.06626C9.54645 1.66762 10.9594 2.31185 11.5258 3.57168L12.4275 5.5774C12.9102 6.65123 12.6558 7.91324 11.7948 8.71619L10.3005 10.1096C10.2568 10.1504 10.2291 10.2054 10.2225 10.2647C10.1781 10.6619 10.4474 11.4353 11.0676 12.5096C11.5187 13.2909 11.9269 13.8387 12.2744 14.1469C12.5165 14.3616 12.6498 14.408 12.7065 14.3911L14.7169 13.7765C15.8425 13.4323 17.0623 13.8427 17.751 14.7972L19.0317 16.5722C19.8378 17.6894 19.6928 19.2307 18.6926 20.178L17.8062 21.0174C16.8498 21.9232 15.4882 22.2607 14.2195 21.9066C11.4654 21.1378 8.99608 18.8137 6.78421 14.9826C4.56926 11.1462 3.79207 7.8418 4.50852 5.07001C4.83639 3.80153 5.80252 2.79614 7.05694 2.41802ZM7.48984 3.85419C6.73719 4.08106 6.15751 4.6843 5.96079 5.44539C5.35814 7.77691 6.047 10.7058 8.08325 14.2326C10.1168 17.7548 12.3057 19.8151 14.6227 20.4618C15.384 20.6743 16.2009 20.4718 16.7748 19.9283L17.6611 19.0889C18.1158 18.6583 18.1817 17.9577 17.8153 17.4499L16.5346 15.6749C16.2215 15.241 15.667 15.0545 15.1554 15.2109L13.1401 15.8271C11.9704 16.1757 10.9087 15.2343 9.7686 13.2596C9.00029 11.9289 8.6422 10.9002 8.73177 10.0982C8.77817 9.6828 8.97174 9.2977 9.27746 9.01261L10.7718 7.61916C11.1632 7.25418 11.2788 6.68054 11.0594 6.19244L10.1577 4.18672C9.90026 3.61407 9.25798 3.32123 8.65684 3.50243L7.48984 3.85419Z" fill="#1C1A22" stroke="#1C1A22" stroke-width="0.5"/>
</svg>
