<svg width="24" height="24" viewBox="0 0 24 24" fill="none" xmlns="http://www.w3.org/2000/svg">
<path fill-rule="evenodd" clip-rule="evenodd" d="M17.9613 15.2405C17.9131 14.9751 17.9456 14.7013 18.0545 14.4545C18.1583 14.2126 18.3305 14.0062 18.55 13.8608C18.7695 13.7154 19.0267 13.6374 19.29 13.6364H19.3636C19.7976 13.6364 20.2138 13.464 20.5207 13.1571C20.8276 12.8502 21 12.434 21 12C21 11.566 20.8276 11.1498 20.5207 10.8429C20.2138 10.536 19.7976 10.3636 19.3636 10.3636H19.2245C18.9613 10.3626 18.704 10.2846 18.4845 10.1392C18.265 9.99383 18.0928 9.78745 17.9891 9.54545V9.48C17.8802 9.23322 17.8477 8.95948 17.8958 8.69406C17.9439 8.42865 18.0705 8.18374 18.2591 7.99091L18.3082 7.94182C18.4603 7.78984 18.581 7.60937 18.6634 7.41072C18.7457 7.21207 18.7881 6.99913 18.7881 6.78409C18.7881 6.56905 18.7457 6.35611 18.6634 6.15746C18.581 5.95881 18.4603 5.77834 18.3082 5.62636C18.1562 5.47422 17.9757 5.35352 17.7771 5.27117C17.5784 5.18883 17.3655 5.14644 17.1505 5.14644C16.9354 5.14644 16.7225 5.18883 16.5238 5.27117C16.3252 5.35352 16.1447 5.47422 15.9927 5.62636L15.9436 5.67545C15.7508 5.86408 15.5059 5.99061 15.2405 6.03873C14.9751 6.08686 14.7013 6.05437 14.4545 5.94545C14.2126 5.84174 14.0062 5.66953 13.8608 5.45002C13.7154 5.23051 13.6374 4.97328 13.6364 4.71V4.63636C13.6364 4.20237 13.464 3.78616 13.1571 3.47928C12.8502 3.1724 12.434 3 12 3C11.566 3 11.1498 3.1724 10.8429 3.47928C10.536 3.78616 10.3636 4.20237 10.3636 4.63636V4.77545C10.3626 5.03873 10.2846 5.29596 10.1392 5.51547C9.99383 5.73498 9.78745 5.90719 9.54545 6.01091H9.48C9.23322 6.11982 8.95948 6.15231 8.69406 6.10419C8.42865 6.05606 8.18374 5.92953 7.99091 5.74091L7.94182 5.69182C7.78984 5.53967 7.60937 5.41898 7.41072 5.33663C7.21207 5.25428 6.99913 5.21189 6.78409 5.21189C6.56905 5.21189 6.35611 5.25428 6.15746 5.33663C5.95881 5.41898 5.77834 5.53967 5.62636 5.69182C5.47422 5.84379 5.35352 6.02426 5.27117 6.22292C5.18883 6.42157 5.14644 6.6345 5.14644 6.84955C5.14644 7.06459 5.18883 7.27752 5.27117 7.47617C5.35352 7.67483 5.47422 7.8553 5.62636 8.00727L5.67545 8.05636C5.86408 8.24919 5.99061 8.4941 6.03873 8.75952C6.08686 9.02493 6.05437 9.29868 5.94545 9.54545C5.85195 9.79969 5.68412 10.0199 5.46379 10.1775C5.24346 10.3351 4.98081 10.4228 4.71 10.4291H4.63636C4.20237 10.4291 3.78616 10.6015 3.47928 10.9084C3.1724 11.2152 3 11.6315 3 12.0655C3 12.4994 3.1724 12.9157 3.47928 13.2225C3.78616 13.5294 4.20237 13.7018 4.63636 13.7018H4.77545C5.03873 13.7029 5.29596 13.7809 5.51547 13.9263C5.73498 14.0716 5.90719 14.278 6.01091 14.52C6.11982 14.7668 6.15231 15.0405 6.10419 15.3059C6.05606 15.5714 5.92953 15.8163 5.74091 16.0091L5.69182 16.0582C5.53967 16.2102 5.41898 16.3906 5.33663 16.5893C5.25428 16.7879 5.21189 17.0009 5.21189 17.2159C5.21189 17.431 5.25428 17.6439 5.33663 17.8425C5.41898 18.0412 5.53967 18.2217 5.69182 18.3736C5.84379 18.5258 6.02426 18.6465 6.22292 18.7288C6.42157 18.8112 6.6345 18.8536 6.84955 18.8536C7.06459 18.8536 7.27752 18.8112 7.47617 18.7288C7.67483 18.6465 7.8553 18.5258 8.00727 18.3736L8.05636 18.3245C8.24919 18.1359 8.4941 18.0094 8.75952 17.9613C9.02493 17.9131 9.29868 17.9456 9.54545 18.0545C9.79969 18.1481 10.0199 18.3159 10.1775 18.5362C10.3351 18.7565 10.4228 19.0192 10.4291 19.29V19.3636C10.4291 19.7976 10.6015 20.2138 10.9084 20.5207C11.2152 20.8276 11.6315 21 12.0655 21C12.4994 21 12.9157 20.8276 13.2225 20.5207C13.5294 20.2138 13.7018 19.7976 13.7018 19.3636V19.2245C13.7029 18.9613 13.7809 18.704 13.9263 18.4845C14.0716 18.265 14.278 18.0928 14.52 17.9891C14.7668 17.8802 15.0405 17.8477 15.3059 17.8958C15.5714 17.9439 15.8163 18.0705 16.0091 18.2591L16.0582 18.3082C16.2102 18.4603 16.3906 18.581 16.5893 18.6634C16.7879 18.7457 17.0009 18.7881 17.2159 18.7881C17.431 18.7881 17.6439 18.7457 17.8425 18.6634C18.0412 18.581 18.2217 18.4603 18.3736 18.3082C18.5258 18.1562 18.6465 17.9757 18.7288 17.7771C18.8112 17.5784 18.8536 17.3655 18.8536 17.1505C18.8536 16.9354 18.8112 16.7225 18.7288 16.5238C18.6465 16.3252 18.5258 16.1447 18.3736 15.9927L18.3245 15.9436C18.1359 15.7508 18.0094 15.5059 17.9613 15.2405ZM14.4545 12.0004C14.4545 13.3561 13.3556 14.455 12 14.455C10.6443 14.455 9.54541 13.3561 9.54541 12.0004C9.54541 10.6448 10.6443 9.5459 12 9.5459C13.3556 9.5459 14.4545 10.6448 14.4545 12.0004Z" fill="#1C1A22" stroke="#1C1A22" stroke-width="0.5" stroke-linecap="round" stroke-linejoin="round"/>
</svg>
