<svg width="24" height="24" viewBox="0 0 24 24" fill="none" xmlns="http://www.w3.org/2000/svg">
<path fill-rule="evenodd" clip-rule="evenodd" d="M5 3C3.89543 3 3 3.89543 3 5V9.00003C3 10.6073 3.56715 12.0059 4.57905 13.0034C5.38438 13.7974 6.43466 14.3012 7.61535 14.4727V15.2308C7.61535 18.417 10.1983 21 13.3845 21C16.5708 21 19.1537 18.417 19.1537 15.2308V14.6246C20.3589 14.2352 21.2306 13.1041 21.2306 11.7693C21.2306 10.1124 19.8875 8.7693 18.2307 8.7693C16.5738 8.7693 15.2307 10.1124 15.2307 11.7693C15.2307 13.1041 16.1024 14.2352 17.3076 14.6246V15.2308C17.3076 17.3975 15.5512 19.1539 13.3845 19.1539C11.2179 19.1539 9.46149 17.3975 9.46149 15.2308V14.4727C10.6422 14.3012 11.6925 13.7974 12.4978 13.0034C13.5097 12.0059 14.0768 10.6073 14.0768 9.00004V5C14.0768 3.89543 13.1814 3 12.0768 3H11.3098C10.8 3 10.3867 3.41327 10.3867 3.92307C10.3867 4.43287 10.8 4.84614 11.3098 4.84614H11.7307C12.0068 4.84614 12.2307 5.07 12.2307 5.34614V9.00004C12.2307 10.1619 11.8284 11.071 11.2017 11.6887C10.5731 12.3085 9.66046 12.6922 8.53842 12.6922C7.41639 12.6922 6.50379 12.3085 5.87512 11.6887C5.24845 11.071 4.84614 10.1619 4.84614 9.00004L4.84615 5.34614C4.84615 5.07 5.07001 4.84614 5.34615 4.84614H5.76923C6.27902 4.84614 6.6923 4.43287 6.6923 3.92307C6.6923 3.41327 6.27902 3 5.76923 3H5ZM19.3845 11.7693C19.3845 11.132 18.8679 10.6154 18.2307 10.6154C17.5934 10.6154 17.0768 11.132 17.0768 11.7693C17.0768 12.4065 17.5934 12.9231 18.2307 12.9231C18.8679 12.9231 19.3845 12.4065 19.3845 11.7693Z" fill="#1C1A22"/>
</svg>
