<svg width="24" height="24" viewBox="0 0 24 24" fill="none" xmlns="http://www.w3.org/2000/svg">
<path d="M9.3 11.1C9.3 7.62061 12.1206 4.8 15.6 4.8H16.95C17.4471 4.8 17.85 4.39706 17.85 3.9C17.85 3.40294 17.4471 3 16.95 3H15.6C11.1265 3 7.5 6.62649 7.5 11.1C7.5 11.5971 7.09706 12 6.6 12H3.9C3.40294 12 3 12.4029 3 12.9C3 13.3971 3.40294 13.8 3.9 13.8H6.6C8.09117 13.8 9.3 12.5912 9.3 11.1ZM16.5 8.4C14.5118 8.4 12.9 10.0118 12.9 12C12.9 14.9823 10.4823 17.4 7.5 17.4H3.9C3.40294 17.4 3 16.9971 3 16.5C3 16.0029 3.40294 15.6 3.9 15.6H7.5C9.48822 15.6 11.1 13.9882 11.1 12C11.1 9.01766 13.5177 6.6 16.5 6.6H20.1C20.5971 6.6 21 7.00294 21 7.5C21 7.99706 20.5971 8.4 20.1 8.4H16.5ZM17.4 12C16.9029 12 16.5 12.4029 16.5 12.9C16.5 17.3735 12.8735 21 8.4 21H6.6C6.10294 21 5.7 20.5971 5.7 20.1C5.7 19.6029 6.10294 19.2 6.6 19.2H8.4C11.8794 19.2 14.7 16.3794 14.7 12.9C14.7 11.4088 15.9088 10.2 17.4 10.2H20.1C20.5971 10.2 21 10.6029 21 11.1C21 11.5971 20.5971 12 20.1 12H17.4Z" fill="#1C1A22"/>
</svg>
