<svg width="24" height="24" viewBox="0 0 24 24" fill="none" xmlns="http://www.w3.org/2000/svg">
<path d="M15.7909 13.158C16.5167 13.158 17.1561 13.5277 17.5313 14.089H14.8601C12.4198 14.089 10.4416 16.0672 10.4416 18.5074C10.4416 19.261 10.6303 19.9706 10.963 20.5914C10.7907 20.5976 10.6158 20.6007 10.4383 20.6007C7.25613 20.6007 4.90926 19.6034 3.47474 17.5901C3.16595 17.1567 3 16.6378 3 16.1057V15.2499C3 14.0946 3.93658 13.158 5.09191 13.158H15.7909ZM10.4383 2C13.007 2 15.0893 4.08233 15.0893 6.65101C15.0893 9.21969 13.007 11.302 10.4383 11.302C7.86964 11.302 5.78731 9.21969 5.78731 6.65101C5.78731 4.08233 7.86964 2 10.4383 2ZM21.6004 18.5074C21.6004 16.5809 20.0386 15.0192 18.1121 15.0192L18.0175 15.0256C17.6769 15.0717 17.4145 15.3636 17.4145 15.7168C17.4145 16.1021 17.7268 16.4145 18.1121 16.4145L18.2554 16.4193C19.3445 16.493 20.2051 17.3997 20.2051 18.5074C20.2051 19.6633 19.268 20.6004 18.1121 20.6004L18.1089 20.6047L18.0143 20.6115C17.674 20.6592 17.4129 20.9523 17.4145 21.3055C17.4163 21.6908 17.73 22.0017 18.1153 22V21.9957L18.3003 21.9909C20.1378 21.8946 21.6004 20.3718 21.6004 18.5074ZM15.5541 15.7168C15.5541 15.3315 15.2417 15.0192 14.8564 15.0192L14.6712 15.024C12.8308 15.1203 11.3682 16.6431 11.3682 18.5074C11.3682 20.4339 12.9299 21.9957 14.8564 21.9957L14.9511 21.9893C15.2916 21.9431 15.5541 21.6512 15.5541 21.298C15.5541 20.9127 15.2417 20.6004 14.8564 20.6004L14.7131 20.5956C13.6241 20.5219 12.7635 19.6152 12.7635 18.5074C12.7635 17.3515 13.7005 16.4145 14.8564 16.4145L14.9511 16.4081C15.2916 16.3619 15.5541 16.07 15.5541 15.7168ZM18.8098 18.5074C18.8098 18.1221 18.4974 17.8098 18.1121 17.8098H14.8564L14.7618 17.8162C14.4212 17.8624 14.1588 18.1542 14.1588 18.5074C14.1588 18.8927 14.4711 19.2051 14.8564 19.2051H18.1121L18.2068 19.1987C18.5473 19.1525 18.8098 18.8606 18.8098 18.5074Z" fill="#1C1A22"/>
</svg>
