<svg width="24" height="24" viewBox="0 0 24 24" fill="none" xmlns="http://www.w3.org/2000/svg">
<path d="M17.3778 13.7977C18.4958 13.7977 19.4021 14.704 19.4021 15.822V16.34C19.4021 17.145 19.1144 17.9235 18.591 18.535C17.1783 20.1855 15.0294 21 12.1981 21C9.36631 21 7.21852 20.1852 5.8086 18.5341C5.28672 17.923 5 17.1457 5 16.342V15.822C5 14.704 5.90633 13.7977 7.02435 13.7977H17.3778ZM17.3778 15.1479H7.02435C6.65205 15.1479 6.35024 15.4497 6.35024 15.822V16.342C6.35024 16.8242 6.52227 17.2906 6.8354 17.6573C7.96358 18.9784 9.73318 19.6498 12.1981 19.6498C14.663 19.6498 16.4342 18.9784 17.5652 17.657C17.8793 17.2901 18.0519 16.823 18.0519 16.34V15.822C18.0519 15.4497 17.7501 15.1479 17.3778 15.1479ZM12.1981 3C14.6838 3 16.6989 5.01508 16.6989 7.5008C16.6989 9.98652 14.6838 12.0016 12.1981 12.0016C9.71237 12.0016 7.69729 9.98652 7.69729 7.5008C7.69729 5.01508 9.71237 3 12.1981 3ZM12.1981 4.35024C10.4581 4.35024 9.04753 5.76079 9.04753 7.5008C9.04753 9.24081 10.4581 10.6514 12.1981 10.6514C13.9381 10.6514 15.3487 9.24081 15.3487 7.5008C15.3487 5.76079 13.9381 4.35024 12.1981 4.35024Z" fill="#1C1A22" stroke="#1C1A22" stroke-width="0.5"/>
</svg>
