<svg width="24" height="24" viewBox="0 0 24 24" fill="none" xmlns="http://www.w3.org/2000/svg">
<path d="M17.3778 13.7977C18.4958 13.7977 19.4021 14.704 19.4021 15.822V16.6488C19.4021 17.1649 19.2408 17.6681 18.9407 18.088C17.5492 20.0353 15.2769 21 12.1981 21C9.11867 21 6.8476 20.0349 5.45941 18.0866C5.16059 17.6672 5 17.1651 5 16.6502V15.822C5 14.704 5.90633 13.7977 7.02435 13.7977H17.3778ZM12.1981 3C14.6838 3 16.6989 5.01508 16.6989 7.5008C16.6989 9.98652 14.6838 12.0016 12.1981 12.0016C9.71237 12.0016 7.69729 9.98652 7.69729 7.5008C7.69729 5.01508 9.71237 3 12.1981 3Z" fill="#1C1A22"/>
</svg>
