<svg width="24" height="24" viewBox="0 0 24 24" fill="none" xmlns="http://www.w3.org/2000/svg">
<path d="M6.54559 7.28571H5.42871C4.32414 7.28571 3.42871 8.18114 3.42871 9.28571V19C3.42871 20.1046 4.32414 21 5.42871 21H18.5716C19.6761 21 20.5716 20.1046 20.5716 19V9.28571C20.5716 8.18114 19.6761 7.28571 18.5716 7.28571H17.4547" stroke="#1C1A22" stroke-width="2"/>
<path d="M7.15879 9.21708L6.27853 5.82805C5.9973 4.74533 6.6592 3.64613 7.76051 3.44996C9.00214 3.22879 10.6201 3 12.0004 3C13.3806 3 14.9986 3.22879 16.2402 3.44996C17.3415 3.64613 18.0034 4.74533 17.7222 5.82805L16.8419 9.21708C16.6129 10.0987 15.8171 10.7143 14.9062 10.7143H9.09456C8.18364 10.7143 7.3878 10.0987 7.15879 9.21708Z" stroke="#1C1A22" stroke-width="2"/>
<path d="M14.3377 6.42857L12 10.7143" stroke="#1C1A22" stroke-width="2" stroke-linecap="round"/>
<path d="M15.1166 16.7143H8.88281" stroke="#1C1A22" stroke-width="2" stroke-linecap="round"/>
</svg>
